<?xml version="1.0" encoding="utf-8"?>
<!-- Generator: Adobe Illustrator 19.0.0, SVG Export Plug-In . SVG Version: 6.00 Build 0)  -->
<svg version="1.1" id="Layer_1" xmlns="http://www.w3.org/2000/svg" xmlns:xlink="http://www.w3.org/1999/xlink" x="0px" y="0px"
	 viewBox="-218 372 175 50" style="enable-background:new -218 372 175 50;" xml:space="preserve">
<style type="text/css">
	.st0{fill:#FFFFFF;}
</style>
<g id="XMLID_1_">
	<path class="st0" d="M-181.1,402.7l-0.3-0.2c-1.2,1.3-1.8,1.7-2.7,1.7c-1-0.2-2-0.7-2.6-1.5v-3.1l5.5-4.2l-3.7-3.7l-3.1,2.3
		c-0.5,0.4-1,0.7-1.5,0.9c0.1,0.5,0.1,1,0.2,1.5v7.1c-0.5,0.5-1.1,0.8-1.7,0.9c-0.5,0.1-1-0.3-1.1-0.9v-0.1V394
		c-0.4-1.2-1.3-2.1-2.5-2.4l-3.5,2.8v-6.6c0-0.8,0.4-1.6,1.1-2.1v-0.1c-1.3,0-2.4,0.8-2.9,2l-0.6-1.3h-0.2v16.9
		c-1.4,0.9-2.9,1.4-4.6,1.5c-0.3,0-0.6,0-0.9,0v-14.4c0.5,0.1,1.1,0.1,1.6,0.1s1-0.1,1.4-0.3l1.9-3.8h-0.3c-0.7,1.4-1.1,1.6-2.6,1.6
		c-0.7,0-2.4-0.2-4-0.4c-1.6-0.2-3.2-0.5-4-0.5c-1.9-0.2-3.6,1.2-3.8,3.1c0,0.1,0,0.2,0,0.3c0,0.7,0.2,1.4,0.7,2l0.3-0.1
		c-0.3-0.4-0.5-0.8-0.5-1.3c0-0.7,0.5-1.3,2-1.3c0.6,0,2.6,0.2,4.6,0.3c-2.1,1.1-4.2,2.3-6.1,3.8c-1,1.3-1.5,2.8-1.5,4.4
		c0,4.1,3.1,8.6,10.1,8.6c2-1.1,5-2.9,5-2.9l2.8,2.5l1.9-1.9l-1.5-1.5v-8c0.4-0.7,1.2-1.2,2-1.3c0.7,0,1.3,0.6,1.4,1.3v9.7
		c0.4,0.9,1.2,1.6,2.1,1.8l3.4-2.6l3.9,2.7L-181.1,402.7z M-183.6,396.6l-3,2.5v-5.5l0.1-0.1l3,3L-183.6,396.6z M-206.6,404.7
		c-1.8-0.2-3.5-0.9-4.8-2.1c2.4-1.7,2.9-2.7,2.9-4.6v-8c0.8,0.1,1.2,0.1,1.8,0.2L-206.6,404.7L-206.6,404.7z M-211,399.8
		c0.1,0.9-0.2,1.8-0.8,2.4c-1.5-1.6-2.3-3.7-2.2-5.9c-0.1-1.1,0.2-2.1,0.7-3c0.7-0.6,1.5-1.2,2.3-1.7V399.8z"/>
	<path class="st0" d="M-146.5,393.8l-4.4-2.4c-1.5,1.4-3.2,2.6-5,3.5c0.2,1,0.3,2.1,0.2,3.1c0,3.2,0,4.9-0.5,5.8l4.9,3
		c1.4-1.4,3-2.6,4.8-3.5c-0.2-0.5-0.2-1-0.2-1.5v-5.4C-147,395.5-146.8,394.6-146.5,393.8L-146.5,393.8z M-157.5,397.2l-3.4-2.3
		c1.3-0.8,1.7-1,2.2-1.4c0.8-0.6,1-0.9,1-1.3c-0.1-0.6-0.3-1.2-0.7-1.7c-0.8-1.1-1.5-2.3-3-4.4c-2.1,1.5-3.3,2.3-5.6,4.1
		c-1,0.8-1.6,2-1.6,3.3v4.8c0.1,1.3-0.5,2.5-1.6,3.2c-3.3,0-5.3,2.1-5.3,4.3c0,1,0.3,1.9,1,2.7l0.2-0.2c-0.5-0.6-0.8-1.3-0.8-2
		c0-1.1,0.8-2.4,3.5-2.4c2.9,0,5.6,2,7.2,2.9c1.9-1.7,4.2-3,6.6-3.7v-4.9C-157.9,397.8-157.7,397.5-157.5,397.2L-157.5,397.2z
		 M-165.5,387.5l-0.1-0.3c-1.1,0-2.2-0.1-3.4-0.3c-0.8-0.2-1.6-0.3-2.5-0.3c-2.5,0-4.2,1.3-4.2,3.4c-0.1,0.8,0.2,1.5,0.8,2l0.2-0.2
		c-0.3-0.3-0.5-0.7-0.5-1.2c0-0.9,0.8-1.7,2.5-1.7c1.2,0,2.3,0.2,3.4,0.5c-2.1,1.5-3.4,2.7-3.4,6.1c-0.4-0.2-0.9-0.2-1.3-0.2
		c-1.2-0.1-2.3,0.7-2.4,2c0,0.1,0,0.1,0,0.2c0,0.5,0.1,0.9,0.4,1.3l0.3-0.1c-0.1-0.2-0.2-0.5-0.2-0.7c0-0.7,0.5-1.2,1.5-1.2
		c0.7,0,1.4,0.3,1.8,0.9c0,2.3-0.5,3.5-1.7,3.5v0.2c2.1,0.1,3.9-1.4,4.1-3.5v-4.3C-170.3,390.7-168.4,388.1-165.5,387.5
		L-165.5,387.5z M-149.7,404.8l-0.1,0.1l-3-1.8v-9.7l3.2,1.8L-149.7,404.8z M-160.5,393.5c0,0.8-0.8,1.3-3.3,2.9v-2.5
		c0-0.8,0-1.6,0.1-2.4h-0.5c0.1,0.8,0.1,1.6,0.1,2.4v9.8c-1.7-1.1-3.6-1.8-5.6-2.1c2-1.1,3.9-2.6,3.9-4.8V392c0.1-1.6,0.9-3,2.2-3.9
		c1.3,1.9,1.8,2.7,2.8,4.4C-160.7,392.8-160.6,393.1-160.5,393.5z M-160.9,398.3v5.5c-0.5,0.2-1,0.5-1.5,0.9
		c-0.4-0.3-0.9-0.5-1.3-0.8v-7.2L-160.9,398.3L-160.9,398.3z"/>
	<path class="st0" d="M-104.7,404l-0.3-0.3l-1.3,1.1c-0.6,0-1.1-0.5-1.1-1.1v-0.1V394c-0.5-1.1-1.4-1.9-2.6-2.3l-3.4,2.6
		c0-1.2-0.7-2.2-1.8-2.7l-2,1.8l1.1,1.1v7.9c0,0.7-0.3,1.4-0.8,1.9l3.2,2.3l1.7-2.1l-1.3-1.1V395c0.4-0.7,1.1-1.1,1.8-1.2
		c0.7,0,1.2,0.5,1.4,1.1v9.9c0.4,1,1.2,1.7,2.2,1.9L-104.7,404L-104.7,404z M-118.6,403.4c-0.1-0.5-0.2-1-0.2-1.5v-8l-4.2-2.3
		c-1.4,1.3-3.1,2.5-4.8,3.4c0.1,0.5,0.2,0.9,0.2,1.4v6.8c-0.4,0.6-1.1,0.9-1.8,1c-0.7,0-1.3-0.4-1.7-0.9v-9.9h3.1v-0.7l-3-0.1v-3.4
		h-0.3l-4.1,4.4c-1.9-0.3-3.6-1.1-5.1-2.3c-1.2,1.4-2.8,2.4-4.4,3.2c0.1,0.9,0.1,1.4,0.1,2.3c0,0.8,0,1.6-0.1,2.4l2.5,1.7l-2.3,2.4
		c-0.8,0.7-1.3,1.7-1.4,2.7c0,0.7,0.3,1.4,0.8,2l0.3-0.2c-0.3-0.4-0.5-1-0.5-1.5c-0.1-0.8,0.5-1.5,1.3-1.5c0.1,0,0.2,0,0.3,0
		c1.5,0.2,2.8,0.8,3.9,1.9c1.2-1.2,2.6-2.2,4.2-3v-3.9c0-0.3,0-0.7,0.2-1l-2.5-1.7l3.1-3.4h1.5v8.5c0,0.7-0.2,1.4-0.5,2l3.5,2.6
		l3.1-2.7l4.3,2.8C-122.1,405.5-120.4,404.3-118.6,403.4L-118.6,403.4z M-121.7,404.8l-0.1,0.2l-3.1-1.9v-9.6l3.2,1.9L-121.7,404.8
		L-121.7,404.8z M-137.5,395.5l-3.2,3.5l-1.4-1v-4.6C-140.8,394.4-139.2,395.2-137.5,395.5L-137.5,395.5z M-138.7,404.8
		c-1.4-1.3-3.2-1.9-5.1-1.8l3.7-4l1.3,1.1L-138.7,404.8L-138.7,404.8z"/>
	<path class="st0" d="M-65.8,393.7l-4.6-2.4c-1.4,1.3-2.9,2.4-4.6,3.2c0.2,0.9,0.2,1.8,0.2,2.6v6.3c-0.3,0.4-0.8,0.6-1.3,0.7
		c-0.6,0-1.1-0.2-1.5-0.6v-15.3c0-0.9,0.5-1.9,1.2-1.9v-0.1c-1.3-0.1-2.5,0.6-3,1.7c-0.3-0.7-1-1.1-1.8-1.1v0.2
		c0.5,0,0.9,1.3,0.9,2.5v12.4c0.1,0.9-0.1,1.7-0.6,2.5l3,2.2l2.9-2.5l4.5,2.7c1.4-1.4,2.9-2.6,4.6-3.6c-0.1-0.7-0.2-1.4-0.2-2.1
		v-5.5C-66.1,394.9-66,394.3-65.8,393.7L-65.8,393.7z M-82.3,387.7l-0.3-0.3l-1.2,1.3c-2.1-0.7-4.1-1.5-6-2.6
		c-3.6,2.8-6.4,4.7-10,7.3c-0.9,1.4-1.4,3.1-1.3,4.7c0,4.9,4.6,8.8,10.3,8.8c3.3-1.3,6.2-3.5,8.3-6.4c0.1-0.6,0.2-1.1,0.2-1.7
		c0.1-3-2.1-5.6-5-6.2L-82.3,387.7z M-68.6,404.5l-0.2,0.1l-3.3-2.1v-9.1l3.5,1.6V404.5z M-86.4,391l-4.1,3.7V389
		C-89.1,389.6-87.7,390.3-86.4,391L-86.4,391z M-84.9,400.2c0,0.9-0.2,1.9-0.5,2.8c-1.2,1.2-2.9,1.8-4.6,1.8h-0.5v-9.9
		c0.3,0,0.6,0,0.9,0C-86.8,395-84.8,397.4-84.9,400.2C-85,400.1-85,400.2-84.9,400.2L-84.9,400.2z M-90.9,404.7
		c-1.8-0.1-3.5-0.7-4.8-1.9c1.9-1.3,3-2,3-4v-10l0.6-0.5c0.4,0.1,0.8,0.3,1.2,0.5L-90.9,404.7L-90.9,404.7z M-95,400.3
		c0.1,0.9-0.3,1.7-1,2.2c-1.5-1.6-2.4-3.7-2.3-5.9c-0.2-2.2,0.8-4.4,2.7-5.6l0.7-0.5L-95,400.3L-95,400.3z"/>
	<path class="st0" d="M-44.5,402.7l-0.2-0.2c-1.2,1.2-1.9,1.7-2.6,1.7s-1.3-0.4-2.7-1.5v-3.1l5.4-4.3c-1.3-1.1-3.9-3.7-3.9-3.7
		c-1.4,1.3-2.8,2.4-4.3,3.4c0.1,0.5,0.2,1,0.2,1.5v6.1c0,0.4-0.1,0.8-0.2,1.2l4.3,3L-44.5,402.7L-44.5,402.7z M-54.9,403.4
		c-0.2-1.7-0.1-6.4-0.1-8.6c0-1.4-1.2-2.5-2.8-3l-3.1,2.6v-5.8c0-1,0.6-2,1.3-2v-0.2c-1.4,0-2.7,0.8-3.4,2c-0.4-0.6-1.2-1-1.9-0.9
		v0.3c0.8,0,1.5,1.3,1.5,3.6v11c0,0.5-0.1,1.1-0.4,1.5l4.7,2.9C-57.9,405.5-56.4,404.4-54.9,403.4L-54.9,403.4z M-47.1,396.4l-3,2.4
		v-5.5L-47.1,396.4L-47.1,396.4z M-57.6,399.6v5.1l-0.1,0.1l-3.2-2V395c0.4-0.7,1-1.1,1.8-1.2c0.7,0.1,1.3,0.6,1.5,1.3V399.6
		L-57.6,399.6z"/>
</g>
</svg>
