<?xml version="1.0" encoding="utf-8"?>
<!-- Generator: Adobe Illustrator 19.0.0, SVG Export Plug-In . SVG Version: 6.00 Build 0)  -->
<svg version="1.1" id="Layer_1" xmlns="http://www.w3.org/2000/svg" xmlns:xlink="http://www.w3.org/1999/xlink" x="0px" y="0px"
	 viewBox="-218 372 175 50" style="enable-background:new -218 372 175 50;" xml:space="preserve">
<style type="text/css">
	.st0{fill:#FFFFFF;}
</style>
<g id="XMLID_29_" transform="translate(-0.335)">
	<g id="XMLID_30_" transform="translate(-0.475 7.646)">
		<g id="XMLID_31_" transform="translate(0 0)">
			<path id="XMLID_53_" class="st0" d="M-152.7,397.7c0,2.6,1.6,3.7,3.7,4.5l2.3,0.8c1.4,0.5,2.3,1,2.3,2.3c0,1.4-1.2,2.1-3.1,2.1
				c-1.8,0-3.6-0.7-5-1.8v2.8c1.5,0.9,3.3,1.4,5,1.4c3.2,0,5.6-1.6,5.6-4.5c0-2.3-1.1-3.7-3.6-4.6l-2.4-0.9
				c-1.3-0.5-2.1-0.9-2.1-2.1c0-1.2,1.2-1.9,2.8-1.9c1.7,0,3.3,0.6,4.6,1.7v-2.7c-1.4-0.9-3-1.3-4.7-1.3
				C-150.2,393.4-152.6,394.9-152.7,397.7"/>
			<path id="XMLID_52_" class="st0" d="M-134.8,393.7h2.7v15.8h-2.7V393.7z"/>
			<path id="XMLID_51_" class="st0" d="M-183.4,393.7h2.7v15.8h-2.7V393.7z"/>
			<path id="XMLID_48_" class="st0" d="M-121.5,396.1h3.3c3.4,0,5.1,2.1,5.1,5.5s-1.8,5.5-5.1,5.5h-3.3V396.1z M-124.3,393.7v15.8
				h6.1c4.7,0,7.7-3.1,7.7-7.9c0-4.8-3-7.9-7.7-7.9H-124.3z"/>
			<path id="XMLID_47_" class="st0" d="M-104.7,393.7v15.8h9.6v-2.4h-7v-4.9h6.3v-2.3h-6.3V396h7v-2.4h-9.6V393.7z"/>
			<path id="XMLID_44_" class="st0" d="M-84.4,396h3c1.8,0,2.8,1,2.8,2.4s-1,2.4-2.8,2.4h-3V396z M-87.1,393.7v15.8h2.7v-6.4h1.9
				l5.5,6.4h3.1l-5.7-6.5c2.5-0.4,3.7-1.9,3.7-4.5c0-3.1-2.1-4.7-5.4-4.7L-87.1,393.7z"/>
			<path id="XMLID_43_" class="st0" d="M-157.7,373.4c0,2.6,1.6,3.8,3.8,4.6l2.3,0.8c1.4,0.5,2.3,1,2.3,2.3c0,1.3-1.3,2.1-3.1,2.1
				c-1.9,0-3.7-0.7-5.1-1.9v2.9c1.5,1,3.3,1.5,5.1,1.4c3.3,0,5.7-1.6,5.7-4.5c0-2.3-1.1-3.7-3.6-4.7l-2.6-0.9
				c-1.4-0.5-2.1-1-2.1-2.1s1.2-1.9,2.8-1.9c1.7,0,3.4,0.6,4.7,1.7v-2.8c-1.5-1-3.1-1.4-4.8-1.4C-155.3,369-157.7,370.5-157.7,373.4
				"/>
			<path id="XMLID_42_" class="st0" d="M-76.2,373.4c0,2.6,1.6,3.8,3.8,4.6l2.3,0.8c1.4,0.5,2.3,1,2.3,2.3c0,1.3-1.3,2.1-3.1,2.1
				c-1.9,0-3.7-0.7-5.1-1.9v2.9c1.5,1,3.3,1.5,5.1,1.4c3.3,0,5.7-1.6,5.7-4.5c0-2.3-1.1-3.7-3.7-4.7l-2.6-0.9
				c-1.3-0.5-2.1-0.9-2.1-2.1c0-1.2,1.2-1.9,2.8-1.9c1.7,0,3.4,0.6,4.7,1.7v-2.8c-1.4-0.9-3.1-1.3-4.7-1.3
				C-73.7,369-76.2,370.5-76.2,373.4"/>
			<path id="XMLID_41_" class="st0" d="M-92.6,373.4c0,2.6,1.6,3.8,3.8,4.6l2.3,0.8c1.4,0.5,2.3,1,2.3,2.3c0,1.3-1.3,2.1-3.1,2.1
				c-1.9,0-3.7-0.7-5.1-1.9v2.9c1.5,1,3.3,1.5,5.1,1.4c3.3,0,5.7-1.6,5.7-4.5c0-2.3-1.1-3.7-3.7-4.7l-2.6-0.9
				c-1.3-0.5-2.1-0.9-2.1-2.1c0-1.2,1.2-1.9,2.8-1.9c1.7,0,3.4,0.6,4.7,1.7v-2.8c-1.4-0.9-3.1-1.3-4.7-1.3
				C-90.1,369-92.6,370.5-92.6,373.4"/>
			<path id="XMLID_40_" class="st0" d="M-108.4,369.3v16h9.7v-2.4h-7v-5h6.3v-2.4h-6.3v-3.9h7v-2.4L-108.4,369.3L-108.4,369.3z"/>
			<path id="XMLID_36_" class="st0" d="M-191.5,378.3h3.4c1.8,0,2.8,0.9,2.8,2.4s-1,2.3-2.8,2.3h-3.4V378.3z M-191.5,371.6h3
				c1.8,0,2.8,0.7,2.8,2.2s-1,2.2-2.8,2.2h-3V371.6z M-194.2,369.3v16h6.2c3.4,0,5.4-1.6,5.4-4.6c0-1.7-1-3.1-2.6-3.7
				c1.4-0.6,2.2-1.9,2.1-3.4c0-2.9-2.1-4.4-5.4-4.4L-194.2,369.3z"/>
			<path id="XMLID_35_" class="st0" d="M-139.8,369.3h2.7v16h-2.7V369.3z"/>
			<path id="XMLID_34_" class="st0" d="M-166.7,369.3v9.4c0,3.1-1.3,4.5-3.7,4.5c-2.4,0-3.7-1.4-3.7-4.5v-9.4h-2.7v9.6
				c0,4.4,2.6,6.7,6.4,6.7s6.4-2.3,6.4-6.6v-9.7C-164,369.3-166.7,369.3-166.7,369.3z"/>
			<path id="XMLID_33_" class="st0" d="M-118.3,369.3v10.2l-11-10.5v16.3h2.6v-10.4l11,10.7v-16.3H-118.3z"/>
			<path id="XMLID_32_" class="st0" d="M-173,409.4h2.6v-10.2l10.9,10.5v-16h-2.6v10.1l-10.9-10.4V409.4z"/>
		</g>
	</g>
</g>
</svg>
