<?xml version="1.0" encoding="utf-8"?>
<!-- Generator: Adobe Illustrator 19.0.0, SVG Export Plug-In . SVG Version: 6.00 Build 0)  -->
<svg version="1.1" id="Layer_1" xmlns="http://www.w3.org/2000/svg" xmlns:xlink="http://www.w3.org/1999/xlink" x="0px" y="0px"
	 viewBox="-218 372 175 50" style="enable-background:new -218 372 175 50;" xml:space="preserve">
<style type="text/css">
	.st0{fill:#FFFFFF;}
</style>
<g id="XMLID_1_">
	<rect id="XMLID_29_" x="-185.4" y="373.5" class="st0" width="109.8" height="47.1"/>
	<g>
		<g transform="translate(10.844 -0.265)">
			<g transform="translate(0 0)">
				<path id="XMLID_28_" class="st0" d="M-160.2,396.6h-8v0.7h8v7.3h0.7v-14.9h-0.7V396.6z"/>
				<path id="XMLID_27_" class="st0" d="M-171.8,389.7h0.7v14.8h-0.7V389.7z"/>
				<path id="XMLID_26_" class="st0" d="M-187.7,389.7h11.6v0.7h-11.6V389.7z"/>
				<path id="XMLID_25_" class="st0" d="M-182.3,393.3h0.7v11.3h-0.7V393.3z"/>
				<path id="XMLID_24_" class="st0" d="M-147.2,399.7c2.8,0,5-2.2,5-5c0-2.8-2.2-5-5-5l0,0h-6.4v14.9h0.7v-14.2h5.7
					c2.4-0.1,4.4,1.8,4.5,4.2c0.1,2.4-1.8,4.4-4.2,4.4c-0.1,0-0.2,0-0.3,0h-2.8l7.1,5.5h1.1l-6.3-4.9h0.9V399.7z"/>
				<path id="XMLID_23_" class="st0" d="M-110.4,396.6h6.8v0.7h-6.8V396.6z"/>
				<path id="XMLID_22_" class="st0" d="M-114,389.7v14.8h10.5v-0.7h-9.8v-13.4h9.8v-0.7C-103.5,389.7-114,389.7-114,389.7z"/>
				<path id="XMLID_21_" class="st0" d="M-137.3,389.7h0.7v14.8h-0.7V389.7z"/>
				<path id="XMLID_20_" class="st0" d="M-125.2,403.5l-6.5-13.7h-0.7l7.2,15.1h0.2l7.2-15.1h-0.8L-125.2,403.5z"/>
				<path id="XMLID_19_" class="st0" d="M-162.4,414.3h7.6c-0.1,2.9-2.6,5.2-5.5,5.1c-2.9-0.1-5.2-2.6-5.1-5.5
					c0.1-2.9,2.6-5.2,5.5-5.1c1.6,0.1,3,0.8,4,2l0.1,0.2v-1c-2.3-2.4-6.1-2.4-8.4-0.1c-2.4,2.3-2.4,6.1-0.1,8.4
					c2.3,2.4,6.1,2.4,8.4,0.1c1.2-1.1,1.8-2.7,1.8-4.3v-0.5h-8.3V414.3L-162.4,414.3z"/>
				<path id="XMLID_18_" class="st0" d="M-150.7,408.3h-0.7V420h7.9v-0.7h-7.2C-150.7,419.3-150.7,408.3-150.7,408.3z"/>
				<path class="st0" d="M-121.6,413.8c1-0.4,1.7-1.4,1.7-2.5c0-1.7-1.4-3-3.1-3h-5.4V420h6.2c1.8,0,3.2-1.4,3.3-3.2
					C-118.9,415.3-120.1,414-121.6,413.8L-121.6,413.8z M-122.1,419.3h-5.5V409h4.6c1.3-0.1,2.4,0.9,2.5,2.2
					c0.1,1.3-0.9,2.4-2.2,2.5c-0.1,0-0.2,0-0.2,0h-1.7v0.7h2.6c1.4-0.1,2.5,1,2.6,2.4c0.1,1.4-1,2.5-2.4,2.6
					C-122,419.3-122,419.3-122.1,419.3L-122.1,419.3z"/>
				<path id="XMLID_15_" class="st0" d="M-102.2,419.3v-11h-0.7V420h7.9v-0.7H-102.2z"/>
				<path id="XMLID_14_" class="st0" d="M-111.5,408.2l-5.6,11.8h0.7l5-10.5l3.3,6.9h-3.5l-0.3,0.7h4.1l1.4,2.9l0,0h0.8l-5.6-11.8
					H-111.5L-111.5,408.2z"/>
				<path class="st0" d="M-138,382.8c0,0.1,0,0.1,0,0.2l0.8,0.9l0.1-0.1v-4.4c-0.1,0-0.2-0.1-0.2-0.2l-1.7-1.8h-0.1
					c-0.2,0-0.3-0.1-0.3-0.3V377l-1.8-1.9c-0.8,0.7-1.5,1.7-1.9,2.7l4.5,4.6c0.1,0,0.1-0.1,0.2,0C-138.2,382.4-138,382.6-138,382.8
					C-138,382.7-138,382.7-138,382.8L-138,382.8z M-136.7,378.8l3.7-3.9c-1.1-0.9-2.5-1.4-3.9-1.4v5.2
					C-136.8,378.7-136.8,378.8-136.7,378.8L-136.7,378.8z M-138.7,377.1c0,0.1,0,0.1-0.1,0.2l1.6,1.6c0-0.1,0.1-0.1,0.1-0.1v-5.3
					c-1.4,0-2.8,0.5-3.9,1.4l1.8,1.8c0.1,0,0.1-0.1,0.2-0.1C-138.9,376.7-138.7,376.9-138.7,377.1L-138.7,377.1z M-136.9,379.4v4.3
					c0.1,0,0.1,0.1,0.1,0.1l2.3-2.4c0-0.1-0.1-0.1,0-0.2c0-0.2,0.2-0.3,0.3-0.3c0.1,0,0.1,0,0.2,0l3.1-3.2c-0.4-1-1-2-1.9-2.7
					l-3.8,4C-136.6,379.2-136.7,379.3-136.9,379.4L-136.9,379.4z M-137.3,384l-0.9-1h-0.1c-0.2,0-0.3-0.1-0.3-0.3v-0.1l-4.5-4.6
					c-0.2,0.6-0.3,1.3-0.3,1.9c0,3.5,4.5,8.1,6.3,8.3v-3.9C-137.2,384.3-137.3,384.2-137.3,384L-137.3,384z M-130.8,378l-3,3.1
					c0.1,0.2,0,0.4-0.2,0.4l0,0c-0.1,0-0.2,0-0.3,0l-2.4,2.5c0,0.1-0.1,0.3-0.2,0.3v4c1.7-0.2,6.3-4.8,6.3-8.3
					C-130.5,379.3-130.6,378.7-130.8,378L-130.8,378z"/>
				<path class="st0" d="M-135.9,411.8c0-0.1,0-0.1,0.1-0.2l-0.8-0.9l-0.1,0.1v4.3c0.1,0,0.2,0.1,0.2,0.2l1.7,1.7h0.1
					c0.2,0,0.3,0.2,0.3,0.3v0.1l1.8,1.8c0.8-0.7,1.5-1.7,1.8-2.7l-4.5-4.7c-0.1,0-0.1,0.1-0.2,0C-135.8,412.1-135.9,412-135.9,411.8
					L-135.9,411.8L-135.9,411.8z M-137.2,415.7l-3.8,3.9c1.1,0.9,2.5,1.4,3.9,1.4L-137.2,415.7
					C-137.1,415.8-137.2,415.8-137.2,415.7L-137.2,415.7z M-135.2,417.5c0-0.1,0-0.1,0.1-0.2l-1.6-1.6c0,0.1-0.1,0.1-0.1,0.1v5.2
					c1.4,0,2.8-0.5,3.9-1.4l-1.8-1.8c-0.1,0-0.1,0.1-0.2,0.1C-135.1,417.8-135.2,417.7-135.2,417.5L-135.2,417.5z M-137.1,415.2
					v-4.3c-0.1,0-0.1-0.1-0.1-0.1l-2.3,2.4c0,0.1,0.1,0.1,0,0.2c0,0.2-0.2,0.3-0.3,0.3s-0.1,0-0.2,0l-3,3c0.4,1.1,1,2,1.9,2.7l3.8-4
					C-137.3,415.4-137.2,415.2-137.1,415.2L-137.1,415.2z M-136.6,410.5l0.9,0.9h0.1c0.2,0,0.3,0.1,0.3,0.3v0.1l4.5,4.6
					c0.2-0.6,0.3-1.3,0.3-1.9c0-3.5-4.5-8.1-6.3-8.3v3.9C-136.7,410.2-136.6,410.4-136.6,410.5L-136.6,410.5z M-143.1,416.5l3-3.1
					c-0.1-0.2,0-0.4,0.2-0.4l0,0c0.1,0,0.2,0,0.3,0l2.4-2.5c0-0.1,0.1-0.3,0.2-0.3v-4c-1.7,0.2-6.3,4.8-6.3,8.3
					C-143.4,415.2-143.3,415.9-143.1,416.5L-143.1,416.5z"/>
			</g>
		</g>
	</g>
</g>
</svg>
