<?xml version="1.0" encoding="utf-8"?>
<!-- Generator: Adobe Illustrator 19.0.0, SVG Export Plug-In . SVG Version: 6.00 Build 0)  -->
<svg version="1.1" id="Layer_1" xmlns="http://www.w3.org/2000/svg" xmlns:xlink="http://www.w3.org/1999/xlink" x="0px" y="0px"
	 viewBox="-218 372 175 50" style="enable-background:new -218 372 175 50;" xml:space="preserve">
<style type="text/css">
	.st0{fill:#FFFFFF;}
</style>
<g id="XMLID_1_">
	<path id="XMLID_48_" class="st0" d="M-158.9,402.4c-1.5-1.3-2.3-3.3-2.3-5.3c0-2.1,0.8-4.1,2.3-5.6l0.2-0.2c0-0.2,0,0-0.2,0
		c-1.7,1.4-2.6,3.6-2.5,5.8c-0.1,2.1,0.8,4.2,2.6,5.5c0.1,0,0.3,0.2,0.2,0L-158.9,402.4z"/>
	<path id="XMLID_47_" class="st0" d="M-153.6,396.9c0-3.7-1.1-5.6-2.8-5.6c-1.7,0-2.8,1.9-2.8,5.6c0,3.7,1.1,5.6,2.8,5.6
		C-154.7,402.5-153.6,400.6-153.6,396.9z"/>
	<path id="XMLID_46_" class="st0" d="M-163,401.6c-0.1,0.4-0.4,0.7-0.7,0.9h0.3c0.3-0.2,0.6-0.5,0.6-0.9l0.6-2.1h-0.3L-163,401.6z"
		/>
	<path id="XMLID_45_" class="st0" d="M-144.8,397.2c0.9,0.7,1.3,1.8,1.2,2.9c0.1,0.9-0.3,1.8-1.1,2.3c0.3-0.1,0.6-0.2,0.8-0.4
		c0.4-0.5,0.6-1.2,0.5-1.9c0-0.8-0.2-1.6-0.5-2.3C-144,397.5-144.4,397.3-144.8,397.2z"/>
	<path id="XMLID_44_" class="st0" d="M-143.9,400.1c0-1.6-0.5-2.9-1.8-3h-1.6v4.9c0,0.3,0,0.5,0.2,0.5h1.2
		C-144.6,402.5-143.9,401.8-143.9,400.1z"/>
	<path id="XMLID_43_" class="st0" d="M-149.4,391.3h0.3v11.3h-0.3V391.3z"/>
	<path id="XMLID_42_" class="st0" d="M-154.9,391.4C-155.2,391.3-155.2,391.4-154.9,391.4c1.3,1.5,2,3.6,1.7,5.6
		c0.3,1.9-0.3,3.9-1.7,5.3c-0.2,0.1-0.2,0.2,0,0c1.8-0.9,2-3.7,2-5.5C-153,395-153.2,392.3-154.9,391.4z"/>
	<path id="XMLID_41_" class="st0" d="M-172,399h-0.3v3.2l0.3-0.1V399z"/>
	<path id="XMLID_40_" class="st0" d="M-144.4,394c0-1.5-0.6-2.8-1.7-2.8h-1.2v5.1h1.5C-144.9,396.3-144.4,395.3-144.4,394z"/>
	<path id="XMLID_39_" class="st0" d="M-144.1,394c0.1,0.9-0.3,1.7-0.9,2.3c0.3-0.1,0.6-0.3,0.8-0.5c0.3-0.5,0.5-1.2,0.4-1.8
		c0-0.8-0.2-1.6-0.7-2.3c-0.2-0.2-0.4-0.3-0.6-0.4C-144.4,392-144,393-144.1,394z"/>
	<path id="XMLID_38_" class="st0" d="M-168.3,391.3h0.3v11.3h-0.3V391.3z"/>
	<path id="XMLID_37_" class="st0" d="M-210.1,391.2h0.3v11.3h-0.3V391.2z"/>
	<path id="XMLID_36_" class="st0" d="M-206.1,391.2h-0.2c0.3,0.1,0.4,0.5,0.5,0.9l0.6,1.9h0.3l-0.5-1.9
		C-205.6,391.6-205.8,391.2-206.1,391.2L-206.1,391.2z"/>
	<path id="XMLID_35_" class="st0" d="M-202.8,391.3h0.3v11.3h-0.3V391.3z"/>
	<path id="XMLID_34_" class="st0" d="M-213.9,393.9h0.3l0.1-2.9h-0.3L-213.9,393.9z"/>
	<path id="XMLID_33_" class="st0" d="M-185.9,392.2l0.5,1.8h0.3v-0.2l-0.5-1.6c-0.2-0.6-0.4-0.9-0.8-0.9
		C-186.1,391.6-185.9,391.9-185.9,392.2z"/>
	<path id="XMLID_32_" class="st0" d="M-196.3,391.3h0.3v11.3h-0.3V391.3z"/>
	<path id="XMLID_31_" class="st0" d="M-176.9,402.3c-1.5-1.3-2.4-3.2-2.3-5.2c0-2.1,0.9-4.1,2.4-5.5l0.2-0.2c0,0,0-0.2-0.2,0
		c-1.8,1.3-2.8,3.5-2.8,5.7c-0.1,2.1,0.8,4.2,2.6,5.4c0.1,0,0.3,0.1,0.2,0L-176.9,402.3z"/>
	<path id="XMLID_30_" class="st0" d="M-172.7,392.2c0.4,0.8,0.7,1.6,0.8,2.4h0.3c-0.2-0.8-0.5-1.6-0.8-2.3c-0.2-0.4-0.6-0.7-1-0.8
		C-173.1,391.7-172.9,391.9-172.7,392.2z"/>
	<path id="XMLID_29_" class="st0" d="M-186,402.5c0.5-0.1,0.8-0.4,0.9-0.9l0.7-2h-0.3l-0.7,2.1C-185.5,402-185.7,402.3-186,402.5
		L-186,402.5z"/>
	<path id="XMLID_28_" class="st0" d="M-191.2,391.3h0.3v11.3h-0.3V391.3z"/>
	<path id="XMLID_27_" class="st0" d="M-116.8,391.4h-0.4c0.3,0.3,0.5,0.6,0.7,1l6.9,10.6v-0.5l-6.5-9.9
		C-116.3,392-116.8,391.4-116.8,391.4z"/>
	<path id="XMLID_26_" class="st0" d="M-74.3,392.5l3.1,10h0.3l-3.3-10.5L-74.3,392.5z"/>
	<path id="XMLID_25_" class="st0" d="M-75.9,397.7h2.8l-1.4-4.7L-75.9,397.7z"/>
	<path id="XMLID_24_" class="st0" d="M-83.2,392.2l0.6,10.3h0.3l-0.7-11.1L-83.2,392.2L-83.2,392.2z"/>
	<path id="XMLID_23_" class="st0" d="M-90.3,392.2l3.4,8.6l0.2-0.4l-3.5-8.9L-90.3,392.2z"/>
	<path class="st0" d="M-216.3,388.3v17.4h171.7v-17.4H-216.3z M-184,403.3h-13.8v-0.8h1.2v-5.1h-4.2v5.1h1.2v0.8h-4.8v-0.8h1.2
		v-11.2h-1.1v2.9l-1.1,0.2l-0.7-2.4c-0.3-0.8-0.4-0.8-1.2-0.8h-0.8v11.3h1.5v0.8h-5.4v-0.8h1.5v-11.3h-0.8c-0.8,0-1,0.1-1.2,0.8
		l-0.7,2.3l-1.1-0.2l0.3-3.5h14.4v0.7h-1.2v5.2h4.1v-5.2h-1.2v-0.7h4.8v0.7h-1.2v11.3h2.8v-11.3h-1.2v-0.7h8.3v3.7l-1.1,0.2
		l-0.7-2.1c-0.2-0.8-0.5-1-1.3-1h-1.6v5h3.2v1h-3.2v5.1h2.3c0.7,0,1.1-0.5,1.4-1.3l0.7-2l1.1,0.2L-184,403.3z M-170.3,402.8h-1.1
		c-0.9,0.3-1.9,0.5-2.9,0.6c-3.2,0.1-5.5-1.9-5.5-6.3c-0.3-3.4,2.2-6.4,5.5-6.7c1.2-0.1,2.4,0.3,3.3,1v3.4l-1.1,0.2
		c-0.5-2-1-3.6-2.3-3.6c-1.7,0-2.8,2.3-2.8,5.4c0,4.1,1.4,5.7,3.2,5.7c0.5,0,1,0,1.4-0.2V399h-1.4v-0.8h3.7V402.8z M-156.4,403.5
		c-2.4,0.1-4.5-1.5-5-3.9l-0.3,3.7h-8.2v-0.8h1.3v-11.2h-1.1v-0.7h4.7v0.7h-1.2v11.3h1.5c0.8,0,1.2-0.5,1.5-1.4l0.7-2.1l1,0.2
		c-0.2-0.8-0.3-1.5-0.2-2.3c0-3.6,1.8-6.7,5.3-6.7s5.4,2.7,5.4,6.5C-151.1,400.4-152.9,403.5-156.4,403.5L-156.4,403.5z
		 M-145.4,403.3h-5.5v-0.8h1.3v-11.2h-1.3v-0.7h5.2c2.3,0,3.7,1.2,3.7,3.3c0,1.4-0.9,2.6-2.3,2.9c1.6,0.2,2.8,1.5,2.8,3.2
		C-141.4,402-143.1,403.3-145.4,403.3L-145.4,403.3z M-132.4,403.3h-8.8v-0.8h1.2v-11.2h-1.2v-0.7h8.3v3.7l-1,0.1l-0.7-2.1
		c-0.2-0.8-0.5-1-1.3-1h-1.6v5.2h3.2v1h-3.3v5.1h2.3c0.7,0,1.1-0.5,1.4-1.3l0.7-2l1.1,0.2L-132.4,403.3z M-102.7,403.3h-4.6v-0.8
		h1.3v-11.2h-1.1c-1.2,0-1.4,0.5-1.4,1.4v10.7h-1l-6.3-9.5v7.3c0,0.6,0,1.4,1.9,1.4v0.8h-8.3v-0.8h1.1c-0.4-1.4-0.8-2.6-1.2-3.8
		h-3.4c-0.3,1.1-0.4,1.7-0.5,2.1c-0.3,1.2-0.2,1.6,1.1,1.7v0.8h-3.9v-0.8c0.8,0,1.2-0.5,1.5-1.4c0,0,2.8-8.8,3.2-10.7h1.9l3.7,12.1
		h1c0.9-0.1,0.9-0.6,0.9-1.4v-8.7c-0.4-0.5-0.9-1.2-1.6-1.3v-0.6h3.2c0.2,0.4,3.8,5.9,5.5,8.5v-6.4c0-0.5,0-1.4-1.6-1.4v-0.7h8.4
		c3.1-0.1,5.7,2.4,5.8,5.5c0,0.3,0,0.5,0,0.8c0.3,3.3-2.2,6.2-5.5,6.5C-102.5,403.3-102.6,403.3-102.7,403.3L-102.7,403.3z
		 M-63.3,403.3h-9.4v-0.8h1.1c-0.4-1.4-0.8-2.6-1.2-3.8h-3.4c-0.3,1.1-0.4,1.7-0.5,2.1c-0.3,1.2-0.2,1.6,1.1,1.7v0.8h-8.6v-0.8h1.3
		l-0.6-9.7l-2.9,8.6l-0.5,0.2l-3.4-8.7l-0.2,2.2c0,2.6-0.2,5.9-0.2,6.3c0,0.4,0,0.9,1.4,1.1v0.8h-3.8v-0.7c1.2-0.3,1.4-0.6,1.4-1.1
		c0.2-2.3,0.4-6.4,0.5-8.7v-0.1c0-1.3-0.1-1.1-1.4-1.4v-0.7h3.8l2.8,7.2c0.8-2.3,1.9-5.5,2.6-7.3h3.6v0.8c-1.2,0.1-1.3,0.3-1.3,1
		v2.4l0.3,7.8h1.2c0.8,0,1.2-0.5,1.5-1.4c0,0,2.8-8.8,3.2-10.7h1.9l3.7,12.1h2.1v-11.2h-1.2v-0.7h4.8v0.7h-1.2v11.3h1.2L-63.3,403.3
		z M-54.9,403.3h-7.9v-0.8h1v-11.2h-1v-0.7h4.6v0.7h-1.2v11.3h1.5c0.8,0,1.2-0.5,1.5-1.4l0.7-2.1l1.1,0.2L-54.9,403.3z M-47.3,394.6
		c-0.4,0.3,0,0.3,0,0.4s0,0.2-0.4,0.3c-1.1,0.3-0.7,0.5-0.7,0.5s0.3,0,0.3,0.2c-0.5,0.4-0.8,0.2-1.4,0.3c-0.6,0.1-0.1,0.6-0.1,0.6
		s0.3,0.2,0.3,0.3c-0.9,0.2-1.8-0.2-2.3-1c-0.1-0.2-0.3-0.2-0.3-0.2s0,0-0.3,0.4s-0.8,1.3-1.3,1.3c-0.1,0-0.2-0.1-0.2-0.2
		c0-0.3,0.3-0.2,0.3-0.2c0.5,0,1-0.8,1.1-1.1c0.1-0.3,0-0.3-0.6-0.3S-54,395-54,395s-0.3,0-0.3-0.2c0-0.2,0.3,0,0.6,0
		s0.4-0.3,0.3-0.4c-0.1-0.2-0.7-0.7-0.9-0.9c-0.2-0.2-0.2-0.3,0.2-0.4c0.4,0,0.5-0.3,0.4-0.4c-0.1-0.2-0.1-0.5,0-0.8
		c0.1-0.2,0.1-0.5,0-0.7c0,0-0.2-0.3-0.1-0.4c0.5,0,1.1,0.8,1.1,0.9c0.3-0.4,0.7,0.5,0.9,0.8c0.2,0.4,0.3,0.2,0.4,0
		c0.3-0.6,0.5-1.2,0.7-1.8c0-0.2,0.2-0.3,0.2,0c0,0.2,0.1,0.4,0.3,0.4h0.1c0.4-0.2,0.7-0.5,1-0.9c0.2-0.3,0.2,0,0.2,0s0,1.4,0.3,1.4
		c0.3-0.1,0.3,0,0.3,0c-0.1,0.4-0.2,0.8-0.4,1.1c-0.3,0.6-0.4,0.5-0.3,0.9c0.1,0.4,0.6,0.2,0.8,0c0.2-0.2,0.4-0.2,0.5,0
		c0.1,0.2,0.4,0.3,0.7,0.2c0.2,0,0.3-0.1,0.4,0C-46.7,394.1-47,394.3-47.3,394.6L-47.3,394.6z"/>
	<path id="XMLID_12_" class="st0" d="M-66.6,391.3h0.3v11.3h-0.3V391.3z"/>
	<path id="XMLID_11_" class="st0" d="M-56.9,402.5h0.3c0.3-0.2,0.6-0.5,0.7-0.9l0.6-2.1h-0.3l-0.6,2
		C-56.2,402-56.5,402.3-56.9,402.5L-56.9,402.5z"/>
	<path id="XMLID_10_" class="st0" d="M-100.7,391.8c-0.3-0.3-0.7-0.4-1.1-0.5c0.8,0.4,1.4,1,1.8,1.7c0.6,1.3,0.9,2.6,0.9,4.1
		c0,1.7-0.2,4.6-2.3,5.4c0.6-0.1,1.2-0.5,1.6-1c0.8-1.4,1.1-3,1-4.6C-98.7,395-99.3,393.2-100.7,391.8L-100.7,391.8z"/>
	<path id="XMLID_9_" class="st0" d="M-61.4,391.3h0.3v11.3h-0.3V391.3z"/>
	<path id="XMLID_8_" class="st0" d="M-139.7,391.3h0.3v11.3h-0.3V391.3z"/>
	<path id="XMLID_7_" class="st0" d="M-125.5,397.7h2.8l-1.5-4.7L-125.5,397.7z"/>
	<path id="XMLID_6_" class="st0" d="M-99.5,397.1c0.2-2.1-0.7-4.1-2.3-5.5c-0.6-0.3-1.2-0.4-1.8-0.4h-0.2V402c0,0.4,0.1,0.6,0.4,0.6
		h0.3c0.6,0.1,1.2-0.1,1.8-0.5C-100.2,401.4-99.5,399.7-99.5,397.1z"/>
	<path id="XMLID_5_" class="st0" d="M-134.6,402.5c0.4,0,0.8-0.4,0.9-0.9l0.7-2h-0.3l-0.7,2.1C-134,402-134.2,402.3-134.6,402.5
		L-134.6,402.5z"/>
	<path id="XMLID_4_" class="st0" d="M-124,392.5l3.1,10h0.3l-3.2-10.5L-124,392.5z"/>
	<path id="XMLID_3_" class="st0" d="M-134.4,392.2l0.6,1.8h0.3v-0.2l-0.5-1.6c-0.2-0.6-0.4-0.9-0.8-0.9
		C-134.6,391.6-134.5,391.9-134.4,392.2z"/>
	<path id="XMLID_2_" class="st0" d="M-105.8,391.3h0.3v11.3h-0.3V391.3z"/>
</g>
</svg>
