<?xml version="1.0" encoding="utf-8"?>
<!-- Generator: Adobe Illustrator 19.0.0, SVG Export Plug-In . SVG Version: 6.00 Build 0)  -->
<svg version="1.1" id="Layer_1" xmlns="http://www.w3.org/2000/svg" xmlns:xlink="http://www.w3.org/1999/xlink" x="0px" y="0px"
	 viewBox="-218 372 175 50" style="enable-background:new -218 372 175 50;" xml:space="preserve">
<style type="text/css">
	.st0{fill:#FFFFFF;}
</style>
<g transform="translate(-0.002 0.274)">
	<g transform="translate(0.017 3.462)">
		<path class="st0" d="M-175,385h3.9v16.4h-3.9v6.6h20.9v-6.5h-3.9V385h3.9v-7H-175V385z"/>
		<path class="st0" d="M-122.1,401.4v-8.6c0-5.5-4-7.5-9-7.5c-3.3-0.2-6.5,1.2-8.6,3.7c-0.2,0.2-0.4,0.4-0.6,0.6v-4.5h-12.8v6.5h2.9
			v9.9h-2.9v6.5h16.3v-6.6h-3.1v-5.7c-0.1-2.2,1.7-4.1,4-4.2c0.1,0,0.2,0,0.2,0c1.9,0,3.4,0.9,3.4,3v6.8h-3v6.7h15.9v-6.4v-0.1
			L-122.1,401.4z"/>
		<path class="st0" d="M-93.3,399.5h-8.7c0.1,1.9-1.4,3.5-3.4,3.6c-0.1,0-0.3,0-0.4,0c-3.8,0-4.1-3.2-4.1-6.2v-0.1
			c0-3,0.3-6.2,4.1-6.2c3,0,3.5,2.6,3.6,5l8.8-1c-0.9-9-9.8-9.5-12-9.5h-0.5c-7.3,0-14.4,3.6-14.4,11.7c0,1.6,0.3,3.1,0.9,4.6h0.1
			v0.1c2.2,4.8,7.8,7,13.5,7c4.6,0,11.1-1.1,12.5-8.2V399.5z"/>
		<path class="st0" d="M-90.3,400.7c-2.1,0-3.7,1.7-3.7,3.7c0,2.1,1.7,3.7,3.7,3.7c2.1,0,3.7-1.7,3.7-3.7l0,0
			C-86.6,402.3-88.3,400.7-90.3,400.7z"/>
	</g>
</g>
</svg>
