<?xml version="1.0" encoding="utf-8"?>
<!-- Generator: Adobe Illustrator 19.0.0, SVG Export Plug-In . SVG Version: 6.00 Build 0)  -->
<svg version="1.1" id="Layer_1" xmlns="http://www.w3.org/2000/svg" xmlns:xlink="http://www.w3.org/1999/xlink" x="0px" y="0px"
	 viewBox="-218 372 175 50" style="enable-background:new -218 372 175 50;" xml:space="preserve">
<style type="text/css">
	.st0{fill:#FFFFFF;}
</style>
<g transform="translate(0 0)">
	<path id="XMLID_41_" class="st0" d="M-64.8,381.7c1,0.1,1.7,0.9,1.7,1.9c0,0.4-0.1,0.9-0.3,1.3c-0.7,3.1-3.4,13.8-4.5,21.1l-1.1-1
		l3.3-22.2L-64.8,381.7z"/>
	<path id="XMLID_40_" class="st0" d="M-132.2,384.6c-1.4,0.3-2.8,0.3-4.1,0l2.1,2.2L-132.2,384.6z"/>
	<path id="XMLID_39_" class="st0" d="M-153.6,384.6c1.4,0.3,2.8,0.3,4.1,0l-2.2,2.2L-153.6,384.6z"/>
	<path id="XMLID_38_" class="st0" d="M-165.7,384.6c3.2,8,8.1,20,10.6,24.7l-3.7-1.2l-9.1-22.6L-165.7,384.6z"/>
	<path id="XMLID_37_" class="st0" d="M-168.6,384.6c0.9,0.3,1.9,0.3,2.9,0l-2,1.2L-168.6,384.6z"/>
	<path id="XMLID_36_" class="st0" d="M-167.1,385.5l9.2,22.7c-0.4,0.5-0.8,0.9-1.3,1.2c-2.7-6.9-5.6-13.8-8-20.6l-1.2-2
		L-167.1,385.5z"/>
	<path id="XMLID_35_" class="st0" d="M-175.1,409.3l-2.7-1l9.6-22.5l1.1-0.3v3.3C-168.6,393.2-172.4,402.6-175.1,409.3z"/>
	<path id="XMLID_34_" class="st0" d="M-177.4,381.3l0.9,2.1l2.3-1.1l0.9-1C-174.6,381.7-176,381.7-177.4,381.3z"/>
	<path id="XMLID_33_" class="st0" d="M-183.9,399.3l-1.6,0.6l-1-1.7l9.8-15.6l0.7-0.2c0.9-0.2,1.9-0.5,2.7-0.9
		C-174.8,383.4-180.4,393.3-183.9,399.3z"/>
	<path id="XMLID_32_" class="st0" d="M-186,399l0.4-0.4l9.7-16.4l-1.5-0.9c-1.2,2.2-5.5,9.2-8.2,13.8l-1.3,2.5L-186,399z"/>
	<path id="XMLID_31_" class="st0" d="M-193.8,381.3c2.1,3.8,5.4,9.1,8.2,13.8v3.5l-0.7,0.7l-9.6-17.1L-193.8,381.3z"/>
	<path id="XMLID_30_" class="st0" d="M-195.4,382.4l1.6-1c-1.3,0.4-2.8,0.4-4.1,0l0.7,0.7L-195.4,382.4z"/>
	<path id="XMLID_29_" class="st0" d="M-185.6,398.6l-0.8,1.1l-1-0.4c-1.8-3.2-7.3-12.9-10.6-17.9c0.8,0.5,1.7,0.8,2.7,0.9
		L-185.6,398.6z"/>
	<path id="XMLID_28_" class="st0" d="M-183.6,412.6l-2.8-1.3l0.3-11.7l0.6-0.9l1.7,0.7L-183.6,412.6z"/>
	<path id="XMLID_27_" class="st0" d="M-185.6,411.7l-2,0.9l0.2-13.3l1.7-0.7L-185.6,411.7L-185.6,411.7z"/>
	<path id="XMLID_26_" class="st0" d="M-179.2,409.3c3.4-7,7.3-16.3,10.6-24.7l1.4,0.9l-9.3,22.9l-1.9,0.7L-179.2,409.3z"/>
	<path id="XMLID_25_" class="st0" d="M-158,408.2l2.9,1.2c-1.3-0.3-2.8-0.3-4.1,0l0.6-1.4L-158,408.2z"/>
	<path id="XMLID_24_" class="st0" d="M-173.6,401.2l2-0.9c2.9,0.1,5.8,0.1,8.8,0l2.1,0.9l-1.9,0.4h-9.5L-173.6,401.2z"/>
	<path id="XMLID_23_" class="st0" d="M-172.2,402.1l-1.4-0.9c4.3-0.1,8.6-0.1,12.8,0l-1.4,0.8C-165.5,402-168.8,402-172.2,402.1z"/>
	<path id="XMLID_22_" class="st0" d="M-149.5,409.3l-2.9-1v-22.1l0.8-0.4l2.1-1.2C-150,392.9-150,401.1-149.5,409.3L-149.5,409.3z"
		/>
	<path id="XMLID_21_" class="st0" d="M-151.6,408.2v0.6l-2,0.6c0.3-8.2,0.4-16.4,0-24.7l2.1,1.2L-151.6,408.2z"/>
	<path id="XMLID_20_" class="st0" d="M-136.4,409.3l2.9-1v-22.1l-0.8-0.4l-2.1-1.2C-135.9,392.8-135.9,401.1-136.4,409.3z"/>
	<path id="XMLID_19_" class="st0" d="M-151.6,396.9l1.7-0.8c4.6,0.1,9.2,0.1,13.8,0l1.7,0.8l-2.1,0.5h-13.4L-151.6,396.9z"/>
	<path class="st0" d="M-117.7,384.6c-8.1,0-12.1,5.1-12.1,12.4c0,9.2,6.1,12.4,12,12.4c7,0,12-3.9,12-12.4
		C-105.8,389-110.5,384.6-117.7,384.6z M-118,385.8h0.2c5.3,0,9.3,3.6,9.3,11.2s-3.9,11.2-9.2,11.2c-5.8,0-9.2-4.2-9.2-11.2
		C-127,389.1-122.7,385.9-118,385.8L-118,385.8z"/>
	<path class="st0" d="M-117.7,384.3c-8.7,0-13.3,5.5-13.3,12.7c0,7.9,5,12.7,13.3,12.7c9,0,13.4-5.4,13.4-12.6
		C-104.4,389.1-109.6,384.3-117.7,384.3z M-117.7,385.1c6.9,0,11.5,4.2,11.5,11.9c0,8.1-4.8,11.9-11.6,11.9
		c-5.7,0-11.5-3.1-11.5-11.9C-129.4,390-125.5,385.1-117.7,385.1L-117.7,385.1z"/>
	<path class="st0" d="M-87.5,383.4c-8.2,0-13.8,4.7-13.8,13.7c0,8.9,5.2,13.8,13.9,13.8c6.5,0,13.7-3.4,13.7-13.7
		C-73.8,386-81.6,383.4-87.5,383.4L-87.5,383.4z M-87.5,384.4c6.5,0,11.3,4,11.3,12.7c0,9.5-5.8,12.6-11.3,12.6
		c-5.8,0-11.3-3.5-11.3-12.8C-98.8,387.2-92.9,384.4-87.5,384.4L-87.5,384.4z"/>
	<path class="st0" d="M-87.6,382.8c-8.7,0-15.3,4.9-15.3,14.1c0,7.6,4.4,14.2,15.4,14.2c9.3,0,15.4-5.1,15.4-14.1
		C-72.1,388.6-77.8,382.8-87.6,382.8z M-87.6,383.7c5.8,0,13.4,2.6,13.4,13.4c0,10.1-7,13.3-13.3,13.3c-8.4,0-13.5-4.8-13.5-13.4
		C-101,388.3-95.5,383.7-87.6,383.7L-87.6,383.7z"/>
	<path id="XMLID_10_" class="st0" d="M-71.5,410.8c-0.1-1,0.7-2,1.7-2c0.1,0,0.1,0,0.2,0c1.1-0.1,2,0.6,2.2,1.7c0,0.1,0,0.2,0,0.2
		c0.1,1-0.6,1.9-1.6,2c-0.1,0-0.2,0-0.3,0C-70.4,412.7-71.4,412-71.5,410.8L-71.5,410.8z"/>
	<path id="XMLID_9_" class="st0" d="M-69.4,405.7c1-7.1,1.6-14.6,2.2-22c-0.1-1,0.6-2,1.7-2.1c0.1,0,0.2,0,0.3,0s0.3,0,0.4,0
		l-0.3,1.8l-3.5,22L-69.4,405.7z"/>
	<path id="XMLID_8_" class="st0" d="M-187.6,412.6l2-1.5l2,1.5c-0.7-0.1-1.3-0.2-2-0.2C-186.2,412.4-186.9,412.4-187.6,412.6z"/>
	<path id="XMLID_7_" class="st0" d="M-179.2,409.3l2.8-1.2c0.4,0.5,0.8,0.9,1.3,1.2C-176.4,409-177.8,409-179.2,409.3z"/>
	<path id="XMLID_6_" class="st0" d="M-153.6,409.3c1.4-0.3,2.8-0.3,4.1,0l-2.1-1.2L-153.6,409.3z"/>
	<path id="XMLID_5_" class="st0" d="M-149.8,397.9l-1.7-0.9c5.8,0.1,11.5,0.1,17.3,0l-1.8,0.9C-140.6,397.8-145.2,397.8-149.8,397.9
		z"/>
	<path id="XMLID_4_" class="st0" d="M-134.3,408.2v0.6l2.1,0.6c-0.3-8.2-0.4-16.4,0-24.7l-2.1,1.2V408.2z"/>
	<path id="XMLID_3_" class="st0" d="M-132.2,409.3c-1.3-0.3-2.8-0.3-4.1,0l2.1-1.2L-132.2,409.3z"/>
	<path id="XMLID_2_" class="st0" d="M-68.5,404.9l-0.9,0.8c0.5-0.1,1.1,0,1.5,0.2L-68.5,404.9z"/>
	<path id="XMLID_1_" class="st0" d="M-63.1,383.5c-0.2,1.1-1.2,1.9-2.3,1.7c-0.9-0.1-1.6-0.8-1.7-1.7c0.2-1.1,1.2-1.9,2.3-1.7
		C-63.9,381.9-63.3,382.6-63.1,383.5z"/>
</g>
</svg>
