<?xml version="1.0" encoding="utf-8"?>
<!-- Generator: Adobe Illustrator 19.0.0, SVG Export Plug-In . SVG Version: 6.00 Build 0)  -->
<svg version="1.1" id="Layer_1" xmlns="http://www.w3.org/2000/svg" xmlns:xlink="http://www.w3.org/1999/xlink" x="0px" y="0px"
	 viewBox="-218 372 175 50" style="enable-background:new -218 372 175 50;" xml:space="preserve">
<style type="text/css">
	.st0{fill:#FFFFFF;}
</style>
<g transform="translate(-0.165)">
	<g transform="translate(-0.007 28.329)">
		<path class="st0" d="M-163.1,367.5c-1.1-1-2.5-1.7-3.4-3c-0.5-0.8-0.5-1.7-0.1-2.5c0.2-0.6,0.8-1,1.4-1.1c0.4,0,0.7,0.1,1,0.3
			c1.7,1.1,1.9,3.4,2,5.7h0.4c0.2,0,0.1-0.4,0.2-0.4v-6.3l-0.4-0.1c-0.5-0.1-0.2,0.5-0.5,0.8c-0.1,0.1-0.4,0.2-0.7,0.1
			c-0.4-0.4-0.8-0.7-1.4-0.8c-0.7-0.1-1.5,0-2.1,0.4c-1.3,1.4-1.8,3.3-1.3,5.1c0.2,0.4,0.2,0.9,0.5,1.3c1.1,1.5,2.7,2.2,3.8,3.6
			c0.8,0.7,1.4,1.7,1.4,2.7c0,1.4-0.4,2.6-1.6,3.1c-0.7,0.2-1.4,0-2-0.4c-1.8-1.3-1.8-3.8-2-6.3c-0.2-0.1-0.4-0.1-0.5,0v3.9l0.4,3.4
			l0.4,0.1c0.2-0.1,0.3-0.4,0.3-0.7c0.1-0.1,0.2-0.4,0.5-0.3l1.3,0.8c0.9,0.4,2,0.3,2.9-0.2c1.4-1.2,2.2-3.1,1.9-5
			C-160.8,369.8-162.1,368.6-163.1,367.5L-163.1,367.5z"/>
		<path class="st0" d="M-152.6,360.1c-2.6-0.1-5.1-0.1-7.7,0.1v7.2l0.4,0.1c0.3,0,0.2-0.3,0.3-0.5c-0.1-1.4,0.1-2.9,0.4-4.2
			c0.2-0.9,0.5-1.9,1.4-2.1c0.2,0,0.5,0.2,0.5,0.4v14.4c-0.2,0.7-1,0.8-1.6,0.9c-0.1,0.1-0.1,0.5,0.1,0.5c0.6,0,1.1,0,1.7,0.1
			c0.4-0.2,0.8,0.1,1.2-0.1v0.1h1.3c0.3-0.2,1,0.2,1-0.3c-0.1-0.7-0.8-0.2-1.2-0.5c-0.7-0.4-0.5-1.5-0.5-2.4h0.1v-12.7
			c0.1-0.2,0.4-0.2,0.7-0.2c0.4,0.2,0.6,0.5,0.8,0.8c0.4,1.8,0.7,3.8,0.7,5.8l0.3,0.1c0.1-0.1,0.3-0.2,0.3-0.3v-6.9L-152.6,360.1z"
			/>
		<path class="st0" d="M-45,370.6c-0.2-0.1-0.4-0.1-0.5,0l-0.4,3.1c-0.4,1.1-0.6,2.3-1.6,2.9c-0.7,0.2-1.5,0.2-2.1-0.1
			c-0.2-0.2-0.5-0.5-0.4-1v-13.2c0.1-0.4,0.1-0.9,0.5-1.1c0.4-0.2,1.1,0,1.2-0.4c0.1-0.4-0.2-0.4-0.5-0.4h-4.6
			c-0.2,0.1-0.1,0.3-0.1,0.5c0.6,0,1.3,0.1,1.6,0.7v14l-0.1,0.6c-0.2,0.5-1,0.2-1.3,0.5c-0.1,0.1-0.1,0.4,0.1,0.4
			c1.2,0.2,2.4,0.2,3.6,0.2l3.2-0.1l0.2,0.1c0.2-0.1,0.7,0.1,1-0.1c0.1-0.4,0.1-0.7,0.1-1.1h0.1V370.6z"/>
		<path class="st0" d="M-175.4,369.3c-0.2,0.8-0.1,1.9-0.3,2.7c-0.2,1.6-0.6,3.3-1.8,4.2c-0.4,0.2-0.8,0.2-1.2,0.1
			c-1.3-0.1-0.5-1.9-0.8-2.7h0.1l0.1-7.3c0-1.9,0-3.2,0.1-5.1c0.1-0.7,1-0.5,1.5-0.7c0.1-0.1,0-0.4-0.1-0.5h-5.2
			c-0.5,1,0.9,0.4,1.3,0.8c0.2,0.2,0.4,0.5,0.4,0.8v7.6l-0.1,0.8c0.1,1-0.1,1.9,0.1,2.7c0,1-0.1,2-0.2,3c-0.3,0.5-1,0.4-1.6,0.5
			c-0.1,0.2-0.2,0.6,0.1,0.6h1.9l3.4,0.1c0.7,0,1.7,0,2.7,0l0.1-0.3v-7.3C-175.1,369.2-175.3,369.2-175.4,369.3z"/>
		<path class="st0" d="M-63.4,360.4h-3.5c-0.2,0.1-0.1,0.4-0.1,0.5c0.5-0.1,1.1,0.1,1.4,0.5c0.1,0.9,0.1,1.7,0.1,2.6
			c0.2,0.1-0.1,0.2,0.1,0.4c-0.1,0.8,0.1,1.3-0.1,2c0.1,1.3,0,2.5,0.1,3.8c-0.2,0.2,0.2,0.5-0.1,0.6c-1.4-3.2-2.3-6.7-3.5-10
			c-0.1-0.2-0.3-0.2-0.4-0.4c-0.9,0-1.8,0-2.7,0.1c0,0.1-0.2,0.3,0,0.4c0.7,0.2,1.5,0.2,1.6,1.1v5.8l0.1,6.9c0.1,0.6,0,1.2-0.2,1.8
			s-1.3,0.1-1.5,0.6c0,0.3,0.3,0.3,0.5,0.4l3.3-0.1l0.1-0.2c0-0.5-0.7-0.2-1-0.4c-0.3-0.2-0.5-0.5-0.5-0.8v-5.3l0.1-3.2
			c-0.1-0.7-0.1-1.4,0.1-2l0.1-0.1c0.2,0.5,0.5,1,0.6,1.6l1.2,3.4c0.7,1.6,1,3.4,1.7,5c0.4,0.5,0.4,1.4,0.8,2
			c0.1,0.1,0.4,0.1,0.5-0.1c0.1-0.5,0-1.3,0.1-1.7v-10.5l0.1-3.2l0.2-0.6c0.2-0.4,0.8-0.3,1.1-0.5
			C-63.3,360.7-63.1,360.4-63.4,360.4z"/>
		<path class="st0" d="M-183.9,369.5c-0.1-0.2-0.1-0.4-0.4-0.3c-0.4,1.2-0.2,2.7-0.6,3.9c-0.1,0.7-0.4,1.2-0.6,1.9
			c-0.5,0.4-0.8,1.1-1.5,1.3c-0.5-0.1-1.2,0.2-1.4-0.2c-0.4-0.2-0.3-0.7-0.3-1.2V363c0.1-0.8-0.2-2,0.7-2.3c0.4-0.1,1,0.1,1.1-0.4
			c0.1-0.2-0.1-0.3-0.2-0.4h-4.8c-0.1,0-0.2,0.1-0.3,0.2c-0.1,0.6,0.8,0.2,1.1,0.5c0.7,0.5,0.4,1.9,0.4,2.9s-0.1,2.4,0,3.5v8.4
			c0,0.8-1.1,0.5-1.1,1.1c0.1,0.2,0.5,0.2,0.7,0.2h6.7l0.5-0.1c0-0.2,0.2-0.5,0.1-0.7L-183.9,369.5z"/>
		<path class="st0" d="M-69.4,360.3"/>
		<path class="st0" d="M-201.3,361.2c0.4-0.3,0.9-0.6,1.4-0.6c0.1-0.1,0.1-0.4-0.1-0.5c-0.4-0.1-3.1,0-4,0c-0.1,0.2-0.1,0.3,0,0.5
			c0.4,0.1,0.8,0,1,0.2c0.4,0.2,0.6,0.7,0.4,1.1c-0.4,1.7-0.6,3.4-1.1,5l-0.9,3.9h-0.1c-0.4-0.8-0.6-1.6-0.7-2.5l-0.7-3.8
			c0.1-1.3-0.8-2.4-0.2-3.5c0.3-0.4,0.8-0.4,1.3-0.5c0.1-0.2,0.1-0.3,0-0.5c-0.6-0.1-3.3,0-4.2-0.1c-0.3,0-0.5,0.2-0.4,0.5
			c1.4,0.7,1.1,2.8,1.5,4.4c-0.1,2.1-0.5,4.2-1,6.2h-0.1c-0.4-1.4-0.6-2.8-1-4.2l-0.7-4.2c-0.1-0.5-0.1-1,0.1-1.5
			c0.2-0.4,0.7-0.4,0.9-0.8c-0.1-0.2-0.2-0.2-0.4-0.3h-4.5c-0.2,0.1-0.2,0.4-0.1,0.5c0.4,0.2,0.8,0.1,1.2,0.2
			c0.2,0.3,0.6,0.6,0.7,0.9c0.3,1.3,0.7,2.7,0.8,4.1l0.6,3.4l0.9,4.8l0.3,1.9c0.1,0.4-0.1,0.9,0.4,1c0.3,0.1,0.6,0,0.7-0.3
			c0-0.1,0.1-0.2,0-0.3c0.4-1.7,0.7-3.5,1.1-5.2l0.7-3.5h0.1l0.5,2.2l0.9,5c0.1,0.7,0.3,1.3,0.5,1.9c0.2,0.1,0.4,0.1,0.5,0l0,0
			c0.6-2.6,1.3-5.3,1.9-7.8l1-4.7C-201.9,363.1-201.6,362.2-201.3,361.2z"/>
		<path class="st0" d="M-193.7,375.3c-0.4-1.3-0.5-2.6-0.8-4l-1.3-6.1c-0.2-1.7-0.7-3.1-1-4.7c0.1-0.6-1-0.5-1.1-0.2
			c-0.3,1.5-0.5,3-0.8,4.4l-0.6,3.5l-0.7,4.2c-0.2,1.1-0.4,2.2-0.7,3.2c-0.4,0.5-0.9,0.7-1.5,0.7c-0.1,0.1-0.2,0.7,0.2,0.5l3.4-0.1
			l0.1-0.4c-0.2-0.2-0.7-0.1-0.9-0.3c-0.7-1.1,0.1-2.3,0.2-3.3l0.2-0.1h2.4c0.6,0.4,0.4,1.4,0.7,2c0.1,0.4,0.2,1-0.1,1.3
			c-0.1,0.6-1.4-0.1-1.3,0.8c0.2,0.2,0.8,0,1,0.2h3.5l0.2-0.2c0.1-0.1-0.1-0.2-0.1-0.4C-193.1,376.3-193.6,375.9-193.7,375.3
			L-193.7,375.3z M-198.4,371.9l-0.5-0.1l0.1-0.8l0.5-3.4l0.4-2.2l0.1,0.1l0.7,3l0.6,3.2C-196.9,372.2-197.7,371.8-198.4,371.9
			L-198.4,371.9z"/>
		<path class="st0" d="M-142.2,373.4c-0.1,0.6-0.1,1.1-0.1,1.7c-0.1,0.2-0.2,0.5-0.5,0.5c-0.2,0-0.3-0.2-0.4-0.4c-0.1-1-0.2-2-0.1-3
			c-0.1,0-0.2-0.1-0.3-0.2v-0.1c0.1-0.1,0.2,0,0.2,0.1c0-1.1-0.1-2.5-1-3c-0.2-0.4-0.7-0.4-0.5-0.8c0.6-0.4,1.1-0.9,1.6-1.6
			c0.8-1.1,0.6-3.3,0.2-4.6c-0.5-0.9-1.3-1.6-2.3-1.9h-5.8c-0.2,0.1-0.3,0.2-0.2,0.5c0.1,0.2,0.7,0.1,1,0.2c0.5,0.2,0.6,0.7,0.7,1.3
			c-0.1,0.6,0,1.5-0.1,2.1c0.1,1,0.1,2.2,0.1,3.1c-0.1,1.3,0,2.6,0,4.1l-0.1,3.5c0.1,0.3-0.1,0.7-0.1,1c-0.2,0.2-0.4,0.5-0.7,0.5
			c-0.3,0-0.8-0.1-0.8,0.3c-0.2,0.7,0.8,0.2,1.1,0.4c0.1-0.1,0.2,0,0.4,0l3.1-0.1l0.1-0.2c0.1-0.5-0.4-0.4-0.7-0.5
			c-0.3-0.1-0.4-0.4-0.5-0.8v-6.6l0.1-0.2c0.3-0.2,0.9-0.1,1.3,0c0.8,0.2,1,1.1,1.2,2v4.3l0.2,1.1c0.3,0.5,0.8,0.9,1.3,1
			c0.4,0.1,0.9,0,1.3-0.3c0.9-0.6,1-2.1,0.8-3.5C-141.9,373.1-142.1,373.4-142.2,373.4z M-145.8,367.7c-0.6,0.3-1.3,0.3-2,0.1
			l-0.1-6.1c0.1-0.4,0.2-0.8,0.8-0.8c0.4-0.1,0.7,0.1,1.1,0.1c1.7,1,1,3.6,1,5.5C-145.1,366.9-145.4,367.4-145.8,367.7L-145.8,367.7
			z"/>
		<path class="st0" d="M-93.8,361.9c-0.4-0.6-0.9-1.2-1.6-1.6c-0.9-0.3-2-0.1-2.7,0.5c-1.5,1.9-2.4,4.3-2.4,6.7
			c-0.1,3.8,0.5,7.1,2.7,9.2c0.7,0.4,1.5,0.5,2.3,0.2c0.8-0.5,1.5-1.2,1.9-2c1.2-2.3,1.5-5.9,1.1-9
			C-92.7,364.5-93.1,363.1-93.8,361.9z M-94.8,374.6c-0.1,0.5-0.4,1-0.7,1.5c-0.5,0.3-1.1,0.3-1.6,0.1c-0.8-0.7-1.2-1.7-1-2.7
			c0.1-0.8,0.1-1.6,0-2.3c0.1-0.9,0-1.9,0.1-2.9c-0.1-0.1,0-0.4-0.1-0.5c0.2-0.3-0.1-0.5,0-0.8c0.1-1.5,0-2.6,0-4.4
			c0.2-0.8,0.6-1.7,1.4-1.9c0.8,0,1.5,0.4,1.7,1.1l0.1,1.1v3.8l0.1,0.1V374.6z"/>
		<path class="st0" d="M-135.5,376.3c-0.8,0-1.7,0.3-2.1-0.4c0.1-1.1,0-2.4,0-3.5s-0.1-2.1,0.1-3.5l0.2-0.1c1.1,0.2,1.3,1.4,1.6,2.4
			c0.2,0.5-0.1,1.6,0.3,1.9c0.2,0,0.3-0.1,0.4-0.3v-0.1c-0.1-1-0.1-2.1,0-3.1c-0.1-0.9-0.1-2-0.1-2.9c0.1-0.7-0.1-1.7,0-2.5
			l-0.1-0.4c-0.4-0.1-0.5,0.1-0.5,0.3c0,1.7-0.2,3.3-1.6,4c-0.4,0.1-0.3-0.4-0.4-0.6v-1.7c0.1-0.4-0.1-0.5,0-0.9
			c-0.1-1.3-0.1-2.6,0.2-3.9c0.5-0.4,1.2-0.5,1.8-0.2c1.6,0.8,2.2,2.5,2.4,4.3c0.1,0.5-0.3,1.6,0.5,1.5c0.1-0.4,0-1,0.1-1.4
			c0.1-0.4-0.2-0.6,0-1c-0.2-0.8,0.1-1.9-0.1-2.9c-0.1-0.4,0.2-1.3-0.2-1.4h-8.4l-0.1,0.2c-0.1,0.7,0.8,0.4,1.3,0.5
			c0.3,0.2,0.4,0.4,0.5,0.7v14.3c-0.1,0.2-0.3,0.5-0.5,0.6c-0.4,0.4-1.5-0.3-1.3,0.7c0.7,0.1,1.3,0.1,1.9,0.1h7l0.2-0.2v-4.4
			l-0.7-0.2C-133.5,373.9-134,375.6-135.5,376.3z"/>
		<path class="st0" d="M-54.3,376.5c-1.1-0.6-1.1-2.1-1.4-3.3l-1.1-5c-0.2-1.7-0.7-3.2-1-4.9l-0.7-2.9l-0.8-0.1
			c-0.4,0.8-0.6,1.7-0.7,2.6l-0.5,3l-1,5.1l-0.7,4.1c-0.1,0.6-0.4,1.1-0.9,1.4c-0.2,0.1-0.8-0.1-0.8,0.2c-0.2,0.6,0.5,0.4,0.8,0.5
			c1,0,2,0,3-0.1c0.4-0.9-0.8-0.4-1.1-0.7c-0.7-0.6-0.2-1.7-0.1-2.4c0-0.4,0.1-0.9,0.4-1.3c1-0.1,2-0.1,2.9-0.1
			c0.3,0.8,0.5,1.6,0.7,2.4c0.1,0.4,0,0.9-0.3,1.3c-0.4,0.2-1.4-0.1-1.1,0.7c1.5,0.1,3.1,0.2,4.7,0.1l0.1-0.1
			C-53.7,376.6-54,376.6-54.3,376.5z M-58,372.1l-2.4,0.1l-0.3-0.2c0.1-0.7,0.2-1.4,0.4-2.1l0.5-3.2c0.1-0.5,0.2-1,0.4-1.4l0.2,0.1
			c0.4,2.3,1.1,4.3,1.4,6.7H-58z"/>
		<path class="st0" d="M-72.8,373.6c-0.1,0.8,0.1,1.8-0.7,2.1c-0.5-0.3-0.5-1.2-0.5-1.7l-0.1-3c0-0.5-0.2-1.1-0.5-1.5
			c-0.2-0.4-0.8-0.5-0.8-1.1c1.1-0.5,1.5-1.6,2.1-2.6c0.4-1.3,0.2-2.7-0.5-3.8c-0.7-1.4-2.5-1.8-4.3-1.5c-1,0-1.7,0-2.6-0.1
			c-0.4,0.2-0.8-0.2-1,0.2c0,0.4,0.5,0.2,0.8,0.4c0.3,0.1,0.4,0.5,0.5,0.9v13.6l-0.2,0.6c-0.3,0.3-0.8,0.5-1.3,0.5
			c-0.1,0.1-0.1,0.4,0,0.5l1.7,0.1l3.2-0.1c-0.1-0.2,0-0.4-0.1-0.5c-0.3-0.1-0.6-0.1-1-0.1c-0.4-0.2-0.5-0.6-0.5-1
			c0.1-2.4-0.2-4.4,0-6.7l0.1-0.2c0.6-0.2,1.3-0.1,1.8,0.2c0.6,0.4,0.7,1.3,0.7,2.1v3.5l0.2,1.7c0.4,0.3,0.4,0.9,0.9,0.9
			c0.5,0.1,1,0,1.4-0.2c0.8-0.9,1.1-2.1,0.9-3.3C-72.6,373.5-72.7,373.5-72.8,373.6L-72.8,373.6z M-76.3,367.8
			c-0.7,0.2-1.4,0.2-2.2,0c-0.1-2.3-0.1-4-0.1-6.3c0.1-0.3,0.3-0.6,0.7-0.7c0.9-0.2,1.8,0.2,2.3,1c0.1,0.5,0.2,0.9,0.2,1.4l-0.1,3.2
			C-75.6,367.1-75.7,367.6-76.3,367.8L-76.3,367.8z"/>
		<path class="st0" d="M-83,360.3l-3.2,0.1l-0.1,0.4c0.4,0,0.8,0.1,1.2,0.3c0.3,0.5,0.4,1,0.4,1.6l-0.1,5.2l0.1,0.4v6
			c0,0.7-0.3,1.3-0.8,1.7c-0.4,0.4-1,0.5-1.6,0.4c-0.6-0.4-1.1-1-1.3-1.7c-0.1-1.9,0-3-0.1-4.8l0.1-0.1V363c0-0.6,0.1-1.1,0.3-1.6
			c0.2-0.2,0.5-0.3,0.8-0.4c0.2-0.1,0.5-0.1,0.4-0.5s-0.7-0.2-0.9-0.1l-3.6-0.1c-0.2,0.1-0.6-0.1-0.5,0.3s0.5,0.2,0.8,0.4
			s0.5,0.5,0.6,0.8v7.7c0.2,1.6-0.3,4.1,0.4,5.6c0.4,1.2,1.4,2,2.6,2.2c0.5-0.1,1.5,0.1,2-0.4c0.8-0.6,1.3-1.5,1.4-2.5v-12l0.2-1
			c0-0.3,0.3-0.6,0.6-0.6c0.1-0.1,0.6,0.1,0.6-0.2C-82.7,360.4-82.8,360.3-83,360.3L-83,360.3z"/>
		<path class="st0" d="M-113.6,360.5l-0.1-0.2c-1.1-0.1-7.3-0.2-7.7,0.1c-0.1,1.2,0,2.7,0,3.9v3.4l0.4,0.1c0.3-0.3,0.1-1,0.2-1.5
			l0.5-3.3c0.3-0.8,0.4-1.9,1.4-2c0.2,0.1,0.4,0.2,0.5,0.4v7.9l-0.1,6.7c-0.2,0.5-0.8,0.5-1.4,0.6c-0.1,0.2-0.1,0.6,0.2,0.5
			c1.6-0.1,3.1,0.2,4.7,0c0.2-0.1,0.4-0.2,0.3-0.5c-0.5-0.4-1.7,0.1-1.8-0.7v-14.5l0.2-0.2c0.2-0.2,0.5-0.2,0.7,0
			c0.7,1.1,1.2,2.3,1.3,3.6l0.2,2.9c0.1,0.1,0.3,0.2,0.5,0.1c0.1-0.8-0.1-1.7,0.1-2.5L-113.6,360.5z"/>
		<path class="st0" d="M-48.7,360.4"/>
		<path class="st0" d="M-123.4,373.2c0-0.3,0.3-0.3,0.4-0.5c0.8-0.4,0.3-1.8,0.5-2.7l-0.1-0.1c-0.1-0.1-0.3-0.1-0.4,0l0,0l-0.1,1.9
			c0,0.5-0.3,1-0.2,1.5c-0.5,1.2-0.8,2.6-2.1,3c-0.6,0.1-1.2,0.1-1.7-0.2c-0.9-0.6-0.5-2.1-0.5-3.1h-0.1v-3.9l0.1-0.4
			c0.2-0.1,0.5-0.1,0.6,0c1.1,0.8,1.1,2.6,1.2,4c0,0.1,0.2,0.2,0.3,0.2h0.1c0.2-0.8,0-2,0.2-2.9v-1.6c0-0.5,0-1.1-0.1-1.6
			c0-0.2,0.1-0.2,0-0.4v-2.5c-0.1-0.1-0.4-0.1-0.5,0c-0.2,1.6-0.1,3.6-1.7,4c-0.2,0-0.2-0.1-0.3-0.3v-5.8c0-0.4,0.2-0.8,0.5-1
			c0.5,0,1-0.2,1.5-0.1c2.2,0.8,2.1,3.6,2.3,5.9c0.1,0.1,0.4,0.1,0.5-0.1c0.1-2.1,0-4.1,0-6.3c-0.2-0.4-1-0.1-1.3-0.2
			c-1,0-7.2-0.1-7.2,0.2c-0.1,0.5,0.3,0.4,0.7,0.4c0.5,0,1,0.4,1.1,0.9v4.2l0.1,3.4c-0.1,1.2,0.1,2.9,0,4.2c-0.1,0.8,0.2,2-0.3,2.4
			c-0.4,0.5-1.1,0.4-1.6,0.6c-0.1,0.3-0.1,0.7,0.1,0.7c1.9,0,3.6-0.1,5.6,0.1c1,0,2,0,3-0.1c0.5-0.1,0.2-0.8,0.3-1.2l0.1-3.4h-0.1
			C-122.9,372.7-123.1,373-123.4,373.2L-123.4,373.2z"/>
		<path class="st0" d="M-100.9,360.2c-1.9,0.1-3.2-0.1-5-0.1l-0.2,0.4c0.2,0.5,1,0.1,1.4,0.4c0.3,0.3,0.4,0.6,0.5,1v6.1l-0.1,3.5
			c0,1.3,0.2,3.2-0.2,4.4c-0.3,0.4-0.7,0.5-1.1,0.4c-0.6-0.3-1-0.9-1-1.6c0-0.5,0.7-0.5,0.7-1c0.4-0.4,0-1,0.1-1.5
			c-0.1-0.3-0.5-0.4-0.8-0.5c-0.6,0-1,0.4-1.3,0.9c-0.4,1.3,0,2.6,0.8,3.6c0.6,0.8,1.6,1.1,2.5,0.8c1.2-0.3,1.7-1.5,2.1-2.7v-6.7
			c0-0.7,0.1-1.6,0-2.4c-0.1-0.3,0.1-0.7,0-0.8c0.2-1-0.3-2.3,0.1-3.2c0.4-0.4,1-0.4,1.6-0.5C-100.5,360.5-100.6,360.2-100.9,360.2
			L-100.9,360.2z"/>
	</g>
</g>
</svg>
