<?xml version="1.0" encoding="utf-8"?>
<!-- Generator: Adobe Illustrator 19.0.0, SVG Export Plug-In . SVG Version: 6.00 Build 0)  -->
<svg version="1.1" id="Layer_1" xmlns="http://www.w3.org/2000/svg" xmlns:xlink="http://www.w3.org/1999/xlink" x="0px" y="0px"
	 viewBox="-218 372 175 50" style="enable-background:new -218 372 175 50;" xml:space="preserve">
<style type="text/css">
	.st0{fill:#FFFFFF;}
</style>
<g>
	<path id="XMLID_16_" class="st0" d="M-108.7,398h-5.8l-4.9,12.8c0.1-0.7,0.1-1.4,0.1-2.2c0-10.3-10.1-10.6-10.1-10.6h-9.8v8
		c-1.5-5.1-6.3-8.6-11.6-8.5c-3.8,0-7.5,1.7-9.8,4.8V398h-14.8v5.1h4.5v17h5.9v-17h3.9c-1.1,1.8-1.7,4-1.7,6.1c0,0.1,0,0.2,0,0.3
		c0.2,6.5,5.6,11.6,12.1,11.4c5.3,0.1,10.1-3.4,11.6-8.5v7.6h10.5c2.8-0.2,5.3-1.6,7-3.7l-1.4,3.7h6.1l1.4-3.8h8l1.4,3.8h6
		L-108.7,398z M-150.8,415.1c-3.4,0.1-6.2-2.5-6.3-5.9c0.1-3.4,2.9-6,6.3-5.9c3.4-0.1,6.2,2.5,6.3,5.9
		C-144.6,412.6-147.4,415.2-150.8,415.1z M-131.1,415.3L-131.1,415.3c-0.6,0.1-1.1,0-1.7-0.1v-12.1c0.6-0.1,1.2-0.1,1.8-0.1
		c0.9,0,5.5,0.2,5.5,6.1S-130,415.3-131.1,415.3z M-113.9,411.9L-113.9,411.9L-113.9,411.9L-113.9,411.9l2.3-5.9l2.3,5.9H-113.9z"/>
	<polygon id="XMLID_4_" class="st0" points="-113.9,412 -113.9,411.9 -113.9,411.9 	"/>
	<polygon id="XMLID_13_" class="st0" points="-113.9,412 -113.9,411.9 -113.9,411.9 	"/>
	<polygon class="st0" points="-92.6,398 -96.5,403.9 -100.5,398 -107.5,398 -99.8,409.6 -99.8,420.2 -93.3,420.2 -93.3,409.6 
		-85.6,398 	"/>
	<path id="XMLID_6_" class="st0" d="M-97.6,373.8h-6.2l-5.5,14c-0.1-4.2-4.2-5.4-6.5-6c-3.2-0.9-3-1.8-3-2.2
		c0.1-1.1,1.1-1.8,2.1-1.7l0,0c1.8,0,4.2,1.7,4.2,1.7l2.4-4.4c-2.1-1.4-4.6-2.2-7.2-2.2c-3.2,0-7.9,1.2-7.9,7.6c0,0-0.7,5.4,7,6.2
		l0,0c0,0,2.8,0.4,2.3,2.5s-2.5,1.7-3,1.7s-2,0-4.9-2.3l-2.6,4.6c2.4,2.1,5.4,3.2,8.6,3.1c2.2,0.1,4.3-0.7,5.9-2.2l-0.7,1.8h6.3
		l1.4-3.7h7.8l1.4,3.7h6.3L-97.6,373.8z M-103,387.6l2.3-5.6l2.1,5.6H-103z"/>
	<path class="st0" d="M-161.6,375c0,0.2,0.1,0.5,0.1,0.7h0.5c-0.1-0.2-0.2-0.4-0.2-0.7H-161.6z"/>
	<path class="st0" d="M-160.9,377.2c0.1,0.2,0.2,0.5,0.4,0.7h1.1c-0.1-0.2-0.1-0.5-0.2-0.7H-160.9z"/>
	<path id="XMLID_28_" class="st0" d="M-131.6,373.8v14c-0.1,1.9-1.6,3.4-3.5,3.3c-0.1,0-0.1,0-0.2,0c-1.9,0.2-3.5-1.2-3.7-3.1
		c0-0.1,0-0.1,0-0.2v-14h-17c-0.1-0.1-0.3-0.2-0.5-0.2h-7.1c-0.4,0-0.7,0.3-0.7,0.7c0,0.1,0,0.3,0.1,0.4c-0.2,0.2-0.3,0.3-0.5,0.5
		c-0.1,0.1-0.4,0.3-0.9,0.5h-1.2c-0.4,0-0.7,0.3-0.7,0.7c0,0.2,0.1,0.5,0.3,0.6c-0.3,0.2-0.5,0.5-0.7,0.8h-0.9
		c-0.4,0.2-0.6,0.6-0.5,1c0.1,0.3,0.3,0.5,0.5,0.5h0.2c-0.1,0.2-0.1,0.4-0.1,0.7h-1.2c-0.4,0-0.7,0.3-0.7,0.7c0,0.4,0.3,0.7,0.7,0.7
		h1.7l-0.3,0.7h-2.3c-0.4,0-0.7,0.3-0.7,0.7c0,0.4,0.3,0.7,0.7,0.7h3.2c0.2,0.3,0.4,0.5,0.5,0.7l-3.8,0.1c-0.4,0-0.7,0.3-0.7,0.7
		s0.3,0.7,0.7,0.7h5c0.3,0.2,0.7,0.4,1,0.5c0.1,0,0.3,0.1,0.4,0.2h-6.3c-0.4,0-0.7,0.3-0.7,0.7s0.3,0.7,0.7,0.7h7.4
		c0,0.2,0,0.5,0,0.7h-6.5c-0.4,0-0.7,0.3-0.7,0.7c0,0.4,0.3,0.7,0.7,0.7l0,0h6.3c0,0.2,0,0.5,0.1,0.7h-5.3c-0.4,0-0.7,0.3-0.7,0.7
		c0,0.4,0.3,0.7,0.7,0.7h6.3c0.2,0.2,0.4,0.4,0.5,0.7h-4.8c-0.4,0-0.7,0.3-0.7,0.7s0.3,0.7,0.7,0.7l0,0h5.7l0.3,0.7h-2.8
		c-0.4,0-0.7,0.3-0.7,0.7s0.3,0.7,0.7,0.7l0,0h7.1c0.2,0,0.4-0.1,0.5-0.2h17.8c0.9,0.2,1.9,0.3,2.9,0.3c9.2,0,10-7.6,10-7.6v-14.9
		L-131.6,373.8L-131.6,373.8z M-143.4,393.1h-9c-0.1-0.1-0.3-0.2-0.5-0.2h-5.3c0.1-0.2,0.3-0.5,0.4-0.7h6.8c0.2,0,0.4-0.1,0.5-0.2
		h6.3C-144,392.4-143.7,392.8-143.4,393.1z M-144.6,391h-5.8c-0.1-0.1-0.3-0.2-0.5-0.2h-6.5c0.1-0.2,0.2-0.4,0.3-0.7h7.4
		c0.2,0,0.4-0.1,0.5-0.2h4.3C-144.9,390.2-144.8,390.6-144.6,391z M-150.5,378c-0.1-0.1-0.3-0.2-0.5-0.2h-7.4
		c-0.1-0.2-0.1-0.5-0.2-0.7h5.6c0.2,0,0.4-0.1,0.6-0.3h7.3v1.2H-150.5z M-145.2,379.1v1.1h-4.2c-0.1-0.1-0.2-0.2-0.4-0.2h-7.2
		l0.5-0.7h5.6c0.2,0,0.4-0.1,0.5-0.3h5.2L-145.2,379.1L-145.2,379.1z M-157.7,381.5h7.9c0.2,0,0.4-0.1,0.5-0.3h4.1v1.1h-3.3
		c-0.1-0.1-0.3-0.2-0.5-0.2h-9.4C-158.1,381.9-157.9,381.7-157.7,381.5z M-156.5,375.1c0.2,0,0.4-0.1,0.6-0.3h10.7v1.1h-7.3
		c-0.1-0.1-0.3-0.2-0.5-0.2h-6.5c-0.1-0.2-0.1-0.5-0.1-0.7h3.1V375.1z M-160.1,383.6h11.2l0,0c0.2,0,0.4-0.1,0.5-0.2h3.2v1.1h-3.2
		c-0.1-0.1-0.3-0.2-0.5-0.2h-11.4C-160.3,384-160.2,383.8-160.1,383.6z M-162.1,386.4c-0.3-0.2-0.5-0.4-0.8-0.7h13.9
		c0.2,0,0.4-0.1,0.5-0.2h3.2v1.1h-3.1c-0.1-0.1-0.3-0.2-0.5-0.2C-148.9,386.4-162.1,386.4-162.1,386.4z M-160.1,388.3
		c-0.1-0.1-0.1-0.3-0.2-0.4h11.3c0.2,0,0.4-0.1,0.5-0.2h3.3v1.1h-4.1c-0.1-0.1-0.3-0.2-0.5-0.2h-8.2
		C-158.7,388.4-159.4,388.3-160.1,388.3L-160.1,388.3z M-155.9,395.3L-155.9,395.3L-155.9,395.3c-0.1-0.2-0.3-0.3-0.5-0.3h-2.2
		c0-0.2,0-0.5,0-0.7h5.7c0.2,0,0.4-0.1,0.5-0.2h9.9c0.5,0.4,1,0.8,1.6,1.1L-155.9,395.3L-155.9,395.3z"/>
	<path id="XMLID_44_" class="st0" d="M-155.9,395.3L-155.9,395.3L-155.9,395.3z"/>
	<path class="st0" d="M-163.9,383.6c0,0.2,0.1,0.5,0.2,0.7h2.2c-0.1-0.3-0.3-0.5-0.4-0.7H-163.9z"/>
</g>
</svg>
