<?xml version="1.0" encoding="utf-8"?>
<!-- Generator: Adobe Illustrator 19.0.0, SVG Export Plug-In . SVG Version: 6.00 Build 0)  -->
<svg version="1.1" id="Layer_1" xmlns="http://www.w3.org/2000/svg" xmlns:xlink="http://www.w3.org/1999/xlink" x="0px" y="0px"
	 viewBox="-218 372 175 50" style="enable-background:new -218 372 175 50;" xml:space="preserve">
<style type="text/css">
	.st0{fill:#FFFFFF;}
</style>
<g transform="translate(0 0)">
	<g transform="translate(0 0)">
		<path id="XMLID_60_" class="st0" d="M-213.4,409.7v-3.5h2.9v0.4h-2.4v1h2.2v0.4h-2.2v1.2h2.4v0.4h-2.9V409.7z"/>
		<path id="XMLID_59_" class="st0" d="M-208.4,409.7v-3.5h0.6v3.1h2v0.4C-205.9,409.7-208.4,409.7-208.4,409.7z"/>
		<path class="st0" d="M-201.5,409.7v-3.5h1.4c0.2,0,0.5,0,0.7,0c0.2,0,0.4,0.1,0.6,0.3c0.2,0.1,0.4,0.4,0.5,0.6
			c0.1,0.3,0.2,0.5,0.2,0.8c0,0.2,0,0.5,0,0.7c-0.1,0.2-0.2,0.4-0.3,0.5c-0.1,0.1-0.2,0.2-0.4,0.3s-0.3,0.1-0.5,0.2
			c-0.2,0-0.4,0-0.6,0h-1.5v0.1H-201.5z M-200.9,409.3h0.8c0.2,0,0.4,0,0.6,0c0.1,0,0.3-0.1,0.3-0.2c0.1-0.1,0.2-0.3,0.3-0.4
			c0-0.2,0-0.4,0-0.7s-0.1-0.6-0.2-0.8c-0.1-0.2-0.3-0.3-0.5-0.4c-0.2,0-0.4,0-0.7,0h-0.7v2.5H-200.9z"/>
		<path id="XMLID_56_" class="st0" d="M-196.1,409.7v-3.5h0.5v3.5H-196.1z"/>
		<path class="st0" d="M-193.8,409.7l1.5-3.5h0.6l1.6,3.5h-0.6l-0.5-1h-1.7l-0.4,1.1L-193.8,409.7z M-192.7,408.3h1.4l-0.4-1
			c-0.1-0.2-0.2-0.5-0.3-0.7c0,0.2-0.1,0.5-0.2,0.7L-192.7,408.3L-192.7,408.3z"/>
		<path class="st0" d="M-188.4,409.7v-3.5h1.8c0.3,0,0.5,0,0.8,0c0.2,0.1,0.3,0.2,0.4,0.3c0.1,0.2,0.2,0.3,0.2,0.5s-0.1,0.5-0.3,0.6
			c-0.2,0.3-0.5,0.4-0.8,0.4l0.3,0.2l0.4,0.4l0.7,1h-0.7l-0.5-0.7c-0.1-0.2-0.2-0.3-0.4-0.5c-0.1-0.1-0.2-0.2-0.3-0.2l-0.2-0.1h-0.9
			v1.5h-0.5V409.7z M-187.8,407.8h1.2c0.2,0,0.4,0,0.6,0c0.1,0,0.3-0.1,0.3-0.2s0-0.2,0-0.3c0-0.2-0.1-0.3-0.2-0.4
			c-0.2-0.1-0.4-0.2-0.6-0.2h-1.3V407.8L-187.8,407.8z"/>
		<path id="XMLID_51_" class="st0" d="M-183,409.7v-3.5h0.5v3.5H-183z"/>
		<path class="st0" d="M-180.4,408c0-0.5,0.2-1,0.5-1.4c0.4-0.3,0.9-0.5,1.4-0.5c0.3,0,0.7,0.1,1,0.2c0.6,0.3,1,0.9,0.9,1.6
			c0,0.3-0.1,0.7-0.3,1c-0.2,0.3-0.4,0.5-0.7,0.6c-0.3,0.1-0.6,0.2-1,0.2c-0.4,0-0.7-0.1-1-0.2c-0.3-0.2-0.5-0.4-0.7-0.6
			C-180.3,408.6-180.4,408.3-180.4,408L-180.4,408z M-179.9,408c0,0.4,0.1,0.7,0.4,1s0.6,0.4,1,0.4s0.7-0.1,1-0.4s0.4-0.6,0.4-1
			c0-0.3-0.1-0.5-0.2-0.7c-0.1-0.2-0.3-0.4-0.5-0.5c-0.2-0.1-0.5-0.2-0.7-0.2c-0.4,0-0.7,0.1-1,0.4
			C-179.7,407.1-179.9,407.5-179.9,408L-179.9,408z"/>
		<path class="st0" d="M-171.9,409.7v-3.5h1.4c0.2,0,0.5,0,0.7,0c0.5,0.1,0.9,0.4,1,0.9c0.1,0.3,0.2,0.5,0.2,0.8c0,0.2,0,0.5,0,0.7
			c-0.1,0.2-0.2,0.4-0.3,0.5c-0.1,0.1-0.2,0.2-0.4,0.3c-0.1,0.1-0.3,0.1-0.5,0.2c-0.2,0-0.4,0-0.6,0h-1.4L-171.9,409.7z
			 M-171.4,409.3h0.9c0.2,0,0.4,0,0.6,0c0.1,0,0.3-0.1,0.4-0.2s0.2-0.3,0.3-0.4c0-0.2,0-0.4,0-0.7s0-0.6-0.2-0.8
			c-0.1-0.2-0.3-0.3-0.5-0.4c-0.2,0-0.4,0-0.7,0h-0.8v2.6V409.3z"/>
		<path id="XMLID_46_" class="st0" d="M-166.6,409.7v-3.5h2.9v0.4h-2.3v1h2.2v0.4h-2.2v1.2h2.5v0.4h-3.1V409.7z"/>
		<path id="XMLID_45_" class="st0" d="M-158.8,409.7v-3.5h0.5v3.1h2v0.4H-158.8z"/>
		<path class="st0" d="M-154.6,408c0-0.5,0.2-1,0.5-1.4c0.4-0.3,0.9-0.5,1.4-0.5c0.4,0,0.7,0.1,1,0.2c0.6,0.3,1,0.9,0.9,1.6
			c0,0.3-0.1,0.7-0.3,1c-0.2,0.3-0.4,0.5-0.7,0.6c-0.3,0.1-0.6,0.2-1,0.2c-0.4,0-0.7-0.1-1-0.2c-0.3-0.2-0.5-0.4-0.7-0.6
			C-154.5,408.7-154.5,408.4-154.6,408L-154.6,408z M-154,408c0,0.4,0.1,0.7,0.4,1c0.3,0.3,0.6,0.4,1,0.4c0.4,0,0.7-0.1,1-0.4
			c0.3-0.3,0.4-0.6,0.4-1c0-0.3-0.1-0.5-0.2-0.7c-0.1-0.2-0.3-0.4-0.5-0.5c-0.2-0.1-0.5-0.2-0.7-0.2c-0.4,0-0.7,0.1-1,0.4
			C-153.9,407.1-154,407.5-154,408L-154,408z"/>
		<path id="XMLID_42_" class="st0" d="M-149,408.7h0.5c0,0.2,0.1,0.3,0.2,0.4s0.3,0.2,0.4,0.2c0.2,0,0.4,0,0.6,0h0.6
			c0.1-0.1,0.2-0.1,0.3-0.2c0.1-0.1,0.1-0.2,0.1-0.3c0-0.1,0-0.2,0-0.3c-0.1-0.1-0.2-0.2-0.4-0.2l-0.7-0.2c-0.3,0-0.5-0.1-0.8-0.2
			c-0.2-0.1-0.3-0.2-0.4-0.3c-0.2-0.3-0.2-0.6,0-0.9c0.1-0.2,0.3-0.3,0.5-0.4c0.2-0.1,0.5-0.1,0.7-0.1c0.3,0,0.5,0,0.8,0.1
			c0.2,0.1,0.4,0.2,0.5,0.4c0.1,0.2,0.2,0.3,0.2,0.5h-0.5c0-0.2-0.1-0.4-0.3-0.5c-0.2-0.1-0.4-0.2-0.7-0.2c-0.2,0-0.5,0-0.7,0.2
			c-0.2,0.1-0.3,0.4-0.2,0.6c0,0.1,0.1,0.1,0.1,0.1c0.2,0.1,0.5,0.2,0.8,0.3c0.3,0.1,0.6,0.1,0.9,0.2c0.2,0.1,0.4,0.2,0.5,0.4
			c0.1,0.1,0.2,0.3,0.2,0.5c0,0.2-0.1,0.4-0.2,0.5c-0.1,0.2-0.3,0.3-0.5,0.4c-0.2,0.1-0.5,0.1-0.8,0.1s-0.6,0-0.9-0.1
			c-0.2-0.1-0.4-0.2-0.6-0.4C-148.8,409.1-149,408.8-149,408.7L-149,408.7z"/>
		<path id="XMLID_41_" class="st0" d="M-141,409.7v-3.5h0.6v3.1h2v0.4C-138.5,409.7-141,409.7-141,409.7z"/>
		<path id="XMLID_40_" class="st0" d="M-136.7,409.7v-3.5h2.9v0.4h-2.4v1h2.2v0.4h-2.2v1.2h2.5v0.4h-3V409.7z"/>
		<path id="XMLID_39_" class="st0" d="M-128.8,408.5l0.5,0.1c-0.1,0.4-0.3,0.7-0.6,0.9c-0.3,0.2-0.7,0.3-1.1,0.3s-0.7-0.1-1-0.2
			c-0.3-0.2-0.5-0.4-0.6-0.7c-0.1-0.3-0.2-0.6-0.2-0.9s0.1-0.7,0.2-1c0.2-0.3,0.4-0.5,0.7-0.6c0.3-0.1,0.6-0.2,1-0.2
			c0.4,0,0.7,0.1,1,0.3c0.3,0.2,0.5,0.4,0.6,0.7h-0.5c-0.1-0.2-0.2-0.4-0.4-0.5c-0.2-0.1-0.4-0.2-0.7-0.2c-0.3,0-0.5,0-0.8,0.2
			c-0.2,0.1-0.4,0.3-0.5,0.5c0,0.2,0,0.4,0,0.7c0,0.3,0.1,0.5,0.2,0.8c0.1,0.2,0.2,0.4,0.4,0.5c0.2,0.1,0.4,0.2,0.7,0.2
			s0.5-0.1,0.8-0.2c0.3-0.1,0.4-0.3,0.5-0.6L-128.8,408.5z"/>
		<path id="XMLID_38_" class="st0" d="M-125.4,409.7v-3.1h-1.3v-0.4h3.2v0.4h-1.3v3.1C-124.8,409.7-125.4,409.7-125.4,409.7z"/>
		<path class="st0" d="M-122,408c0-0.5,0.2-1,0.6-1.4c0.4-0.3,0.9-0.5,1.4-0.5c0.3,0,0.7,0.1,1,0.2c0.3,0.1,0.5,0.4,0.7,0.6
			c0.2,0.3,0.2,0.6,0.2,0.9c0,0.3-0.1,0.7-0.3,1c-0.2,0.3-0.4,0.5-0.7,0.6c-0.3,0.1-0.6,0.2-1,0.2s-0.7-0.1-1-0.2s-0.5-0.4-0.7-0.6
			C-121.9,408.7-122,408.3-122,408L-122,408z M-121.4,408c0,0.4,0.1,0.7,0.4,1s0.6,0.4,1,0.4s0.7-0.1,1-0.4s0.4-0.6,0.4-1
			c0-0.3-0.1-0.5-0.2-0.7c-0.1-0.2-0.3-0.4-0.5-0.5c-0.5-0.3-1.2-0.2-1.6,0.2C-121.3,407.1-121.4,407.5-121.4,408L-121.4,408z"/>
		<path class="st0" d="M-116.2,409.7v-3.5h1.8c0.3,0,0.5,0,0.8,0c0.2,0.1,0.3,0.2,0.4,0.3c0.1,0.2,0.2,0.3,0.2,0.5s-0.1,0.5-0.3,0.6
			c-0.2,0.2-0.6,0.3-0.9,0.3l0.3,0.2l0.4,0.4l0.7,1h-0.7l-0.4-0.6c-0.1-0.2-0.2-0.3-0.4-0.5c-0.1-0.1-0.2-0.2-0.3-0.2l-0.2-0.1h-0.9
			v1.5h-0.6L-116.2,409.7z M-115.7,407.8h1.2c0.2,0,0.4,0,0.6,0c0.1,0,0.3-0.1,0.3-0.2s0-0.2,0-0.3c0-0.2-0.1-0.3-0.2-0.4
			c-0.2-0.1-0.4-0.2-0.6-0.2h-1.3V407.8L-115.7,407.8z"/>
		<path id="XMLID_33_" class="st0" d="M-110.9,409.7v-3.5h2.9v0.4h-2.4v1h2.2v0.4h-2.2v1.2h2.5v0.4h-3V409.7z"/>
		<path id="XMLID_32_" class="st0" d="M-106.1,408.7h0.5c0,0.2,0.1,0.3,0.2,0.4s0.3,0.2,0.4,0.2c0.2,0,0.4,0,0.6,0h0.5
			c0.1,0,0.3-0.1,0.4-0.2s0.1-0.2,0.1-0.3c0-0.1,0-0.2,0-0.3c-0.1-0.1-0.2-0.2-0.4-0.2l-0.7-0.2c-0.3,0-0.5-0.1-0.8-0.2
			c-0.2-0.1-0.3-0.2-0.4-0.3c-0.2-0.3-0.2-0.7,0-0.9c0.1-0.2,0.3-0.3,0.5-0.4c0.2-0.1,0.5-0.1,0.7-0.1c0.3,0,0.5,0,0.8,0.1
			c0.2,0.1,0.4,0.2,0.5,0.4c0.1,0.1,0.2,0.3,0.2,0.5h-0.5c0-0.2-0.1-0.4-0.3-0.5c-0.2-0.1-0.4-0.2-0.7-0.2c-0.2,0-0.5,0-0.7,0.2
			c-0.2,0.1-0.3,0.4-0.2,0.6c0,0.1,0.1,0.1,0.1,0.1c0,0.1,0.4,0.2,0.8,0.3c0.3,0.1,0.6,0.1,0.9,0.2c0.2,0.1,0.4,0.2,0.5,0.4
			c0.1,0.1,0.2,0.3,0.2,0.5c0,0.2-0.1,0.4-0.2,0.5c-0.1,0.2-0.3,0.3-0.5,0.4c-0.2,0.1-0.5,0.1-0.8,0.1s-0.6,0-0.9-0.1
			c-0.2-0.1-0.4-0.2-0.6-0.4C-105.9,409.1-106.1,408.9-106.1,408.7L-106.1,408.7z"/>
		<path id="XMLID_31_" class="st0" d="M-98.1,409.7v-3.5h0.5v3.5H-98.1z"/>
		<path id="XMLID_30_" class="st0" d="M-95.4,409.7v-3.5h0.5l2.1,2.7v-2.7h0.5v3.5h-0.6l-2.1-2.8v2.8H-95.4z"/>
		<path id="XMLID_29_" class="st0" d="M-90,409.7v-3.5h2.7v0.4h-2.2v1.1h1.9v0.4h-1.9v1.6H-90z"/>
		<path id="XMLID_28_" class="st0" d="M-85.4,409.7v-3.5h0.5v3.1h2v0.4H-85.4z"/>
		<path id="XMLID_27_" class="st0" d="M-78.4,406.2h0.5v2c0,0.3,0,0.6-0.1,0.8s-0.3,0.4-0.5,0.5c-0.3,0.1-0.6,0.2-0.9,0.2
			c-0.3,0-0.6-0.1-0.9-0.2c-0.2-0.1-0.4-0.3-0.5-0.5c-0.1-0.3-0.2-0.6-0.2-0.9v-2h0.6v2c0,0.2,0,0.4,0,0.7c0.1,0.2,0.2,0.3,0.3,0.3
			c0.2,0.1,0.4,0.1,0.6,0.1c0.3,0,0.6,0,0.8-0.2c0.2-0.3,0.3-0.6,0.2-0.9L-78.4,406.2L-78.4,406.2z"/>
		<path id="XMLID_26_" class="st0" d="M-74.6,409.7v-1.5l-1.5-2h0.6l0.8,1.1c0.2,0.2,0.3,0.4,0.4,0.6c0.1-0.2,0.3-0.4,0.4-0.6l0.8-1
			h0.6l-1.6,2v1.5L-74.6,409.7z"/>
		<path id="XMLID_25_" class="st0" d="M-70.7,409.7v-3.5h2.9v0.4h-2.4v1h2.2v0.4h-2.2v1.2h2.4v0.4h-2.9V409.7z"/>
		<path id="XMLID_24_" class="st0" d="M-65.8,409.7v-3.5h0.5l2.1,2.7v-2.7h0.5v3.5h-0.6l-2.1-2.8v2.8H-65.8z"/>
		<path id="XMLID_23_" class="st0" d="M-59.5,409.7v-3.1h-1.3v-0.4h3.2v0.4h-1.3v3.1H-59.5L-59.5,409.7z"/>
		<path id="XMLID_22_" class="st0" d="M-55.8,409.7v-3.5h2.9v0.4h-2.4v1h2.2v0.4h-2.2v1.2h2.5v0.4h-3V409.7z"/>
		<path id="XMLID_21_" class="st0" d="M-51,408.7h0.5c0,0.2,0.1,0.3,0.2,0.4c0.1,0.1,0.3,0.2,0.4,0.2c0.2,0,0.4,0,0.6,0h0.5
			c0.1,0,0.3-0.1,0.4-0.2c0.1-0.1,0.1-0.2,0.1-0.3c0-0.1,0-0.2,0-0.3c-0.1-0.1-0.2-0.2-0.4-0.2l-0.7-0.2c-0.3,0-0.5-0.1-0.8-0.2
			c-0.2-0.1-0.3-0.2-0.4-0.3c-0.2-0.3-0.2-0.7,0-0.9c0.1-0.2,0.3-0.3,0.5-0.4c0.2-0.1,0.5-0.2,0.7-0.2c0.3,0,0.5,0,0.8,0.1
			c0.2,0.1,0.4,0.2,0.5,0.4c0.1,0.2,0.2,0.3,0.2,0.5h-0.5c0-0.2-0.1-0.4-0.3-0.5s-0.4-0.2-0.7-0.2c-0.2,0-0.5,0-0.7,0.2
			c-0.2,0.1-0.3,0.4-0.2,0.6c0,0.1,0.1,0.1,0.1,0.1c0.2,0.1,0.5,0.2,0.8,0.3c0.3,0.1,0.6,0.1,0.9,0.2c0.2,0.1,0.4,0.2,0.5,0.4
			c0.1,0.1,0.2,0.3,0.2,0.5c0,0.2-0.1,0.4-0.2,0.5c-0.1,0.2-0.3,0.3-0.5,0.4s-0.5,0.1-0.8,0.1s-0.6,0-0.9-0.1
			c-0.2-0.1-0.4-0.2-0.6-0.4c-0.2-0.1-0.3-0.4-0.3-0.6L-51,408.7z"/>
		<path id="XMLID_20_" class="st0" d="M-214,402.4V401h2v-14.6h-2V385h14.1v4.1h-1.4v-2.5h-6.6v5.6h4.1V390h1.4v6h-1.4v-2.2h-4.1
			v7.1h6.8v-2.5h1.4v4.1L-214,402.4L-214,402.4z"/>
		<path id="XMLID_19_" class="st0" d="M-193.7,400.9h1.6v1.4h-6.9v-1.4h1.6v-15.3h-1.6v-1.4h5.3V400.9z"/>
		<path id="XMLID_18_" class="st0" d="M-170.4,397.4c-0.3,1.5-1.1,2.9-2.2,4c-1.2,0.9-2.8,1.4-4.3,1.3c-2.3,0.1-4.6-0.8-6.3-2.4
			c-1.6-1.8-2.4-4.2-2.2-6.7c-0.2-2.4,0.6-4.8,2.2-6.7c1.7-1.6,3.9-2.5,6.3-2.3c1,0,2,0.1,2.9,0.4c1.1,0.3,2.2,0.6,3.2,1.1v4.3h-1.3
			c-0.2-1.2-0.7-2.4-1.5-3.3c-1.7-1.5-4.3-1.4-5.8,0.3c-0.1,0.2-0.3,0.3-0.4,0.5c-0.9,1.8-1.2,3.8-1.1,5.8c-0.1,2,0.3,4,1.1,5.7
			c0.7,1.2,2,1.9,3.4,1.8c1,0.1,1.9-0.3,2.6-1c0.8-0.8,1.3-1.8,1.4-2.9h2.1L-170.4,397.4z"/>
		<path class="st0" d="M-163.4,402.7c-1.7,0.1-3.4-0.5-4.6-1.8c-1.2-1.3-1.8-3-1.7-4.8c-0.1-1.8,0.5-3.5,1.7-4.8
			c1.2-1.2,2.9-1.8,4.6-1.7c1.7-0.1,3.4,0.5,4.6,1.7c1.2,1.3,1.8,3,1.7,4.8c0.1,1.8-0.5,3.5-1.7,4.8
			C-160,402.2-161.7,402.8-163.4,402.7L-163.4,402.7z M-163.4,401.4c0.7,0,1.4-0.4,1.7-1.1c0.4-1.3,0.5-2.7,0.5-4.1
			c0.1-1.4-0.1-2.8-0.5-4.1c-0.3-0.7-0.9-1.1-1.7-1.1c-0.7,0-1.4,0.4-1.6,1.1c-0.4,1.3-0.6,2.7-0.5,4.1c-0.1,1.4,0.1,2.8,0.5,4.1
			C-164.8,401-164.1,401.4-163.4,401.4L-163.4,401.4z"/>
		<path id="XMLID_15_" class="st0" d="M-157.2,402.4V401h1.6v-9.6h-1.6V390h5.3v1.8c0.4-0.7,0.9-1.2,1.5-1.6
			c0.7-0.4,1.5-0.5,2.2-0.5c1.1-0.1,2.1,0.4,2.8,1.2c0.7,1.1,1,2.4,1,3.6v6.5h1.7v1.4h-6.7V401h1.3v-6.7c0.1-0.8-0.1-1.5-0.3-2.2
			c-0.3-0.4-0.8-0.6-1.2-0.6c-0.7,0-1.3,0.3-1.7,0.9c-0.4,0.9-0.6,1.9-0.6,2.9v5.6h1.3v1.4L-157.2,402.4L-157.2,402.4z"/>
		<path id="XMLID_14_" class="st0" d="M-132.5,387.3h-1.2c0-0.5-0.2-1-0.5-1.4c-0.3-0.3-0.7-0.5-1.1-0.4c-0.5,0-1,0.2-1.2,0.7
			c-0.3,0.7-0.4,1.5-0.4,2.2v1.6h2.8v1.4h-2.8v9.6h2.2v1.4h-7.6V401h1.6v-9.6h-1.7V390h1.7v-1.6c-0.1-1.2,0.3-2.3,1.2-3.1
			c1-0.8,2.2-1.2,3.4-1.1c0.6,0,1.2,0,1.8,0c0.6,0.1,1.1,0.2,1.7,0.3L-132.5,387.3L-132.5,387.3z"/>
		<path class="st0" d="M-128,400.9h1.6v1.4h-6.9v-1.4h1.7v-9.6h-1.6V390h5.3v11h-0.1V400.9z M-132.1,386.4c0-0.6,0.1-1.1,0.5-1.6
			c0.4-0.5,0.9-0.7,1.5-0.7c0.5,0,1.1,0.2,1.4,0.6c0.4,0.4,0.6,1,0.6,1.6c0,0.6-0.2,1.1-0.6,1.6c-0.4,0.4-0.9,0.6-1.4,0.6
			c-0.6,0-1.1-0.2-1.5-0.6C-132,387.6-132.2,387-132.1,386.4L-132.1,386.4z"/>
		<path class="st0" d="M-114.1,400.9h1.6v1.4h-5.3v-1.6c-0.3,0.6-0.7,1.1-1.3,1.4c-0.6,0.3-1.3,0.5-2,0.5c-1.5,0.1-2.9-0.6-3.7-1.8
			c-1-1.4-1.4-3.1-1.4-4.8c-0.1-1.7,0.4-3.4,1.4-4.8c0.9-1.2,2.3-1.8,3.7-1.7c0.7,0,1.4,0.2,2,0.5s1,0.8,1.3,1.4v-6h-1.6V384h5.3
			V400.9L-114.1,400.9z M-117.9,396.8v-1.2c0.1-1.1,0-2.1-0.4-3.1c-0.3-0.6-0.9-1-1.6-1s-1.4,0.4-1.6,1c-0.4,1.2-0.5,2.5-0.5,3.7
			c-0.1,1.2,0.1,2.5,0.5,3.7c0.3,0.6,0.9,1.1,1.6,1c0.7,0,1.3-0.3,1.6-1C-117.9,398.9-117.7,397.8-117.9,396.8L-117.9,396.8z"/>
		<path class="st0" d="M-100.5,396.7h-7.7c-0.1,1.2,0.1,2.4,0.6,3.5c0.5,0.7,1.3,1.1,2.2,1c0.7,0,1.4-0.2,2-0.7
			c0.6-0.6,0.9-1.3,1-2.1h1.8c-0.2,1.3-0.9,2.4-2,3.2c-1.1,0.7-2.4,1.1-3.7,1c-1.7,0.1-3.3-0.5-4.5-1.7c-1.1-1.4-1.7-3.1-1.5-4.9
			c-0.1-1.8,0.5-3.5,1.7-4.8c1.2-1.2,2.8-1.8,4.5-1.7c1.6-0.1,3.2,0.6,4.3,1.8C-101,393-100.4,394.8-100.5,396.7L-100.5,396.7z
			 M-104.6,395.3c0.1-1.2-0.1-2.3-0.4-3.4c-0.3-0.8-1.2-1.2-1.9-0.9c-0.4,0.2-0.7,0.5-0.9,0.9c-0.3,1-0.5,2.1-0.4,3.2v0.2H-104.6z"
			/>
		<path id="XMLID_7_" class="st0" d="M-100.5,402.4V401h1.6v-9.6h-1.6V390h5.3v1.8c0.4-0.7,0.9-1.2,1.5-1.6c0.7-0.3,1.5-0.5,2.2-0.5
			c1.1-0.1,2.1,0.4,2.8,1.2c0.7,1.1,1,2.4,1,3.6v6.5h1.6v1.4h-6.7V401h1.3v-6.7c0.1-0.8-0.1-1.5-0.3-2.2c-0.3-0.4-0.8-0.6-1.2-0.6
			c-0.7,0-1.3,0.3-1.7,0.9c-0.4,0.9-0.6,1.9-0.5,2.9v5.6h1.3v1.4L-100.5,402.4L-100.5,402.4z"/>
		<path id="XMLID_6_" class="st0" d="M-74.6,398.5c-0.2,1.2-0.8,2.3-1.6,3.2c-1,0.7-2.2,1.1-3.4,1c-1.7,0.1-3.4-0.5-4.6-1.7
			c-1.2-1.3-1.7-3.1-1.6-4.8c-0.1-1.8,0.5-3.5,1.6-4.8c1.2-1.2,2.8-1.8,4.5-1.7c0.8,0,1.6,0.1,2.4,0.2c0.8,0.2,1.6,0.4,2.4,0.7v3.4
			h-1.2c0-0.8-0.3-1.6-0.8-2.2c-0.4-0.6-1.1-0.9-1.8-1c-0.9-0.1-1.8,0.4-2.2,1.2c-0.6,1.3-0.8,2.7-0.7,4.1c-0.1,1.4,0.1,2.7,0.6,4
			c0.4,0.8,1.2,1.3,2.1,1.2c0.7,0,1.3-0.2,1.8-0.7c0.5-0.6,0.8-1.4,0.8-2.2h1.8L-74.6,398.5z"/>
		<path class="st0" d="M-68.8,400.9h1.7v1.4H-74v-1.4h1.6v-9.6H-74V390h5.3L-68.8,400.9L-68.8,400.9z M-72.9,386.4
			c0-0.6,0.2-1.1,0.6-1.6c0.4-0.4,0.9-0.7,1.4-0.7s1.1,0.2,1.4,0.6c0.4,0.4,0.6,1,0.6,1.6c0,0.6-0.2,1.1-0.6,1.6
			c-0.4,0.4-0.9,0.6-1.4,0.6c-0.6,0-1.1-0.2-1.4-0.6C-72.7,387.5-72.9,387-72.9,386.4L-72.9,386.4z"/>
		<path class="st0" d="M-56,394.8v6.2h1.6v1.4h-5.3v-1.6c-0.4,0.6-1,1.1-1.6,1.4c-0.6,0.3-1.3,0.5-2,0.5c-1,0.1-2-0.3-2.6-1
			c-0.7-0.8-1-1.9-0.9-2.9c-0.1-1.2,0.4-2.3,1.3-3.1c1.2-0.8,2.6-1.2,4-1.1h2v-0.7c0.1-0.8-0.2-1.6-0.6-2.2c-1.1-0.9-2.6-1-3.7-0.2
			c-0.5,0.5-0.7,1.1-0.8,1.7H-66v-2.7c0.7-0.3,1.4-0.5,2.1-0.6c0.7-0.1,1.5-0.2,2.2-0.2c1.6-0.2,3.2,0.3,4.5,1.2
			C-56.3,391.9-55.8,393.3-56,394.8L-56,394.8z M-59.7,398.5V396h-1.4c-0.6,0-1.2,0.2-1.6,0.6c-0.4,0.5-0.6,1.2-0.6,1.8
			c-0.1,0.6,0.1,1.2,0.4,1.8c0.3,0.4,0.8,0.6,1.2,0.6c0.5,0,1-0.2,1.4-0.6C-59.9,399.7-59.7,399.1-59.7,398.5L-59.7,398.5z"/>
		<path id="XMLID_1_" class="st0" d="M-48.7,400.9h1.6v1.4H-54v-1.4h1.6v-15.3H-54v-1.4h5.3L-48.7,400.9L-48.7,400.9z"/>
	</g>
</g>
</svg>
