<?xml version="1.0" encoding="utf-8"?>
<!-- Generator: Adobe Illustrator 19.0.0, SVG Export Plug-In . SVG Version: 6.00 Build 0)  -->
<svg version="1.1" id="Layer_1" xmlns="http://www.w3.org/2000/svg" xmlns:xlink="http://www.w3.org/1999/xlink" x="0px" y="0px"
	 viewBox="-218 372 175 50" style="enable-background:new -218 372 175 50;" xml:space="preserve">
<style type="text/css">
	.st0{fill:#FFFFFF;}
</style>
<g transform="translate(-0.315 0.387)">
	<g transform="translate(0.113 11.008)">
		<g transform="translate(0 0)">
			<path class="st0" d="M-117.6,379.3c-1.7,0-3.3,0.4-4.8,1.2c0-4.3,0-8.1,0.1-9.5l-9,1.6v0.8l0.9,0.1c1.2,0.3,1.6,0.9,1.9,2.5
				c0.3,3.2,0.1,20.3,0,23.1c2.5,0.6,5,0.9,7.5,0.9c7.1,0,11.4-4.4,11.4-11.4C-109.6,383.3-113,379.3-117.6,379.3z M-120.7,398.7
				c-0.5,0-1.1,0-1.6-0.1c-0.1-1.9-0.3-9.8-0.1-16.7c0.6-0.2,1.3-0.4,2-0.4c2.9,0,4.5,3.4,4.5,7.7
				C-115.9,394.5-117.9,398.7-120.7,398.7L-120.7,398.7z M-164.9,371.5l0.1,7.9l-1.3,0.4c-1.3-4-3.2-6.3-6.9-6.3h-4.7
				c-0.1,2.5-0.3,6.9-0.3,11.4l3.2-0.1c2,0,2.9-1.6,3.3-3.9h1.2v9.5h-1.2c-0.4-2.3-1.3-3.9-3.3-3.9l-3.2-0.1c0,3.4,0.1,6.3,0.3,8
				c0.3,2.5,0.9,3.8,2.7,3.9l1.6,0.3v1.1h-15.1v-1.1l1.3-0.3c1.7-0.1,2.4-1.3,2.7-3.9c0.3-5.9,0.3-11.8,0-17.6
				c-0.3-2.6-0.9-3.6-2.7-3.9l-1.3-0.2v-1.2C-188.5,371.5-164.9,371.5-164.9,371.5z M-157.3,379c6.7,0,10,4.5,10,10.6
				c0.3,5.5-3.9,10.2-9.4,10.6c-0.3,0-0.7,0-1,0c-6.6,0-10.1-4.5-10.1-10.6c-0.3-5.5,3.9-10.2,9.4-10.6
				C-158.1,379-157.8,379-157.3,379L-157.3,379z M-157.7,380.4c-2.9,0-3.7,4-3.7,9.2c0,5.2,1.3,9.2,4,9.2c3.1,0,3.9-4,3.9-9.2
				C-153.5,384.4-154.9,380.4-157.7,380.4z M-107.8,389.7c0-5.5,3.4-10.7,10.3-10.7c5.6,0,8.3,4.2,8.3,9.6h-12.5
				c-0.1,4.9,2.3,8.6,7.1,8.6c1.6,0.1,3.3-0.4,4.5-1.5l0.5,0.7c-2,2.4-4.9,3.8-8,3.7c-5.5,0.2-10.1-4-10.3-9.5
				C-107.9,390.4-107.9,390.1-107.8,389.7L-107.8,389.7z M-101.7,387.2l6.3-0.1c0-2.7-0.4-6.7-2.7-6.7S-101.5,384.1-101.7,387.2
				L-101.7,387.2z M-73.3,380.1l0.1,5.2l-0.9,0.3c-1.2-3.6-2.8-5.2-5.2-5.2c-1.5,0-2.8,1.2-2.8,2.7c0,0.1,0,0.1,0,0.2
				c0,1.7,1.3,2.7,5.1,4.2c3.7,1.5,4.9,2.9,4.9,5.8c0,4.1-3.3,6.9-8.6,6.9c-2.4,0-4.8-0.4-7.1-1.2l-0.1-5.9l0.9-0.3
				c1.5,4,3.4,5.5,5.9,5.5c1.7,0.1,3.2-1.1,3.3-2.9c0-0.1,0-0.1,0-0.2c0-1.6-0.9-2.5-4.3-3.8c-3.4-1.3-5.5-2.5-5.5-6s3.1-6.4,8-6.4
				C-77.4,378.9-75.3,379.3-73.3,380.1L-73.3,380.1z M-129.9,379.6l-2.2,5.4c-2.7-1.7-5.6-0.9-6.3,0c-0.1,3.6-0.1,7.2,0.1,10.8
				c0.1,1.6,0.5,2.4,1.9,2.5l1.6,0.1v1.1h-12.4v-1.1l0.9-0.1c1.2-0.1,1.7-0.9,1.9-2.5c0.2-3.9,0.2-7.8,0-11.6
				c-0.1-1.7-0.7-2.4-1.9-2.5l-0.9-0.1v-0.8l9-1.7l-0.1,4.7C-136.2,378.9-132.2,378.2-129.9,379.6L-129.9,379.6z"/>
		</g>
	</g>
</g>
</svg>
