<?xml version="1.0" encoding="utf-8"?>
<!-- Generator: Adobe Illustrator 19.0.0, SVG Export Plug-In . SVG Version: 6.00 Build 0)  -->
<svg version="1.1" id="Layer_1" xmlns="http://www.w3.org/2000/svg" xmlns:xlink="http://www.w3.org/1999/xlink" x="0px" y="0px"
	 viewBox="-218 372 175 50" style="enable-background:new -218 372 175 50;" xml:space="preserve">
<style type="text/css">
	.st0{fill:#FFFFFF;}
</style>
<g id="XMLID_1_">
	<path id="XMLID_13_" class="st0" d="M-193.1,406.5h6.2l3.3-18.9h-6.2l-1.2,6.7h-5.3l1.2-6.8h-6.2l-3.3,18.9h6.2l1.2-7.1h5.3
		L-193.1,406.5z"/>
	<path id="XMLID_12_" class="st0" d="M-180.1,387.5l-1.9,10.6c-0.1,0.8-0.2,1.6-0.2,2.4c0,5.6,4.9,6.4,7.8,6.4c6.1,0,8.8-2,9.7-7.5
		l2-11.8h-6.2l-1.8,9.9c-0.6,3.1-1,4.7-3.3,4.7c-1.5,0-2.2-0.8-2.2-2.4c0-0.8,0.1-1.6,0.3-2.4l1.8-9.8L-180.1,387.5L-180.1,387.5z"
		/>
	<path class="st0" d="M-130,406.5h6.2l0.9-4.9h2.9c5.4,0,8.3-2.9,8.3-8.2c0-3.7-2.6-5.9-7.1-5.9h-7.9L-130,406.5z M-120.4,396.9
		h-1.8l0.8-4.4h1.7c1.4,0,2.1,0.7,2.1,1.9C-117.6,396-118.7,396.9-120.4,396.9z"/>
	<path class="st0" d="M-99.8,387.1c-6.7,0-10.7,4.3-10.7,11.6c0,5.1,3.2,8.1,8.5,8.1c6.7,0,10.7-4.3,10.7-11.6
		C-91.2,390.2-94.4,387.1-99.8,387.1z M-101.6,402c-1.6,0-2.5-1.2-2.5-3.1c0-0.7,0.1-1.4,0.2-2.1c0.5-2.5,1.3-4.8,3.8-4.8
		c1.6,0,2.5,1.2,2.5,3.1c0,0.7-0.1,1.4-0.2,2.1C-98.3,399.7-99.1,402-101.6,402z"/>
	<path id="XMLID_7_" class="st0" d="M-69.8,406.5h6.2l2.4-13.9h4.6l0.9-5.1h-15.8l-0.9,5.1h4.9L-69.8,406.5z"/>
	<path id="XMLID_6_" class="st0" d="M-80,394.5c-2-0.6-2.7-0.9-2.7-1.8c0-0.6,0.4-1.3,1.6-1.3c0.8,0,1.6,0.5,1.9,1.2l5.4-1.5
		c-0.6-2.7-2.9-4-6.9-4c-7.4,0-8,5-8,6.5c0,3.1,1.6,5,5.2,6c0.9,0.3,2,0.5,2,1.6c0,0.8-0.6,1.3-1.7,1.3c-1,0-2-0.6-2.3-1.5l-5.4,1.5
		c0.6,2.8,3.2,4.4,7.4,4.4c3.2,0,8.5-0.8,8.5-6.6C-75.1,397.4-76.7,395.6-80,394.5L-80,394.5z"/>
	<path id="XMLID_5_" class="st0" d="M-208,406.5l3.3-18.9h-10.2v18.9H-208z"/>
	<path id="XMLID_4_" class="st0" d="M-53,387.6l-3.3,18.9h10.2v-18.9H-53z"/>
	<path id="XMLID_3_" class="st0" d="M-159.1,387.5l-3.3,18.9h6.2l1-5.6h5.2l0.8-4.8h-5.2l0.6-3.5h7.2l0.9-5.1h-13.4V387.5z"/>
	<path id="XMLID_2_" class="st0" d="M-142.9,387.5l-3.3,18.9h6.2l1-5.6h5.2l0.8-4.8h-5.2l0.6-3.5h7.2l0.9-5.1h-13.4V387.5z"/>
</g>
</svg>
