<?xml version="1.0" encoding="utf-8"?>
<!-- Generator: Adobe Illustrator 19.0.0, SVG Export Plug-In . SVG Version: 6.00 Build 0)  -->
<svg version="1.1" id="Layer_1" xmlns="http://www.w3.org/2000/svg" xmlns:xlink="http://www.w3.org/1999/xlink" x="0px" y="0px"
	 viewBox="-218 372 175 50" style="enable-background:new -218 372 175 50;" xml:space="preserve">
<style type="text/css">
	.st0{fill:#FFFFFF;}
</style>
<g transform="translate(0)">
	<g transform="translate(0)">
		<path id="XMLID_15_" class="st0" d="M-200.8,413.6h42.3c0.3,0,0.5,0.2,0.5,0.5l0,0v4.1c0,0.3-0.2,0.5-0.5,0.5l0,0h-42.3
			c-0.3,0-0.5-0.2-0.5-0.5l0,0v-4.1C-201.3,413.8-201.1,413.6-200.8,413.6L-200.8,413.6z"/>
		<path id="XMLID_14_" class="st0" d="M-109.3,413.6h-42.4c-0.3,0-0.5,0.2-0.5,0.5v4.1c0,0.3,0.2,0.5,0.5,0.5h42.3
			c0.3,0,0.5-0.2,0.5-0.5v-4.1C-108.8,413.8-109.1,413.6-109.3,413.6z"/>
		<path id="XMLID_13_" class="st0" d="M-60.2,413.6h-42.3c-0.3,0-0.5,0.2-0.5,0.5v4.1c0,0.3,0.2,0.5,0.5,0.5h42.3
			c0.3,0,0.5-0.2,0.5-0.5v-4.1C-59.7,413.8-59.9,413.6-60.2,413.6z"/>
		<path id="XMLID_12_" class="st0" d="M-200.2,380.6h3.5c0.4,0,0.7,0.3,0.7,0.7v23.1c0,0.6,0.5,1.2,1.2,1.2h3.5
			c0.6,0,1.2-0.5,1.2-1.1c0,0,0,0,0-0.1v-23.1c0-0.4,0.3-0.7,0.7-0.7h3.5c0.6,0,1.2-0.5,1.2-1.2l0,0v-2.2c0-0.7-0.5-1.2-1.1-1.3
			c0,0,0,0-0.1,0h-14.3c-0.6,0-1.2,0.5-1.2,1.2v0.1v2.2C-201.3,380.1-200.8,380.6-200.2,380.6L-200.2,380.6z"/>
		<path id="XMLID_11_" class="st0" d="M-182,405.6h3c0.6,0,1.2-0.5,1.2-1.2V390c0-0.3,0-0.5,0-0.8c0.2-0.8,0.8-1.3,1.6-1.3
			c0.6,0,1.2,0.3,1.5,0.8c0.1,0.5,0.2,1,0.1,1.5v14.1c0,0.6,0.5,1.2,1.2,1.2h3.1c0.6,0,1.2-0.5,1.2-1.2v-15.5c0-0.7,0-1.5-0.2-2.2
			c-0.6-1.9-2.4-3.1-4.4-3.1c-1.4,0-2.8,0.5-3.8,1.5c-0.1,0.1-0.2,0.1-0.2,0.1c0-0.1,0-0.2,0-0.2v-7.7c0.1-0.6-0.4-1.2-1.1-1.3
			c-0.1,0-0.1,0-0.2,0h-3c-0.7,0-1.2,0.5-1.2,1.2c0,0,0,0,0,0.1v27.3C-183.2,405.1-182.7,405.6-182,405.6z"/>
		<path class="st0" d="M-160.6,383.5c-2.7-0.2-5.2,1.2-6.5,3.6c-0.3,0.9-0.5,1.9-0.5,2.9v9c0,1,0.2,1.9,0.4,2.8
			c0.6,1.9,2.2,4.2,6.6,4.2c2.8,0,5.7-0.9,6.5-4c0.2-0.6,0.2-1.3,0.2-1.9v-0.8c0-0.6-0.6-1.1-1.2-1.1h-2.8c-0.6,0-1.2,0.5-1.2,1.2
			c0,0.5,0,0.9-0.2,1.4c-0.1,0.6-0.7,1-1.3,1c-0.7,0.1-1.3-0.4-1.5-1c-0.1-0.4-0.2-0.9-0.1-1.3v-2.6c0-0.4,0.3-0.7,0.7-0.7l0,0h6.5
			c0.6,0,1.2-0.5,1.2-1.2l0,0v-5.1c0.1-1.1-0.1-2.2-0.6-3.2C-155.7,384.5-158.1,383.3-160.6,383.5z M-159.2,391.4
			c0,0.4-0.3,0.7-0.7,0.7l0,0h-1.6c-0.4,0-0.7-0.3-0.7-0.7l0,0v-1.7c0-0.4,0.1-0.8,0.2-1.2c0.3-0.5,0.8-0.8,1.4-0.7
			c0.5-0.1,1,0.2,1.2,0.6c0.2,0.3,0.2,0.7,0.2,1.1V391.4z"/>
		<path id="XMLID_8_" class="st0" d="M-141.4,404.5c1.8,1.2,4,1.8,6.2,1.7c5,0,7.1-2.2,7.8-4.6c0.3-1.4,0.4-2.9,0.3-4.4v-1
			c0.1-1.5-0.3-3-1.2-4.2c-0.7-0.9-1.5-1.7-2.5-2.3l-5.2-3.6c-0.4-0.2-0.8-0.5-1.1-0.9c-0.4-0.7-0.5-1.5-0.5-2.4v-0.2
			c0-2.4,1-2.6,2.2-2.7c1.9,0,2.1,1.1,2.2,1.9v1.9c0,0.7,0.5,1.2,1.2,1.2l0,0h3.5c0.6,0,1.2-0.5,1.2-1.2l0,0v-1.8
			c0.1-0.9-0.1-1.7-0.5-2.5c-1.7-4.1-6.4-4.1-7.3-4.1c-0.9,0-5.7,0-7.6,3.8c-0.5,1.3-0.8,2.6-0.7,3.9v0.2c-0.1,1.7,0.2,3.3,1.1,4.8
			c0.7,1,1.6,1.9,2.6,2.5l5.1,3.4c0.5,0.3,0.9,0.7,1.2,1.1c0.4,0.7,0.6,1.4,0.5,2.2v0.3c0,2,0,3.2-0.7,3.8c-0.5,0.4-1.1,0.6-1.7,0.5
			c-0.5,0-1.1-0.1-1.5-0.4c-0.8-0.5-0.8-1.4-0.8-2.3v-3c0-0.6-0.5-1.2-1.2-1.2l0,0h-3.5c-0.7,0-1.2,0.5-1.2,1.2v3.3
			c-0.1,1.1,0.2,2.1,0.6,3.1C-142.6,403.3-142.1,404-141.4,404.5L-141.4,404.5z"/>
		<path id="XMLID_7_" class="st0" d="M-125.8,387.7h0.8c0.4,0,0.7,0.3,0.7,0.7v12.8c-0.1,0.9,0.1,1.7,0.4,2.6
			c0.7,1.5,2.3,2.1,5.1,2.1h1.6c0.7-0.1,1.1-0.7,1.1-1.4v-1.7c0-0.3,0-0.5-0.1-0.7c-0.1-0.2-0.3-0.4-0.5-0.4h-0.4
			c-0.9,0-1.7-0.2-1.9-1c-0.1-0.4-0.2-0.7-0.1-1.1v-11.2c0-0.4,0.3-0.7,0.7-0.7h0.1h1.1c0.6,0,1.2-0.5,1.2-1.2v-1.4
			c0-0.7-0.5-1.2-1.2-1.2h-1.1c-0.4,0-0.7-0.3-0.7-0.7v-4.1c0-0.6-0.6-1.1-1.2-1.1h-3c-0.6,0-1.2,0.5-1.2,1.2v4.1
			c0,0.4-0.3,0.7-0.7,0.7l0,0h-0.8c-0.7,0-1.2,0.5-1.2,1.2v1.4C-127,387.1-126.4,387.7-125.8,387.7z"/>
		<path id="XMLID_6_" class="st0" d="M-105,383.6L-105,383.6c-1.4,0.1-2.6,0.8-3.4,1.9c-0.1,0.2-0.2,0.3-0.3,0.5v-0.8
			c0-0.6-0.5-1.2-1.2-1.2h-3c-0.6,0-1.2,0.5-1.2,1.2l0,0v19.3c0,0.6,0.5,1.2,1.2,1.2h3c0.6,0,1.2-0.5,1.2-1.2l0,0v-11.9
			c-0.2-1.3,0.2-2.7,1.2-3.6c0.5-0.3,1.1-0.5,1.7-0.5c0.3,0,0.5,0,0.8,0h0.2c0.2,0.1,0.4,0,0.6-0.1c0.2-0.2,0.3-0.4,0.2-0.7v-3
			C-103.9,384.2-104.4,383.6-105,383.6L-105,383.6L-105,383.6z"/>
		<path class="st0" d="M-96.2,406c2.8,0,5.7-0.9,6.5-4c0.2-0.6,0.2-1.3,0.2-1.9v-0.8c0-0.6-0.6-1.1-1.2-1.1l0,0h-2.8
			c-0.6,0-1.2,0.5-1.2,1.2c0,0.5,0,0.9-0.2,1.4c-0.1,0.6-0.7,1-1.4,1c-0.7,0.1-1.3-0.4-1.5-1c-0.1-0.4-0.2-0.9-0.1-1.4v-2.6
			c0-0.4,0.3-0.7,0.7-0.7l0,0h6.5c0.6,0,1.2-0.5,1.2-1.2l0,0v-5.1c0.1-1.1-0.1-2.2-0.5-3.2c-1.3-2.1-3.7-3.3-6.2-3.2
			c-2.7-0.2-5.2,1.2-6.5,3.5c-0.4,1-0.6,2-0.6,3v9c0,1,0.2,1.9,0.4,2.8C-102.2,403.8-100.6,406-96.2,406z M-97.8,389.8
			c0-0.4,0.1-0.8,0.2-1.2c0.2-0.5,0.8-0.8,1.4-0.7c0.5-0.1,1,0.2,1.2,0.6c0.2,0.3,0.2,0.7,0.2,1.1v1.9c0,0.4-0.3,0.7-0.7,0.7h-1.6
			c-0.4,0-0.7-0.3-0.7-0.7l0,0V389.8z"/>
		<path class="st0" d="M-81,406c2.8,0,5.7-0.9,6.5-4c0.2-0.6,0.2-1.3,0.2-1.9v-0.9c0-0.6-0.5-1.1-1.1-1.1l0,0h-2.8
			c-0.6,0-1.2,0.5-1.2,1.2l0,0c0,0.5,0,0.9-0.2,1.4c-0.2,0.6-0.7,1-1.4,1s-1.3-0.4-1.5-1c-0.1-0.4-0.2-0.9-0.1-1.3v-2.6
			c0-0.4,0.3-0.7,0.7-0.7l0,0h6.5c0.6,0,1.2-0.5,1.2-1.2l0,0v-5.1c0.1-1.1-0.1-2.2-0.6-3.2c-2.4-3.4-7.1-4.2-10.5-1.9
			c-0.9,0.6-1.6,1.4-2.1,2.2c-0.4,1-0.6,2-0.6,3v9c0,1,0.2,1.9,0.4,2.8C-87,403.8-85.4,406-81,406z M-82.6,389.8
			c0-0.4,0.1-0.8,0.2-1.2c0.3-0.5,0.8-0.8,1.4-0.7c0.5-0.1,1,0.2,1.3,0.6c0.2,0.3,0.2,0.7,0.2,1.1v1.9c0,0.4-0.3,0.7-0.7,0.7l0,0
			h-1.6c-0.4,0-0.7-0.3-0.7-0.7l0,0L-82.6,389.8z"/>
		<path id="XMLID_1_" class="st0" d="M-72.5,387.7h0.8c0.4,0,0.7,0.3,0.7,0.7v12.8c0,0.8,0.1,1.7,0.4,2.5c0.7,1.5,2.3,2.1,5.2,2.1
			c0.5,0,1.1,0,1.6-0.1c0.7-0.1,1.1-0.7,1.1-1.3v-1.7c0-0.3,0-0.5-0.1-0.7s-0.3-0.4-0.5-0.4h-0.4c-0.9,0-1.6-0.2-1.9-1
			c-0.1-0.4-0.2-0.7-0.1-1.1v-11c0-0.4,0.3-0.7,0.7-0.7h1.1c0.6,0,1.2-0.5,1.2-1.2l0,0v-1.4c0-0.6-0.5-1.2-1.2-1.2H-65
			c-0.4,0-0.7-0.3-0.7-0.7v-4.2c0-0.6-0.5-1.2-1.2-1.2h-3c-0.6,0-1.2,0.5-1.2,1.2v4.2c0,0.4-0.3,0.7-0.7,0.7l0,0h-0.8
			c-0.6,0-1.2,0.5-1.2,1.2v1.4C-73.6,387.1-73.1,387.7-72.5,387.7z"/>
	</g>
</g>
</svg>
