<?xml version="1.0" encoding="utf-8"?>
<!-- Generator: Adobe Illustrator 19.0.0, SVG Export Plug-In . SVG Version: 6.00 Build 0)  -->
<svg version="1.1" id="Layer_1" xmlns="http://www.w3.org/2000/svg" xmlns:xlink="http://www.w3.org/1999/xlink" x="0px" y="0px"
	 viewBox="-218 372 175 50" style="enable-background:new -218 372 175 50;" xml:space="preserve">
<style type="text/css">
	.st0{fill:#FFFFFF;}
</style>
<g transform="translate(0 0)">
	<g transform="translate(0 0)">
		<path id="XMLID_14_" class="st0" d="M-198.3,383.5c-11.4-1.4-14.7,8.1-13.7,14c1.2,5.7,5.2,10.5,10.7,12.6
			c0.2,0.1,0.4,0.2,0.5,0.3c3.8,1.5,8.1-0.4,9.7-4.2c1.5-3.8-0.3-8.1-4.1-9.7c-0.5-0.2-0.9-0.3-1.4-0.5c2.4,3.1,1.9,9.7,0,11.7
			c-0.5,0.5-1,0.3-0.9,0.2c0.8-1.2,0.7-10-2.5-11.7c-2.2,0.6-4.1,2.3-5,4.4c-0.5,1.5-0.6,3-0.3,4.6l-0.2-0.2
			c-3.2-2.9-4.7-7.2-4-11.5c1.8-6.4,8.2-6.7,12.6-5c3.6,1.5,6.6,4.1,8.5,7.5c1.2,2.3,1.8,4.9,1.6,7.5c-1.2,10.4-12.9,11-20.2,4.6
			c-13.2-11.5-6.4-31,11.2-27c0.1,0,0.3,0,0.4,0c-6.9-2.9-14.5-2-18.5,4.1c-4.8,7.1-1.8,18.3,6.4,24.6c8.2,6.3,18.7,6.3,23.7-1.1
			c2.2-3.7,2.8-8.2,1.6-12.4C-184.5,389.3-190.8,384.2-198.3,383.5z"/>
		<path class="st0" d="M-101.3,403.3h2.6c1.5,0,2.9-0.8,2.9-2.1c0-1.7-2.3-3-4.4-3c-2.9-0.2-5.5,2-5.7,4.9c0,0.1,0,0.2,0,0.2
			c0.2,3,2.8,5.3,5.8,5.2c1.4,0,2.8-0.6,3.8-1.6l-0.5-0.4c-0.8,0.7-1.8,1.1-2.9,1.1c-1.5,0-2.8-1.1-3.1-2.6v-0.7
			C-102.5,403.7-101.9,403.3-101.3,403.3z M-102.3,401.4c0.2-1,1-2.4,2.1-2.4c1.1,0.2,2,1.1,2,2.3c0,0.6-0.8,1.2-1.4,1.2h-2.8
			C-102.5,402.1-102.4,401.7-102.3,401.4z"/>
		<path id="XMLID_11_" class="st0" d="M-84.1,405.5c-0.9,0-1.6,0.6-1.8,1.5c0.2,0.9,1,1.6,1.9,1.6s1.7-0.7,1.8-1.6
			C-82.3,406-83.2,405.4-84.1,405.5z"/>
		<path id="XMLID_10_" class="st0" d="M-84.2,399.1v-0.8H-85c-1-0.1-2,0.2-2.9,0.8l-1.4,1c-0.4,0.3-0.7,0.5-1,0.4
			c-0.2,0-0.4-0.2-0.4-0.4l0,0c0-0.8-0.7-1.4-1.8-1.4h-1.2v9.5h2.5l0.3-2.1c0.1-2.1,1-4,2.6-5.4l0.9-0.7c0.6-0.6,1.4-0.9,2.3-1h0.9
			V399.1z"/>
		<path id="XMLID_9_" class="st0" d="M-78.8,403.3c-0.1-1.7,1.2-3.1,2.9-3.2h0.1c1,0,2,0.4,2.7,1v-2.2c-0.9-0.4-1.9-0.6-2.9-0.7
			c-2.6-0.1-4.8,2-4.9,4.6c0,0.2,0,0.5,0,0.7c-0.1,2.6,1.9,4.8,4.5,5c0.2,0,0.3,0,0.5,0c1,0,2-0.2,2.9-0.6V406
			c-0.8,0.4-1.7,0.7-2.6,0.7c-1.7,0.1-3.2-1.1-3.3-2.8C-78.8,403.7-78.8,403.5-78.8,403.3L-78.8,403.3z"/>
		<path class="st0" d="M-66.1,398.2c-2.8,0.1-5.1,2.4-5,5.3c0.1,2.8,2.4,5.1,5.3,5c2.8-0.1,5-2.4,5-5.2c0-2.8-2.2-5-5-5
			C-65.9,398.2-66,398.2-66.1,398.2L-66.1,398.2z M-66.1,406.7c-1.7,0-3.1-1.3-3.2-3c0-0.1,0-0.3,0-0.4c0-1.7,1.3-3.1,3.1-3.2h0.1
			c1.8-0.1,3.2,1.3,3.3,3c0,0.1,0,0.2,0,0.3c0.1,1.7-1.2,3.2-3,3.3C-65.8,406.7-65.9,406.7-66.1,406.7L-66.1,406.7z"/>
		<path id="XMLID_6_" class="st0" d="M-48.1,398.2c-1.3,0.1-2.5,0.8-3.3,1.9c-0.6-1.1-1.7-1.8-2.9-1.8c-1.1,0.1-2.2,0.6-2.9,1.5
			v-1.4h-1.9v9.8h1.9V401c0.6-0.8,1.5-1.2,2.5-1.2s1.8,0.6,1.8,2.3v6.1h1.9V401c0.6-0.7,1.4-1.1,2.3-1.2c1.1,0,2,0.9,2,2
			c0,0.1,0,0.2,0,0.3v6.1h1.9V402C-44.8,399.8-46.1,398.2-48.1,398.2z"/>
		<path id="XMLID_5_" class="st0" d="M-112.6,397.3c-0.3-0.4,0-1.6-1.4-1.6v10.7c0,1.4,1.3,2.1,2.9,2.1c1.5,0,2.9-0.8,3.7-2
			l-0.4-0.3c-0.5,0.7-1.3,1.2-2.1,1.3c-0.5,0-0.9-0.4-0.9-0.9l0,0v-6.2c0-1.1,0.8-1.6,2.1-1.6h1.5v-0.7h-3.4
			C-111.7,398.2-112.2,398.2-112.6,397.3L-112.6,397.3z"/>
		<path id="XMLID_4_" class="st0" d="M-154.2,398.2c-1.4,0.1-2.8,0.8-3.8,1.9c-0.1-1.1-1.1-2-2.2-1.9h-0.1c-1.3,0.2-2.5,0.9-3.4,1.9
			c0.1-1-0.6-1.8-1.6-1.9h-0.1h-4.6v0.7h1.5c1,0,1.7,0.8,1.7,1.7c0,0.1,0,0.1,0,0.2v7.4h2l0.8-4.7c0.1-0.8,0.9-4,2.3-4
			c0.9,0,1.1,1.3,1.1,1.9v6.9h1.5l0.8-4.8c0.1-0.8,0.9-4,2.3-4c0.8,0,1.1,1.2,1.1,1.8v7h2.7v-7.7
			C-152.2,399.5-152.5,398.2-154.2,398.2z"/>
		<path id="XMLID_3_" class="st0" d="M-119.6,399c1,0.1,1.9,0.6,2.5,1.3l0.5-0.5c-1.1-1-2.5-1.6-4-1.6c-1.9,0-4.1,1.1-4.1,2.8
			c0,2.4,4.9,3.6,4.9,5.3c0,0.8-0.7,1.4-1.5,1.4l0,0c-0.8,0-1.5-0.3-2-0.9l-0.7,0.4c0.9,0.9,2.2,1.4,3.5,1.3c2,0,3.7-1.3,3.7-2.9
			c0-2.4-4.7-3.2-4.7-5.2C-121.5,399.5-120.4,399-119.6,399L-119.6,399z"/>
		<path id="XMLID_2_" class="st0" d="M-129.8,398.2c-1.6,0-3.2,0.7-4.4,1.8c0-0.8-0.6-1.4-1.7-1.4h-1.4v9.5h2.3l0.9-4.3
			c0.4-1.7,1.4-4.9,3.2-4.9c1.2,0,1.6,1.4,1.6,2.1v7.1h2.5v-7c0.1-1.5-1-2.8-2.6-3C-129.6,398.2-129.7,398.2-129.8,398.2
			L-129.8,398.2z"/>
		<path id="XMLID_1_" class="st0" d="M-139.8,403c-0.6-1.8-2.3-2.7-3.2-2.3c0.6,0.7,0.9,1.7,0.9,2.6c0,0.6-0.1,1.1-0.3,1.6
			c-0.4,0.9-1.3,1.5-2.3,1.4c-1.3-0.1-2.4-1.1-2.6-2.4v-0.5c0-0.1,0-0.2,0-0.3c0-2.1,1.6-3.8,3.7-4c1.2,0,2.4,0.6,3.1,1.5l0.2-0.1
			c-1.6-2.4-4.9-3-7.3-1.4c-2.4,1.6-3,4.9-1.4,7.3c1.6,2.4,4.9,3,7.3,1.4c0.8-0.5,1.4-1.2,1.8-2.1
			C-139.7,404.8-139.7,403.9-139.8,403L-139.8,403z"/>
	</g>
</g>
</svg>
