<?xml version="1.0" encoding="utf-8"?>
<!-- Generator: Adobe Illustrator 19.0.0, SVG Export Plug-In . SVG Version: 6.00 Build 0)  -->
<svg version="1.1" id="Layer_1" xmlns="http://www.w3.org/2000/svg" xmlns:xlink="http://www.w3.org/1999/xlink" x="0px" y="0px"
	 viewBox="-218 372 175 50" style="enable-background:new -218 372 175 50;" xml:space="preserve">
<style type="text/css">
	.st0{fill:#FFFFFF;}
</style>
<g transform="translate(-20 -1212.745)">
	<g transform="translate(20.005 1212.757)">
		<g transform="translate(-0.005 -0.012)">
			<path class="st0" d="M-212.1,398.4v-6.5l-2,0.9c-0.3,0.9-0.5,1.8-0.4,2.7c0.2,1.3,0.6,2.5,1.4,3.5L-212.1,398.4 M-206.3,385
				c0.7,0.1,1.3,0.3,1.8,0.8c0.6,0.6,0.8,1.5,0.5,2.3c-0.1,0.7-0.5,1.3-1.1,1.6c-0.5,0.3-1.1,0.5-1.7,0.5v3.2l1.5,1.2l-1.5,1.2v4.2
				c1.1-0.7,1.9-1.7,2.5-2.8l0.1-0.3c0.1,1-0.1,2-0.6,3c-0.5,1.1-1.3,2-2.3,2.6c-1.4,0.9-3,1.1-4.6,0.8c-1.8-0.3-3.3-1.4-4.3-3
				c-0.7-1.2-1.1-2.6-1-4c0.2-2.8,2-5.3,4.7-6.3c0.3-0.1,0.6-0.2,0.9-0.2l-0.7,0.5c-0.8,0.6-1.4,1.4-1.8,2.4l4.8-2.1v6.7l-3.9,1.8
				c0.8,0.9,1.8,1.5,2.9,1.7c1.1,0.2,2.2-0.1,3.1-0.6v-4.4l-1.5-1.2l1.5-1.2v-3.1c-0.8-0.1-1.6-0.3-2.4-0.5c-0.9-0.2-3.7-1-4.1-1.1
				c-0.5-0.1-1,0-1.4,0.3c-0.4,0.3-0.5,0.8-0.4,1.3c0.1,0.2,0.2,0.5,0.4,0.6c-0.2,0-0.3-0.1-0.5-0.2c-0.6-0.4-1-1.1-1-1.8
				c-0.1-1,0.4-2,1.2-2.6c0.7-0.5,1.7-0.7,2.6-0.6c1.4,0.2,3.3,1,5,1.4c0.5,0.2,1.1,0.2,1.6,0c0.4-0.2,0.5-0.7,0.3-1.1l0,0
				c-0.4-0.6-1.1-0.6-1.7-0.7C-207,385-206.7,385-206.3,385L-206.3,385z M-187.6,396.7l-2.2,1.6V393L-187.6,396.7 M-187.7,391.6
				l-2.5,1.5c-1,0.6-2.3,1.2-2.3,1.2v6.2l-0.9,0.7l0.1,0.1l0.9-0.7l2.7,2.4l4.7-3.7l0,0l-2.6,2l-2.1-2v-0.8l4.3-3.1L-187.7,391.6z
				 M-200,405.5c0.7-0.1,1.4-0.6,1.8-1.2c0.8-0.9,0.8-2.6,0.8-4V395l-1.3-1.6l-0.9,0.8v6.2l0.8,0.8l0.7-0.6l0.1,0.1l-3,2.4l-1.9-1.8
				l-0.7,0.5l-0.1-0.1l1.4-1.1v-11.2c0-0.4-0.2-0.8-0.6-0.9l3.4-2.6v7.9l2.7-2.3l2.1,2.3l0.9-0.7l0.1,0.1l-1,0.8v4.9l-0.1,2.3
				c0.1,1.6-0.8,3.1-2.2,3.9C-197.9,405.6-199,405.7-200,405.5 M-178.9,404.9c-1.1,0.2-2.3-0.2-2.9-1.2c-0.5-0.9-0.6-1.9-0.1-2.8
				c0.7-1.1,2-1.8,3.3-1.7v-4c0-0.3-1.3-0.1-1.4,0.4c-0.1,0.4,0.1,0.8,0.4,1c-0.3,0-0.7-0.1-0.9-0.3c-0.5-0.4-0.9-1.1-0.9-1.8
				c0.1-2,2-2.1,2.8-2.1v-2.8c-0.3-0.5-0.6-1.2-1.4-1.2s-1,1.3-1,1.3c-0.1-0.5-0.1-1,0-1.4c0.1-1.2,1.1-2.2,2.4-2.3
				c1,0,1.9,0.6,2.4,1.5l5.4,9.8v-7.7c-0.9,0-1.8-0.4-2.4-1l-0.8,1l-0.1-0.1l2.8-3.2c0.5,0.5,1.2,0.8,1.9,0.9c0.8,0,1.4-0.6,1.5-1.4
				c0.5,1.1,0.2,2.4-0.7,3.2c-0.5,0.5-1.2,0.8-1.9,0.8v13.4c0,0,0.1,0.2-0.2,0.2c-0.1,0-0.3,0-0.4-0.1l-7.3-13.3v9.4
				c1.1,0.2,2.2,0.7,2.9,1.6l0.8-0.8l0.1,0.1l-2.8,3.1c-0.5-0.7-1.3-1.1-2.1-1c-0.6,0.1-1,0.6-1.1,1.2
				C-180.6,404-180.1,404.7-178.9,404.9 M-163.4,396.7l-2.2,1.6V393L-163.4,396.7 M-163.5,391.6c0,0-1.5,0.9-2.5,1.5
				c-0.7,0.5-1.5,0.9-2.3,1.2v6.2l-0.9,0.7l0.1,0.1l0.9-0.7l2.7,2.4l4.7-3.7l-0.1-0.1l-2.6,2l-2.1-2v-0.8l4.3-3.1L-163.5,391.6z
				 M-156.9,403.1l-2.3-1.9l-1,0.7l-0.1-0.1l1-0.8v-5.3c0-2.2-2-1.7-1.9-4c0.1-0.9,0.7-1.7,1.5-2.1c0.4-0.2,0.8-0.3,1.2-0.3
				c0,0-1,0.6-0.7,1.4c0.4,1.3,2.6,1.4,2.6,3.2v6.1l1.6,1.3l0.4-0.3v-6.6l-0.9-0.9l2.3-2l2.1,1.9l-0.8,0.9v5.8l2,1.6l0.4-0.2v-7
				l-0.9-0.8l2.3-2.1l2.1,1.8l0.9-0.8l0.1,0.1l-1.9,1.7v5.8l-5,3l-2.5-2.1L-156.9,403.1 M-55.5,396.7l-2.2,1.6V393L-55.5,396.7
				 M-55.6,391.6c0,0-1.5,0.9-2.5,1.5s-2.3,1.2-2.3,1.2v6.2l-0.9,0.7l0.1,0.1l0.9-0.7l2.7,2.4l4.7-3.7l-0.1-0.1l-2.6,2l-2.1-2v-0.8
				l4.3-3.1L-55.6,391.6z M-77.7,394.3l2.9-2.5l2,2.1l2.7-2.1l2,2.1l2.8-2.2l2,2.2l1-0.8l0.1,0.1l-1,0.8v5.8l1.1,1.2l0.7-0.6
				l0.1,0.1l-2.9,2.6l-2.1-2.3l0.5-0.5v-5.1l-1.5-1.7l-0.6,0.4v6.2l0.8,0.8l-2.1,2.1l-1.9-2.2l0.5-0.6v-5.1l-1.5-1.7l-0.5,0.4v6.2
				l0.9,0.9l-2.1,2.1l-2.1-2.3l0.6-0.6V395l-1.3-1.5L-77.7,394.3L-77.7,394.3 M-83.5,394l2.7-2.3l2,2.3l0.9-0.8l0.1,0.1l-0.9,0.8
				v5.9l1.2,1.3l0.8-0.7l0.1,0.1l-2.7,2.4l-1.9-2.2l-0.9,0.7l-0.1-0.1l0.8-0.7v-5.9l-1.2-1.4l-0.8,0.6L-83.5,394 M-82.7,389.2l2-1.9
				l1.7,1.9l-2.1,1.9L-82.7,389.2 M-91.3,398.4v-6.5l-2,0.9c-0.3,0.9-0.5,1.8-0.4,2.7c0.1,1.3,0.6,2.5,1.3,3.5L-91.3,398.4
				 M-85.5,385c0.7,0.1,1.3,0.3,1.8,0.8c0.6,0.6,0.8,1.5,0.5,2.3c-0.1,0.7-0.6,1.3-1.2,1.6c-0.5,0.3-1.1,0.5-1.6,0.5v3.2l1.5,1.2
				l-1.5,1.2v4.2c1.1-0.7,1.9-1.7,2.5-2.8c0-0.1,0.1-0.2,0.1-0.3c0.1,1-0.1,2-0.6,3c-0.5,1.1-1.3,2-2.3,2.6c-1.4,0.9-3,1.2-4.6,0.8
				c-1.8-0.3-3.4-1.4-4.3-3c-0.7-1.2-1.1-2.6-1-4c0.2-2.8,2-5.3,4.7-6.3c0.3-0.1,0.6-0.2,0.8-0.2c-0.2,0.1-0.4,0.3-0.7,0.5
				c-0.8,0.6-1.4,1.4-1.8,2.4l4.8-2.1v6.7l-3.9,2c0.8,0.9,1.8,1.5,2.9,1.7c1.1,0.2,2.2-0.1,3.1-0.6V396l-1.4-1.2l1.5-1.2v-3.1
				c-0.8-0.1-1.6-0.3-2.4-0.5c-0.9-0.2-3.7-1-4.2-1.1s-1,0-1.4,0.3c-0.4,0.3-0.6,0.9-0.4,1.4c0.1,0.2,0.2,0.4,0.4,0.6
				c-0.2,0-0.3-0.1-0.5-0.2c-0.6-0.4-1-1-1-1.7c-0.1-1,0.3-2,1.2-2.6c0.7-0.5,1.6-0.8,2.5-0.6c1.4,0.2,3.3,1,5,1.4
				c0.5,0.2,1.1,0.2,1.6,0c0.4-0.2,0.5-0.7,0.3-1.1c-0.4-0.6-1.1-0.6-1.6-0.7C-86.3,385-85.9,385-85.5,385L-85.5,385z M-49.4,392.8
				v3.1l1,0.9c1.2-1,2.2-2.1,3-3.5c-0.5,0.7-1.4,1.1-2.3,0.9C-48.4,394-49,393.4-49.4,392.8 M-51.9,400.9c0.6-0.9,1.6-1.4,2.6-1.3
				c1,0.3,1.8,1,2.2,2v-3.9l-1.2-1C-49.5,398.1-51.7,399.9-51.9,400.9L-51.9,400.9z M-50.3,403.9c-1,0-1.8-0.6-2-1.6
				c-0.3-1.4,0.6-2.3,2.1-3.8L-52,397v-3c0,0,1.2-0.6,2.2-1.2c1-0.6,2-1.3,2-1.3s0.7,0.9,1.6,0.8c1.3-0.1,1.2-1.2,1.2-1.4
				c0.2,0.4,0.8,1.6-1.5,4.2l1.8,1.5v3.8c-1.4,0.8-2.8,1.6-4.2,2.6c0,0-1.2-1.4-2.1-0.7C-51.6,402.8-51.3,403.6-50.3,403.9
				L-50.3,403.9z M-124.6,399.6l2.4,2.2v-6.6l-2.4-2.2V399.6 M-119.7,394.2l0.9-0.8l0.1,0.1l-0.8,0.8v6.1c0,0-1.5,0.8-2.6,1.4
				c-1.1,0.6-2.2,1.3-2.2,1.3l-2.8-2.4l-0.8,0.6h-0.1l0.8-0.7V394c0,0,1.3-0.6,2.4-1.2l2.1-1.2L-119.7,394.2z M-114.1,393.5l1.8-1.8
				c0.1,0.1,0.3,0.2,0.5,0.3c0.4,0.2,0.8,0.2,1.2,0.1c0.2-0.1,0.4-0.3,0.6-0.5c0.1,1.2-0.4,2.3-1.5,2.8c-0.3,0.2-1.4,0.5-2.4-0.8
				v6.6l1.2,1l0.9-0.8l0.1,0.1l-3,2.5l-2.3-2.1l-0.8,0.8l-0.1-0.1l1.2-1.2v-5.6l-0.9-1.3l-0.8,0.7l-0.1-0.1l2.9-2.6L-114.1,393.5
				 M-106.6,396.3l3.3-4.8c0.3,0.3,0.7,0.6,1.2,0.7c0.7,0.1,1.5-0.2,1.9-0.7c-0.2,1.3-0.8,2.8-2.2,3c-0.8,0.1-1.7-0.2-2.3-0.7
				l-0.2,0.3l4.6,6.9l0.9-0.8l0.1,0.1l-3.1,2.7L-106.6,396.3 M-109.3,389.8c0-1-0.4-1.7-1-1.6l3.6-2.5V400l1,1l0.7-0.6l0.1,0.1
				l-2.9,2.6l-2-1.9l-0.8,0.7l-0.1-0.1l1.4-1.2L-109.3,389.8 M-132.5,393.9c-0.5,0.6-1.4,0.6-2,0.1l-0.1-0.1v2
				c0.3-0.3,0.6-0.5,1-0.5c0.4,0,0.8,0.2,1,0.4L-132.5,393.9 M-132.5,389.7l-1.4-1.2l-0.7,0.5v4.6c0.3,0.3,0.6,0.5,1,0.5
				c0.4,0,0.8-0.2,1-0.5L-132.5,389.7z M-134.6,402.8c0.5,0.1,1,0,1.5-0.3c0.4-0.3,0.6-0.8,0.6-1.4v-5c-0.3-0.3-0.6-0.5-1-0.5
				c-0.4,0-0.8,0.2-1,0.5L-134.6,402.8L-134.6,402.8z M-139.6,389.6c0-1-0.4-1.5-1-1.5c-0.9,0-1.2,1.3-1.2,1.3
				c-0.1-0.7,0.2-1.4,0.7-1.9c0.7-0.8,1.7-1.1,2.7-0.9c1.1,0.2,1.9,1.3,1.8,2.4v13.3c0,0,0.5,0.1,0.9,0.1c0.4,0,0.8,0.2,0.8,0.2
				v-16.1h0.2v2.2l2.9-2.3l2.1,1.9l1-0.9l0.1,0.1l-1,0.9v12.4c0.1,0.8-0.3,1.6-0.9,2.1c-1.7,1-3.8-0.1-5.6-0.4
				c-1.4-0.2-3.5-0.5-4,0.8c-0.2,0.5,0,1.2,0.5,1.5c1.2,0.8,6.8-1.4,8.7-0.5c1.2,0.4,1.9,1.7,1.5,2.9l0,0c-0.5,1.6-2.6,2-2.6,2
				c0.6-0.3,0.8-0.9,0.7-1.6c-0.2-0.5-0.5-0.6-1.6-0.5c-2.3,0.3-5.2,1.4-7.1,0.6c-1.1-0.5-1.7-1.7-1.6-2.8c0-1.7,2-2.4,2-2.4V396
				c0-0.3-1.2-0.2-1.4,0.3c-0.2,0.4,0,0.8,0.3,1h0.1c-0.5,0-0.9-0.2-1.2-0.5c-0.6-0.7-0.6-1.7-0.1-2.4c0.5-0.7,1.4-1.1,2.2-1.1
				L-139.6,389.6z"/>
		</g>
	</g>
</g>
</svg>
