<?xml version="1.0" encoding="utf-8"?>
<!-- Generator: Adobe Illustrator 19.0.0, SVG Export Plug-In . SVG Version: 6.00 Build 0)  -->
<svg version="1.1" id="Layer_1" xmlns="http://www.w3.org/2000/svg" xmlns:xlink="http://www.w3.org/1999/xlink" x="0px" y="0px"
	 viewBox="-218 372 175 50" style="enable-background:new -218 372 175 50;" xml:space="preserve">
<style type="text/css">
	.st0{fill:#FFFFFF;}
</style>
<g id="XMLID_1_">
	<path class="st0" d="M-207.6,379.5h6.6c3.7,0,5,0.3,6.6,2.3c0.9,1,1.4,2.3,1.3,3.7c0.1,1.8-1,3.4-2.7,4c2.3,0.7,3.8,2.9,3.7,5.3
		c0,1.8-0.7,3.5-2,4.7c-2,1.7-3,2-6.6,2h-6.9V379.5z M-202,387.8h1.7c0.7,0,2,0,2-1.7c0-1.7-1.4-1.7-2-1.7h-1.7V387.8z M-202,396.5
		h2.3c0.7,0,2.3,0,2.3-2s-1.7-2-2.3-2h-2.3V396.5z"/>
	<path id="XMLID_25_" class="st0" d="M-190.7,379.5h5v21.9h-5V379.5z"/>
	<path class="st0" d="M-175.4,384.5c6,0,8.6,4.7,8.6,8.6s-2.7,9-8.6,9c-4.9,0-8.9-3.9-9-8.8v-0.1c0-4.8,3.8-8.7,8.6-8.7
		C-175.6,384.5-175.5,384.5-175.4,384.5z M-175.4,397.5c2,0,3.7-1.7,3.7-4.3c0.1-2.1-1.5-3.9-3.6-4h-0.1c-2.1-0.1-3.9,1.6-4,3.7
		c0,0.1,0,0.2,0,0.3C-179.4,395.8-177.7,397.5-175.4,397.5z"/>
	<path class="st0" d="M-156.8,384.5c4.8-0.2,8.8,3.5,9,8.3c0,0.1,0,0.2,0,0.4c0,5-4,9-9,9s-9-4-9-9l0,0c0-4.8,3.8-8.6,8.6-8.7
		C-157,384.5-156.9,384.5-156.8,384.5z M-156.8,397.5c2.3-0.1,4.1-2,4-4.3l0,0c0.1-2.2-1.6-4.1-3.8-4.2c-2.2-0.1-4.1,1.6-4.2,3.8
		c0,0.1,0,0.2,0,0.4C-160.8,395.4-159.1,397.4-156.8,397.5L-156.8,397.5z"/>
	<path id="XMLID_20_" class="st0" d="M-146.8,385.2h4.7v1.7c0.3-0.7,1.7-2.3,4.7-2.3c2,0.1,3.8,1.2,4.7,3c1.1-1.9,3.1-3.1,5.3-3
		c1.6,0,3.1,0.6,4.3,1.7c1.3,1.7,1.7,2.7,1.7,6.3v9h-5V393c0-1.3,0-3.7-2.3-3.7c-3,0-3,2.3-3,3.3v9h-4.7v-9c0-0.7,0-3.3-2.7-3.3
		s-2.7,2.7-2.7,3.7v8.6h-5V385.2L-146.8,385.2z"/>
	<path class="st0" d="M-119.5,379.5h5v7c1.2-1.3,2.9-2.1,4.7-2c3.7,0,8.3,2.3,8.3,8.6c0,6-4.3,9-8.3,9c-1.8,0-3.6-0.9-4.7-2.3h-0.3
		v1.7h-4.7V379.5z M-110.6,397.5c2.3-0.1,4.1-2,4-4.3l0,0c0-2.2-1.8-4-4-4c-2.1-0.1-3.9,1.6-4,3.7c0,0.1,0,0.2,0,0.3
		C-114.6,395.5-113.2,397.5-110.6,397.5z"/>
	<path class="st0" d="M-83.3,396.5c-0.8,1.5-2,2.9-3.3,4c-3.8,2.8-9.2,2-12-1.8c-1.2-1.6-1.8-3.5-1.7-5.5c0.1-4.7,3.9-8.6,8.6-8.7
		c4.8,0,8.7,3.9,8.6,8.7c0,0.1,0,0.2,0,0.3v1.3h-12.3c0.3,1.8,1.9,3.1,3.7,3c1.1,0.1,2.3-0.4,3-1.3H-83.3z M-87.6,391.5
		c-0.5-1.8-2.1-3-4-3c-1.7,0.1-3.2,1.3-3.7,3H-87.6z"/>
	<path id="XMLID_15_" class="st0" d="M-81,385.2h4.7v1.7c0.7-0.3,2.7-2,4.7-1.7v4.7c-2,0-4.3,0-4.3,2.7v9h-5L-81,385.2L-81,385.2z"
		/>
	<path class="st0" d="M-53.1,399.5c0,2.3-0.3,5.6-1,7c-1.9,2.6-5.1,3.9-8.3,3.3c-5.7-0.3-7.3-3-7.6-5.6h5.3c0.4,1.1,1.5,1.7,2.7,1.7
		c2.7,0,4-0.3,4-5.7v-0.3c-1.1,1.4-2.8,2.3-4.7,2.3c-4.7-0.1-8.4-4-8.3-8.6c0-5.6,4-9,8.3-9c1.8-0.1,3.5,0.6,4.7,2v-1.3h5
		L-53.1,399.5L-53.1,399.5z M-62,397.5c2.1,0.1,3.9-1.6,4-3.7c0-0.1,0-0.2,0-0.3c0-2.7-1.7-4.3-4-4.3c-2.2,0-4,1.8-4,4
		C-66.1,395.5-64.4,397.4-62,397.5C-62.1,397.5-62,397.5-62,397.5z"/>
	<path id="XMLID_12_" class="st0" d="M-203.3,414.1h-2.3v-7.6h-2.3v-2.3h7v2.3h-2.3v7.6H-203.3z"/>
	<path id="XMLID_11_" class="st0" d="M-191.3,406.5v1.7h3v2h-3v1.7h3v2.3h-5.7v-10h5.7v2.3H-191.3z"/>
	<path id="XMLID_10_" class="st0" d="M-178,411.8h3v2.3h-5.3v-10h2.3V411.8z"/>
	<path id="XMLID_9_" class="st0" d="M-165.4,406.5v1.7h3v2h-3v1.7h3v2.3h-5.3v-10h5.3v2.3H-165.4z"/>
	<path id="XMLID_8_" class="st0" d="M-150.4,410.1l2.7-6h2.7l-4.3,10h-2l-4-10h2.7L-150.4,410.1z"/>
	<path id="XMLID_7_" class="st0" d="M-138.1,404.1h2.3v10h-2.3V404.1z"/>
	<path id="XMLID_6_" class="st0" d="M-122.5,406.8c-0.5-0.4-1-0.6-1.7-0.7c-0.3,0-1,0.3-1,0.7c0,0.5,0.5,1,1,1l0.7,0.3
		c1.3,0.3,2.7,1,2.7,2.7c0.1,1.1-0.4,2.1-1.3,2.7c-0.8,0.6-1.7,0.8-2.7,0.7c-1.2,0-2.3-0.3-3.3-1l1-2c0.6,0.7,1.4,1,2.3,1
		c0.7,0,1.3-0.3,1.3-1c0-0.7-1-1-1.7-1c-1.7-0.7-2.7-1-2.7-3s1.3-3,3.3-3c1,0,2.3,0,3,0.7L-122.5,406.8L-122.5,406.8z"/>
	<path id="XMLID_5_" class="st0" d="M-113.6,404.1h2.3v10h-2.3V404.1z"/>
	<path class="st0" d="M-92.9,408.8c0.1,3-2.2,5.5-5.2,5.6c-0.2,0-0.3,0-0.5,0c-2.9,0-5.3-2.4-5.3-5.3c0-0.1,0-0.2,0-0.3
		c0-2.7,2.7-5,5.3-5C-95.6,403.8-92.9,406.2-92.9,408.8z M-101.2,408.8c-0.2,1.5,0.9,2.8,2.4,3c0.1,0,0.2,0,0.2,0
		c1.5,0.1,2.9-1,3-2.6c0-0.1,0-0.3,0-0.4c0-1.3-1.3-2.3-3-2.3C-99.9,406.4-101.1,407.4-101.2,408.8L-101.2,408.8z"/>
	<path id="XMLID_2_" class="st0" d="M-85.6,404.1h2.3l4.7,6v-6h2.7v10h-2.7l-4.7-6v6h-2.3V404.1z"/>
</g>
</svg>
