<?xml version="1.0" encoding="utf-8"?>
<!-- Generator: Adobe Illustrator 19.0.0, SVG Export Plug-In . SVG Version: 6.00 Build 0)  -->
<svg version="1.1" id="Layer_1" xmlns="http://www.w3.org/2000/svg" xmlns:xlink="http://www.w3.org/1999/xlink" x="0px" y="0px"
	 viewBox="-218 372 175 50" style="enable-background:new -218 372 175 50;" xml:space="preserve">
<style type="text/css">
	.st0{fill:#FFFFFF;}
</style>
<g id="XMLID_2_">
	<g id="XMLID_3_" transform="translate(0 20.408)">
		<path id="XMLID_28_" class="st0" d="M-200.4,360c-0.1,2-0.2,3.9-0.3,6l-3-0.1l-0.2-3.7h-4.6v8.8h2c0.2-0.6,0.3-1.3,0.5-1.9h2v6.1
			h-2c-0.2-0.7-0.3-1.3-0.5-2h-2v9.3h4.6c0.1-1.3,0.3-2.7,0.4-4.1l3.1,0.1c0.1,2.1,0.2,4.1,0.2,6.2h-15.1v-2.2l2.1-0.4v-19.7
			l-2.3-0.3V360H-200.4z"/>
		<path id="XMLID_25_" class="st0" d="M-146.8,393.2c0-0.6,0.1-1.1,0.1-1.7l1.6-0.3V370l-1.9-0.3v-1.8l5-0.7
			c0.2,0.7,0.3,1.3,0.5,1.9c0.1-0.1,0.1-0.1,0.2-0.2c1.1-1.3,2.9-2,4.6-1.7c2.1,0.2,3.7,1.7,4.2,3.7c0.3,0.9,0.5,1.9,0.5,2.8
			c0.2,2,0.1,3.9-0.2,5.9c-0.1,0.7-0.3,1.4-0.6,2.1c-0.8,1.9-2.6,3.2-4.7,3.3c-1.1,0.1-2.2,0-3.3-0.5c-0.1,0-0.2-0.1-0.2-0.1v6.6
			l1.7,0.3c0,0.6-0.1,1.1-0.1,1.7L-146.8,393.2z M-140.9,382.1c1.3,0.6,2.7,0.6,4,0.1c0.2-0.1,0.4-0.3,0.5-0.5
			c0.2-0.7,0.3-1.3,0.4-2c0.3-2,0.3-4.1,0.1-6.1c0-0.7-0.2-1.4-0.4-2c-0.3-1.3-1.5-2-2.8-1.8c-0.1,0-0.1,0-0.2,0h-0.2
			c-0.8,0.2-1.5,1-1.4,1.9V382.1L-140.9,382.1z"/>
		<path id="XMLID_24_" class="st0" d="M-90.6,382.6l1.8,0.4l-0.1,1.8h-5.8v-11.9c0-0.5-0.1-1-0.3-1.5c-0.2-0.6-0.7-1-1.3-1.1
			c-0.6-0.1-1.2-0.1-1.7,0.1c-0.5,0.2-0.8,0.6-0.9,1.1v10.9c0,0.1,0,0.1,0,0.2l1.7,0.3c0,0.6-0.1,1.2-0.1,1.8h-7.5V383l1.7-0.3
			v-12.6l-1.9-0.2v-1.8l4.9-0.7c0.2,0.5,0.3,1.1,0.4,1.6c0.4-0.3,0.8-0.6,1.2-0.9c1.5-1,3.4-1.2,5.2-0.6c1.4,0.5,2.4,1.8,2.6,3.3
			c0.1,0.4,0.1,0.9,0.1,1.3L-90.6,382.6L-90.6,382.6z"/>
		<path id="XMLID_23_" class="st0" d="M-192.8,382.6l1.7,0.3c0,0.6-0.1,1.2-0.1,1.8h-7.5c0-0.6,0.1-1.1,0.1-1.8l1.6-0.3
			c0.1-0.4,0.1-11.8,0-12.5l-1.9-0.2v-1.8l4.9-0.7c0.1,0.5,0.3,1.1,0.4,1.6l0.5-0.4c1.5-1.3,3.5-1.8,5.3-1.2c1.6,0.3,2.8,1.7,3,3.3
			c0.1,0.4,0.1,0.9,0.1,1.4v10.6l1.8,0.3v1.8h-5.8v-11.5c0-0.4,0-0.9-0.1-1.3c-0.1-0.9-0.8-1.7-1.8-1.7c-0.7-0.2-1.5,0.1-2,0.6
			c-0.2,0.2-0.3,0.5-0.3,0.9V382L-192.8,382.6L-192.8,382.6z"/>
		<path id="XMLID_22_" class="st0" d="M-64.2,369.7l-1.9-0.2v-1.6l5.6-0.6c0.3,0.7,0.4,1.3,0.5,2.1v13.3l1.7,0.4
			c-0.1,0.6-0.1,1.2-0.2,1.8h-4.8c-0.1-0.4-0.3-0.9-0.5-1.4l-0.4,0.3c-1.7,1.5-4.2,1.8-6.3,0.8c-1.2-0.6-2.1-1.8-2.3-3.1
			c-0.1-0.5-0.1-0.9-0.1-1.4v-10.4l-1.9-0.2v-1.6l5.6-0.6c0.2,0.6,0.4,1.2,0.4,1.9v10c0,0.5,0,0.9,0.1,1.4c0.1,1.1,1,2,2.2,2
			c0.4,0,0.9-0.1,1.3-0.2c0.6-0.2,0.9-0.8,1-1.4v-11C-64.1,369.8-64.1,369.7-64.2,369.7L-64.2,369.7z"/>
		<path id="XMLID_19_" class="st0" d="M-156.1,377.2c-0.1,1.3,0.3,2.6,1,3.8c0.6,1,1.7,1.5,2.8,1.5c1.1,0,2.2-0.2,3.2-0.7l0.5-0.2
			c0.2,0.5,0.5,1,0.7,1.6c-0.3,0.2-0.6,0.4-0.9,0.6c-2,1.2-4.4,1.5-6.6,0.8c-1.8-0.6-3.3-1.9-4-3.7c-0.9-1.9-1.2-4.1-1-6.2
			c0.1-1.3,0.4-2.6,0.9-3.8c0.8-1.9,2.5-3.3,4.5-3.7c2-0.6,4,0,5.5,1.4c0.9,0.9,1.5,2,1.8,3.3c0.3,1.3,0.5,2.6,0.5,3.9
			c-0.1,0.4-0.2,0.9-0.4,1.3L-156.1,377.2z M-151,375c0-0.5,0-1-0.1-1.4c-0.1-1-0.4-2-0.8-2.9c-0.4-0.9-1.5-1.4-2.5-1
			c-0.4,0.1-0.7,0.4-0.9,0.8c-0.5,1.4-0.9,2.9-0.9,4.3c0,0.1,0,0.2,0.1,0.3L-151,375z"/>
		<path id="XMLID_16_" class="st0" d="M-75.4,377.1l-8.5,0.1c0,0.6,0,1.2,0.1,1.8c0.2,0.9,0.6,1.7,1.1,2.3c0.6,0.7,1.5,1.2,2.4,1.2
			c1.1,0,2.2-0.2,3.1-0.6l0.7-0.3c0.2,0.5,0.4,1,0.7,1.6l-0.3,0.2c-1.7,1.2-3.9,1.8-6,1.5c-2.5-0.2-4.6-1.9-5.4-4.3
			c-1.2-3-1.2-6.5,0.1-9.5c0.7-2,2.4-3.5,4.5-3.9c1.7-0.5,3.4-0.2,4.9,0.8c1,0.7,1.8,1.8,2.2,3c0.6,1.5,0.8,3.1,0.8,4.7
			C-75.1,376.2-75.2,376.7-75.4,377.1z M-78.8,375c0-1.1-0.2-2.3-0.5-3.4c-0.2-0.5-0.4-1-0.8-1.5c-0.7-0.9-2.8-0.7-3.1,0.5
			c-0.3,0.9-0.6,1.9-0.7,2.9c-0.1,0.6-0.1,1.1-0.1,1.7L-78.8,375z"/>
		<path id="XMLID_13_" class="st0" d="M-105.7,377.1l-8.5,0.1c-0.1,1.5,0.3,2.9,1.2,4.1c0.6,0.7,1.5,1.2,2.4,1.2
			c1.1,0.1,2.2-0.1,3.2-0.6l0.7-0.3l0.7,1.6c-0.2,0.1-0.4,0.3-0.6,0.4c-1.9,1.2-4.2,1.7-6.3,1.2c-2-0.4-3.7-1.8-4.5-3.6
			c-0.9-1.9-1.3-4-1.1-6.1c0.1-1.4,0.4-2.8,1-4.1c0.6-1.5,1.8-2.7,3.4-3.4c1.8-0.8,3.9-0.8,5.6,0.2c1.1,0.7,2,1.7,2.5,2.9
			c0.6,1.6,0.9,3.3,0.9,5C-105.4,376.2-105.5,376.7-105.7,377.1L-105.7,377.1z M-109.1,375c0-0.5-0.1-1.1-0.1-1.6
			c-0.1-0.9-0.4-1.9-0.8-2.7c-0.4-1-1.6-1.4-2.6-1h-0.1c-0.3,0.1-0.5,0.3-0.6,0.6c-0.5,1.1-0.8,2.3-0.9,3.5c0,0.4-0.1,0.9-0.1,1.4
			L-109.1,375z"/>
		<path id="XMLID_12_" class="st0" d="M-167.4,367.4l0.4,1.6l0.6-0.4c1.2-0.6,2.5-1,3.9-1.1c0.6-0.1,1.2,0.2,1.5,0.7
			c-0.2,1.5-0.3,3-0.5,4.6l-2.8-0.1c-0.1-0.9-0.2-1.6-0.3-2.5c-0.6,0-1.3,0.3-1.8,0.6v11.8l1.7,0.4c0,0.6-0.1,1.1-0.1,1.7h-7.4V383
			l1.6-0.4v-12.5l-1.8-0.2v-1.8L-167.4,367.4z"/>
		<path id="XMLID_11_" class="st0" d="M-57.2,384.7c0-0.6,0-1.2,0.1-1.8l1.5-0.4v-12.4l-1.8-0.2v-1.8l5.1-0.7l0.4,1.5
			c0.7-0.4,1.4-0.7,2.1-1c0.7-0.2,1.5-0.4,2.3-0.5c0.6-0.2,1.3,0.1,1.6,0.7c-0.2,1.5-0.3,3-0.5,4.6l-2.8-0.1
			c-0.1-0.8-0.2-1.7-0.3-2.6l-1.7,0.6v12l1.7,0.4c0,0.6-0.1,1.1-0.1,1.8L-57.2,384.7z"/>
		<path id="XMLID_10_" class="st0" d="M-122.8,370l-1.8,0.7v12l1.8,0.4l-0.1,1.7h-7.4V383l1.6-0.4v-12.5l-1.8-0.2v-1.8l5-0.7
			c0.1,0.5,0.3,1,0.4,1.5c0.5-0.3,1-0.5,1.5-0.8c0.9-0.4,1.9-0.6,2.9-0.7c0.6-0.1,1.3,0.1,1.6,0.7c-0.2,1.5-0.3,3-0.5,4.6l-2.8-0.1
			C-122.5,371.8-122.6,371-122.8,370L-122.8,370z"/>
		<path id="XMLID_9_" class="st0" d="M-176.9,364.1v3.5h3.1c-0.1,0.8-0.1,1.5-0.2,2.3l-2.8,0.3c0,0.1,0,0.3-0.1,0.4v10.1
			c0,0.2,0,0.5,0,0.7c0.1,0.7,0.6,1.1,1.3,1.1h1.8l0.2,1.8c-0.4,0.3-0.9,0.4-1.4,0.5c-1,0.2-2.1,0.3-3.2,0.1c-1.5-0.2-2.7-1.4-2.9-3
			v-11.1c0-0.2,0-0.4,0-0.6l-1.9-0.3c0-0.7,0.1-1.4,0.1-2.1l2.2-0.1l1-3.3L-176.9,364.1z"/>
		<path id="XMLID_4_" class="st0" d="M-45.5,383.7c0.1,0.8-0.4,1.6-1.2,1.7s-1.6-0.4-1.7-1.2c-0.1-0.8,0.4-1.6,1.2-1.7
			c0.1,0,0.2,0,0.3,0C-46.2,382.4-45.6,383-45.5,383.7z M-48,383.7c-0.1,0.6,0.3,1.1,0.9,1.1c0.6,0.1,1.1-0.3,1.1-0.9
			s-0.3-1.1-0.9-1.1H-47C-47.5,382.8-47.9,383.2-48,383.7z M-47.2,384.3h-0.4v-1.1c0.2,0,0.4,0,0.6,0c0.2,0,0.4,0,0.5,0.1
			c0.1,0.1,0.1,0.1,0.1,0.2s-0.1,0.2-0.3,0.3c0.1,0,0.2,0.2,0.3,0.3c0,0.1,0,0.2,0.1,0.3h-0.4c-0.1-0.1-0.1-0.2-0.1-0.2
			c0-0.1-0.1-0.2-0.2-0.2h-0.1L-47.2,384.3z M-47.2,383.6h0.1c0.1,0,0.2-0.1,0.2-0.1s-0.1-0.1-0.2-0.1h-0.1V383.6z"/>
	</g>
</g>
</svg>
