<svg xmlns="http://www.w3.org/2000/svg" xmlns:xlink="http://www.w3.org/1999/xlink" width="30" height="30" viewBox="0 0 30 30"><defs><style>.a,.c{fill:#fff;}.a{stroke:#707070;}.b{clip-path:url(#a);}</style><clipPath id="a"><rect class="a" width="30" height="30"/></clipPath></defs><g class="b"><g transform="translate(0 0)"><path class="c" d="M12.509,13.533l6.375,3.623-6.375,3.623ZM30,5.357V28.929a3.215,3.215,0,0,1-3.214,3.214H3.214A3.215,3.215,0,0,1,0,28.929V5.357A3.215,3.215,0,0,1,3.214,2.143H26.786A3.215,3.215,0,0,1,30,5.357ZM27.188,17.163a32.177,32.177,0,0,0-.509-5.906,3.057,3.057,0,0,0-2.156-2.17C22.627,8.571,15,8.571,15,8.571s-7.627,0-9.522.516a3.057,3.057,0,0,0-2.156,2.17,32.137,32.137,0,0,0-.509,5.906,32.177,32.177,0,0,0,.509,5.906,3.013,3.013,0,0,0,2.156,2.136c1.9.509,9.522.509,9.522.509s7.627,0,9.522-.516a3.013,3.013,0,0,0,2.156-2.136,32.078,32.078,0,0,0,.509-5.9Z" transform="translate(0 -2.143)"/></g></g></svg>