<svg xmlns="http://www.w3.org/2000/svg" xmlns:xlink="http://www.w3.org/1999/xlink" width="30" height="30" viewBox="0 0 30 30"><defs><style>.a,.c{fill:#fff;}.a{stroke:#707070;}.b{clip-path:url(#a);}</style><clipPath id="a"><rect class="a" width="30" height="30"/></clipPath></defs><g class="b"><g transform="translate(0 0)"><path class="c" d="M26.786,2.143H3.214A3.215,3.215,0,0,0,0,5.357V28.929a3.215,3.215,0,0,0,3.214,3.214H26.786A3.215,3.215,0,0,0,30,28.929V5.357A3.215,3.215,0,0,0,26.786,2.143ZM23.511,12.777c.013.188.013.382.013.569a12.41,12.41,0,0,1-12.5,12.5,12.438,12.438,0,0,1-6.743-1.969,9.252,9.252,0,0,0,1.058.054,8.805,8.805,0,0,0,5.451-1.875A4.4,4.4,0,0,1,6.69,19a4.733,4.733,0,0,0,1.982-.08,4.392,4.392,0,0,1-3.516-4.312v-.054a4.389,4.389,0,0,0,1.982.556,4.383,4.383,0,0,1-1.955-3.656,4.337,4.337,0,0,1,.6-2.217,12.47,12.47,0,0,0,9.054,4.594,4.4,4.4,0,0,1,7.493-4.011,8.606,8.606,0,0,0,2.786-1.058,4.38,4.38,0,0,1-1.929,2.417,8.74,8.74,0,0,0,2.531-.683A9.244,9.244,0,0,1,23.511,12.777Z" transform="translate(0 -2.143)"/></g></g></svg>