<svg xmlns="http://www.w3.org/2000/svg" xmlns:xlink="http://www.w3.org/1999/xlink" width="30" height="30" viewBox="0 0 30 30"><defs><style>.a,.c{fill:#fff;}.a{stroke:#707070;}.b{clip-path:url(#a);}</style><clipPath id="a"><rect class="a" width="30" height="30"/></clipPath></defs><g class="b"><g transform="translate(0 0)"><path class="c" d="M26.786,2.143H3.214A3.214,3.214,0,0,0,0,5.357V28.929a3.214,3.214,0,0,0,3.214,3.214h9.191v-10.2H8.186v-4.8h4.219V13.484c0-4.162,2.478-6.461,6.273-6.461a25.558,25.558,0,0,1,3.718.324v4.085H20.3a2.4,2.4,0,0,0-2.707,2.594v3.117H22.2l-.737,4.8H17.595v10.2h9.191A3.214,3.214,0,0,0,30,28.929V5.357a3.214,3.214,0,0,0-3.214-3.214Z" transform="translate(0 -2.143)"/></g></g></svg>