<svg xmlns="http://www.w3.org/2000/svg" width="587" height="502.772" viewBox="0 0 587 502.772">
  <g id="Group_1907" data-name="Group 1907" transform="translate(-108.863 -97.212)">
    <g id="background" transform="translate(108.863 516.11)">
      <ellipse id="Ellipse_490" data-name="Ellipse 490" cx="293.5" cy="41.937" rx="293.5" ry="41.937" fill="#b3dee5"/>
    </g>
    <g id="Info" transform="translate(154.934 188.596)">
      <g id="Group_1866" data-name="Group 1866" transform="translate(18.169 85.075)">
        <path id="Path_8047" data-name="Path 8047" d="M303.689,485.194l-18.735-8.842a1.551,1.551,0,0,0-1.017-.106l-37.77,8.919a8.076,8.076,0,0,1-9.735-5.782l-7.8-31.355a7.845,7.845,0,0,1,5.936-9.483l54.035-12.76a8.076,8.076,0,0,1,9.735,5.782l8.161,32.789a6.312,6.312,0,0,1-2.719,6.8,1.463,1.463,0,0,0-.637,1.577l2.684,10.783A1.5,1.5,0,0,1,303.689,485.194Zm-68.114-42.589a3.673,3.673,0,0,0-2.779,4.44l7.8,31.355a3.781,3.781,0,0,0,4.558,2.707l39.265-9.272a1.551,1.551,0,0,1,1.017.106l11.942,5.636a1.5,1.5,0,0,0,2.133-1.676l-1.437-5.773a1.474,1.474,0,0,1,1.115-1.782h0a3.672,3.672,0,0,0,2.778-4.438l-7.8-31.355a3.781,3.781,0,0,0-4.558-2.707Z" transform="translate(-228.399 -425.563)" fill="#b3dee5"/>
      </g>
      <path id="Path_8048" data-name="Path 8048" d="M194.591,268.979v14.129a1.744,1.744,0,0,0,1.766,1.721h.355V290l6.441-5.168h16.727a1.744,1.744,0,0,0,1.766-1.721V268.979a1.744,1.744,0,0,0-1.766-1.721H196.357A1.744,1.744,0,0,0,194.591,268.979Z" transform="translate(-194.591 -267.258)" fill="#b3dee5"/>
      <g id="Group_1867" data-name="Group 1867" transform="translate(5.82 169.618)">
        <path id="Path_8049" data-name="Path 8049" d="M236.166,612.037l-8.718-7H208.39a2.936,2.936,0,0,1-2.97-2.893V585.772a2.936,2.936,0,0,1,2.97-2.893h27.266a2.936,2.936,0,0,1,2.97,2.893v16.376a2.921,2.921,0,0,1-2.46,2.851ZM208.39,584.676a1.112,1.112,0,0,0-1.125,1.1v16.376a1.112,1.112,0,0,0,1.125,1.1h19.72l6.212,4.984v-4.984h1.334a1.113,1.113,0,0,0,1.125-1.1V585.772a1.113,1.113,0,0,0-1.125-1.1Z" transform="translate(-205.42 -582.879)" fill="#b3dee5"/>
      </g>
      <g id="Group_1868" data-name="Group 1868" transform="translate(5.363 44.71)">
        <path id="Path_8050" data-name="Path 8050" d="M274.971,389.318l-7.625-1.888,5.495-2.519Z" transform="translate(-233.61 -366.393)" fill="#b3dee5"/>
        <path id="Path_8051" data-name="Path 8051" d="M244.718,370.73,214.694,384.5a.621.621,0,0,1-.817-.287l-9.248-19.136a.592.592,0,0,1,.294-.8l30.024-13.766a.622.622,0,0,1,.818.286l9.247,19.137A.591.591,0,0,1,244.718,370.73Z" transform="translate(-204.57 -350.454)" fill="#b3dee5"/>
      </g>
      <g id="Group_1869" data-name="Group 1869" transform="translate(372.784 106.399)">
        <path id="Path_8052" data-name="Path 8052" d="M896.137,505.805l-.185-2.131c-.541-4.427.937-9.278,5.109-14.233,3.755-4.377,5.835-7.593,5.806-11.285-.033-4.184-2.751-6.953-8.058-6.995a15.243,15.243,0,0,0-8.486,2.608l-2.063-5.153c2.764-1.99,7.554-3.339,12.018-3.373,9.686-.074,14.112,5.718,14.162,11.954.045,5.578-3.124,9.623-7.129,14.33-3.672,4.294-4.99,7.914-4.7,12.1l.1,2.132Zm-1.761,11.5a4.908,4.908,0,0,1,5.012-5.207,5.129,5.129,0,1,1-5.012,5.207Z" transform="translate(-888.259 -465.243)" fill="#b3dee5"/>
      </g>
      <g id="Group_1870" data-name="Group 1870" transform="translate(451.464 126.122)">
        <path id="Path_8053" data-name="Path 8053" d="M1046.106,549.791l-1.69-7.214a.989.989,0,0,0-.845-.753,4.265,4.265,0,0,1-3.627-3.256l-5.138-21.936a5.245,5.245,0,0,1,3.91-6.3l35.214-8.247a5.244,5.244,0,0,1,6.3,3.91l4.913,20.977a5.244,5.244,0,0,1-3.91,6.3l-24.614,5.765a.98.98,0,0,0-.559.362l-8.214,10.766A.985.985,0,0,1,1046.106,549.791Zm-6.753-36.746a2.456,2.456,0,0,0-1.831,2.951l4.913,20.977a2.456,2.456,0,0,0,2.95,1.83h0a.985.985,0,0,1,1.184.735l.9,3.862a.985.985,0,0,0,1.743.373l5.236-6.863a.985.985,0,0,1,.558-.362l25.588-5.993a2.455,2.455,0,0,0,1.831-2.95l-4.913-20.977a2.456,2.456,0,0,0-2.951-1.831Z" transform="translate(-1034.667 -501.943)" fill="#b3dee5"/>
      </g>
      <path id="Path_8054" data-name="Path 8054" d="M1057.281,372.893l4.255,8.421a1.149,1.149,0,0,1-.507,1.544l-.206.1,1.556,3.08-5.3-1.19-9.711,4.907a1.148,1.148,0,0,1-1.544-.507l-4.255-8.421a1.149,1.149,0,0,1,.507-1.544l13.657-6.9A1.149,1.149,0,0,1,1057.281,372.893Z" transform="translate(-586.34 -315.832)" fill="#b3dee5"/>
      <g id="Group_1871" data-name="Group 1871" transform="translate(467.656 97.231)">
        <path id="Path_8055" data-name="Path 8055" d="M1066.411,477.791l3.858-3.362-3.949.111Z" transform="translate(-1065.5 -460.324)" fill="#b3dee5"/>
        <rect id="Rectangle_805" data-name="Rectangle 805" width="22.385" height="14.923" rx="0.82" transform="translate(22.793 14.917) rotate(178.398)" fill="#b3dee5"/>
      </g>
    </g>
    <g id="rocket" transform="translate(275.544 97.212)">
      <g id="Group_1873" data-name="Group 1873" transform="translate(0 113.361)">
        <g id="Group_1872" data-name="Group 1872">
          <path id="Path_8056" data-name="Path 8056" d="M648.4,621.356l1.024,96.714,27.1,15.937,9.315,5.468,59.826,35.176-1.024-96.714L695,648.748,679.423,639.6Z" transform="translate(-525.129 -453.037)" fill="#19c6d8"/>
          <path id="Path_8057" data-name="Path 8057" d="M514.043,621.916l-23.212,14.313-22.787,14.058-49.022,30.241,1.024,96.714L479.115,740.8l15.493-9.556,20.459-12.617Z" transform="translate(-419.021 -453.296)" fill="#19c6d8"/>
          <path id="Path_8058" data-name="Path 8058" d="M629.249,503.866a764.565,764.565,0,0,1-9.159,90.722c-.046.3-.093.6-.146.9-2.394,14.212-5.172,27.306-8.266,39.045-.02.059-.033.112-.053.172l-1.805.013L603,634.8v-.007l-2.109.027-5.86.059h-.264l-.006.007-39.3.417-9.8.106-6.13.066-2.11.026-8.63.086c-.013-.06-.033-.119-.046-.178-3.346-11.673-6.4-24.694-9.1-38.847v-.013c-.06-.291-.113-.589-.166-.886A763.415,763.415,0,0,1,508.4,505.143c-1.184-17.737-1.9-36.2-2.11-55.169-.562-52.146,7.777-100.655,18.345-140.831.007-.033.02-.073.026-.106l22.1-.232,48.727-.516,13.332-.139c.013.053.033.106.046.159,11.415,39.932,20.753,88.229,21.308,140.355C630.373,467.625,630.05,486.1,629.249,503.866Z" transform="translate(-459.379 -308.151)" fill="#ecf5f7"/>
          <path id="Path_8059" data-name="Path 8059" d="M564.013,895.679l.121,11.269-.005.012.11,9.819.01,1.45,6.883-.076,10.954-.114,40.866-.434,1.692-.021,5.191-.055-.013-1.429-.108-9.84,0-.009-.121-11.269-5.109.055-2.978.03-2.061.019-43.117.464-2.152.022-5.058.056Z" transform="translate(-486.092 -579.614)" fill="#6ee1f4"/>
          <path id="Path_8060" data-name="Path 8060" d="M530.964,843.885l.292,28.468a10.632,10.632,0,0,0,8.908,10.385,10.126,10.126,0,0,0,1.86.15l6.822-.074,2.1-.023,6.129-.065,9.8-.1,39.307-.413.009,0h.267l5.85-.071,0,.008,2.11-.026,6.822-.073a10.245,10.245,0,0,0,1.855-.185,10.645,10.645,0,0,0,8.685-10.573l-.3-28.474-.112,0-12.995.134-21.66.234-1.61.021-27.771.293-1.61.02-17.768.184-16.886.185Z" transform="translate(-470.804 -555.481)" fill="#19c6d8"/>
          <path id="Path_8061" data-name="Path 8061" d="M515.7,644.077a20.685,20.685,0,0,1-.687,3.062l-10.952.112-6.885.08-.006-1.448-.112-9.821-8.63.086c-.013-.06-.033-.119-.046-.178a10.63,10.63,0,0,1-8.909-10.383l-.291-28.471.1.007v-.013c-.06-.291-.113-.589-.166-.886l-59.07,36.44-1.025-96.713,49.025-30.243c-1.184-17.737-1.9-36.2-2.11-55.169-.562-52.146,7.777-100.655,18.346-140.831.006-.033.02-.073.026-.106l22.1-.232c-.006.04-.006.08-.013.119-.635,5.72-1.528,12.506-2.884,20.779a303.918,303.918,0,0,1-7.03,33.133c-.932,3.346-1.845,6.3-2.731,9.02l-.007.013c-4.054,12.427-7.618,20.263-10.376,39.243-5.343,36.883,2.626,45.262,7.473,79.969a382.244,382.244,0,0,1,3.234,50.089c.145,18.531-.622,32.624.542,44.931a82.794,82.794,0,0,0,1.561,10.27,63.834,63.834,0,0,0,8.2,20.316,3.148,3.148,0,0,0,.205.344c.966,1.568,2,3.088,3.009,4.589q.843,1.241,1.667,2.467c2.46,3.664,4.7,7.268,5.84,11.2l.007.006A19.109,19.109,0,0,1,515.7,644.077Z" transform="translate(-419.019 -308.714)" fill="gray" opacity="0.11"/>
          <path id="Path_8062" data-name="Path 8062" d="M696.08,595.481l.3,28.477a10.65,10.65,0,0,1-8.683,10.575c-.02.059-.033.112-.053.172l-1.805.013-6.819.079.106,9.841.013,1.428-5.192.053c-.383-1.005-.721-1.971-1-2.838a49.751,49.751,0,0,1-1.9-8.406,51.17,51.17,0,0,1-.245-11.269,49.624,49.624,0,0,1,.767-5.4c.059-.278.112-.542.172-.814,2.222-10.3,6.679-14.92,11.223-21.771a61.335,61.335,0,0,0,3.829-6.5c.06-.113.119-.225.172-.344,3.055-6.1,5.483-13.65,4.749-51.981-.391-20.436-1.316-30.454-2.024-42.081-.2-3.194-.364-6.507-.516-10.2-1.349-34.6,2.48-42.114,2.526-68.541a312.512,312.512,0,0,0-14.86-92.64c-1.693-5.218-3.472-10.171-5.277-14.886-.02-.053-.04-.1-.059-.153l13.332-.139c.013.053.033.106.046.159,11.415,39.932,20.753,88.229,21.308,140.355.2,18.96-.125,37.431-.926,55.2l49.646,29.185,1.025,96.713-59.831-35.176c-.046.3-.093.6-.146.9Z" transform="translate(-535.402 -308.151)" fill="#fff" opacity="0.2"/>
          <circle id="Ellipse_491" data-name="Ellipse 491" cx="33.771" cy="33.771" r="33.771" transform="matrix(0.994, -0.11, 0.11, 0.994, 70.82, 39.04)" fill="#6ee1f4"/>
          <circle id="Ellipse_492" data-name="Ellipse 492" cx="19.453" cy="19.453" r="19.453" transform="translate(83.748 81.723) rotate(-72.774)" fill="#f7dfad"/>
        </g>
      </g>
      <path id="Path_8063" data-name="Path 8063" d="M624.681,308.31l-13.319.133-48.8.483-22.108.218c.006-.033.02-.073.026-.106l22.1-.232,48.727-.516,13.332-.139C624.648,308.2,624.668,308.257,624.681,308.31Z" transform="translate(-475.194 -194.79)" fill="#ecf5f7"/>
      <g id="Ñëîé_2_êîïèÿ_" data-name="Ñëîé 2 (êîïèÿ)" transform="translate(93.793)">
        <g id="Group_1875" data-name="Group 1875">
          <g id="Group_1874" data-name="Group 1874">
            <path id="Path_8064" data-name="Path 8064" d="M619.176,117.357l9.11-20.145c.036.031.069.054.106.085a595.12,595.12,0,0,1,70.065,68.046,9.547,9.547,0,0,1-7.083,15.8c-1.482.023-3.023.033-4.645.042-.405,0-.816,0-1.231,0a599.149,599.149,0,0,1-91.549-7.1c-.136-.019-.264-.042-.4-.061l5.486-12.13Z" transform="translate(-593.548 -97.212)" fill="#ecf5f7"/>
            <path id="Path_8065" data-name="Path 8065" d="M698.8,165.416a594.268,594.268,0,0,0-70.066-68.042L619.7,117.532,599.757,162,594.3,174.16a598.723,598.723,0,0,0,91.547,7.1l1.228,0c1.621-.005,3.165-.016,4.644-.04A9.548,9.548,0,0,0,698.8,165.416Z" transform="translate(-593.896 -97.287)" fill="#6ee1f4"/>
            <path id="Path_8066" data-name="Path 8066" d="M708.789,181.186a25.663,25.663,0,0,0-2.68-4.309,27.211,27.211,0,0,0-3.3-3.779,144.845,144.845,0,0,0-22.253-29.6c-13.061-13.241-18.973-13.893-39.151-26.04l-.172-.1,9.11-20.145c.036.031.069.054.106.085a595.109,595.109,0,0,1,70.065,68.046,9.547,9.547,0,0,1-7.083,15.8C711.952,181.166,710.41,181.176,708.789,181.186Z" transform="translate(-615.608 -97.212)" fill="gray" opacity="0.11"/>
            <path id="Path_8067" data-name="Path 8067" d="M599.407,217.6c39.519,2.569,66.783-2.808,81.344,11.176a27.2,27.2,0,0,1,3.3,3.779,25.67,25.67,0,0,1,2.68,4.309c-.405,0-.816,0-1.231,0a599.151,599.151,0,0,1-91.549-7.1c-.136-.019-.264-.042-.4-.061l5.486-12.13C599.161,217.58,599.28,217.591,599.407,217.6Z" transform="translate(-593.548 -152.889)" fill="#fff" opacity="0.2"/>
          </g>
        </g>
      </g>
    </g>
    <g id="Man_1" transform="translate(146.493 394.077)">
      <g id="Group_1881" data-name="Group 1881" transform="translate(0)">
        <g id="Group_1876" data-name="Group 1876" transform="translate(33.602 3.032)">
          <path id="Path_8068" data-name="Path 8068" d="M317.317,657.518a2.065,2.065,0,0,0-1.059-2.163,2.675,2.675,0,0,0-2.115.376,7.821,7.821,0,0,0-2.91,2.294,9.432,9.432,0,0,0-1.289,3.893c-.219,1.254-.383,2.7.493,3.647,2.23,2.4,3.023-1.145,3.745-2.412C315.244,661.29,317.131,659.771,317.317,657.518Z" transform="translate(-273.032 -655.254)" fill="#f2b879"/>
          <path id="Path_8069" data-name="Path 8069" d="M301.3,668.418c-.052,4.186,1.119,10.366.4,18.818-.583,6.824-5.723,18.99-8.576,20.3-4.943,2.273-13.307-3.1-12.68-6.6.271-1.512,4.868-1.617,5.842-2.375C294.7,692.014,296,668.219,296,668.219A9.184,9.184,0,0,1,301.3,668.418Z" transform="translate(-259.449 -661.113)" fill="#0a6d6d"/>
          <path id="Path_8070" data-name="Path 8070" d="M275.038,718.936l.206-3.02a4.863,4.863,0,0,0-2.842-4.5L250.61,700.751a6.913,6.913,0,0,0-6.311.271,6.213,6.213,0,0,0-2.693,4.127,6.277,6.277,0,0,0-.09,2.689c.791,4.087,5.584,5,16.573,10.612,5.96,3.047,8.028,3.033,11.185,3.91C272.148,723.158,274.86,721.537,275.038,718.936Z" transform="translate(-241.41 -675.999)" fill="#0a6d6d"/>
        </g>
        <g id="Group_1877" data-name="Group 1877" transform="translate(29.093 67.655)">
          <path id="Path_8071" data-name="Path 8071" d="M233.843,791.056c1.907,9.574,5.528,15.405,9.761,23.894a217.821,217.821,0,0,1,9.174,21.172,11.177,11.177,0,0,0,5.964-6.2c1.495-3.684,2.035-3.787,1.8-4.98l-12.6-48.138c-.492-.187-9.671-3.559-13.571,1.382C233.858,778.821,231.941,781.5,233.843,791.056Z" transform="translate(-233.019 -775.503)" fill="#1b62c9"/>
          <path id="Path_8072" data-name="Path 8072" d="M270.316,915.393l4.807.171a191.085,191.085,0,0,1-1.213-48.22,7.593,7.593,0,0,0-1.045-4.745,4.947,4.947,0,0,0-2.911-2.362c-1.549-.391-3.143.826-5.412,1.241a5.658,5.658,0,0,0-3.208,1.981,121.627,121.627,0,0,0,.556,18.6A123.072,123.072,0,0,0,270.316,915.393Z" transform="translate(-246.056 -814.665)" fill="#1b62c9"/>
          <path id="Path_8073" data-name="Path 8073" d="M277.412,964.893l8.184-1.046-3.812-4.076-4.647.594Z" transform="translate(-253.427 -860.743)" fill="#195fb2"/>
          <path id="Path_8074" data-name="Path 8074" d="M295.1,970.031c-6.983.37-9.564.042-10.447-.416a6.317,6.317,0,0,0-1.768-.589,3.707,3.707,0,0,0-1.757.035,3.351,3.351,0,0,0-1.161.648c-.62.485-1.767.932-4.089.707a8.634,8.634,0,0,1-.11-6.249,15.677,15.677,0,0,1,7.028-.14,16.207,16.207,0,0,1,6.5,3l6.153,1.617A.759.759,0,0,1,295.1,970.031Z" transform="translate(-252.548 -862.559)" fill="#0a6d6d"/>
        </g>
        <g id="Group_1878" data-name="Group 1878" transform="translate(2.786 65.219)">
          <path id="Path_8075" data-name="Path 8075" d="M218.373,782.9c-2.669,9.4-2.093,16.192-2.183,25.628a215.461,215.461,0,0,1-1.464,22.937A11.509,11.509,0,0,0,222.9,828.5c3.022-2.651,3.553-2.508,3.884-3.68l10.719-48.569c-.355-.382-7.033-7.382-12.783-4.649C223.98,771.955,221.038,773.523,218.373,782.9Z" transform="translate(-198.25 -770.97)" fill="#1c68da"/>
          <path id="Path_8076" data-name="Path 8076" d="M188.107,910.154l4.226,2.238a193.848,193.848,0,0,1,20.957-43.7,7.6,7.6,0,0,0,1.234-4.7A4.792,4.792,0,0,0,213,860.611c-1.209-1.021-3.191-.624-5.413-1.236a5.766,5.766,0,0,0-3.778.383,122.716,122.716,0,0,0-15.7,50.4Z" transform="translate(-185.936 -811.79)" fill="#1c68da"/>
          <path id="Path_8077" data-name="Path 8077" d="M184.068,955.007l7.326,3.7-.731-5.468-4.16-2.1Z" transform="translate(-184.068 -854.315)" fill="#1c68da"/>
        </g>
        <path id="Path_8078" data-name="Path 8078" d="M214.076,728.063q.092.7.191,1.447c.005.044.011.085.017.129,1.168,8.788,2.031,8.26,2.1,11.2a31.088,31.088,0,0,1-.357,5.457,9.449,9.449,0,0,0,7.185,10.58l.206.049a24.846,24.846,0,0,0,10.693.386c.264-.049.523-.1.778-.16a9.4,9.4,0,0,0,7.274-10.984c-.595-2.948-.978-4.939-1.115-5.824a24.041,24.041,0,0,0-.67-3.062c-.143-.5-.265-.861-.332-1.066-1.672-5.132-1.968-13.645-1.446-17.344.2-1.413.44-2.547.6-4.1,0-.04.09-.964.136-1.935.219-4.6.344-7.258-.369-9.685-1.548-5.263-6.6-7.95-6.991-8.15l-.191-.1a13.691,13.691,0,0,0-9.194-1.222c-.23.059-.459.127-.69.2a11.957,11.957,0,0,0-3.5,1.909c-.308.235-.6.478-.863.723l-.15.14a13.044,13.044,0,0,0-2.295,2.895,9.028,9.028,0,0,0-.945,2.31,54.062,54.062,0,0,0-1.314,6.962C212.378,712.5,212.421,715.421,214.076,728.063Z" transform="translate(-194.473 -669.84)" fill="#b3dee5"/>
        <path id="Path_8079" data-name="Path 8079" d="M228.874,693.849c1.337,1.725,2.787,3.5,4.356,5.3,1.977,2.274,3.936,4.361,5.842,6.268q.122-5.4.245-10.8a13.023,13.023,0,0,0-3.656-1.276A13.47,13.47,0,0,0,228.874,693.849Z" transform="translate(-202.009 -669.738)" fill="#fff"/>
        <g id="Group_1879" data-name="Group 1879" transform="translate(22.062)">
          <path id="Path_8080" data-name="Path 8080" d="M241.758,677.738a36.831,36.831,0,0,0-1.282,5.064c-.064.358-.121.71-.173,1.056a36.611,36.611,0,0,0-.386,4.539,6.806,6.806,0,0,1-5.568.692,6.385,6.385,0,0,1-3.443-2.857,15.05,15.05,0,0,0,3.9-9.091l.847.073Z" transform="translate(-225.011 -662.347)" fill="#f2b879"/>
          <path id="Path_8081" data-name="Path 8081" d="M245.8,677.8a36.83,36.83,0,0,0-1.282,5.064c-.065.358-.121.71-.173,1.056a6.025,6.025,0,0,1-1.687-.924,6.9,6.9,0,0,1-2.989-4.482,5.158,5.158,0,0,1,.022-1.238Z" transform="translate(-229.051 -662.409)" fill="#eda966"/>
          <path id="Path_8082" data-name="Path 8082" d="M243.669,664.484c-.318,1.349.927,2.67.717,4.04-.2,1.275-1.547,2.044-2.805,2.445a7.271,7.271,0,0,1-5.486-.1,8.572,8.572,0,0,1-2.754-2.649c-1.3-1.737-2.54-3.767-2.223-5.893a5.949,5.949,0,0,1,3.476-4.225c1.974-.945,4.728-.986,6.128.909.515.7.813,1.519,1.356,2.208C243.1,662.51,244.075,662.765,243.669,664.484Z" transform="translate(-225.086 -653.244)" fill="#f7c589"/>
          <path id="Path_8083" data-name="Path 8083" d="M230.972,669a2.119,2.119,0,0,1-.994,1.233,2.265,2.265,0,0,1-2.357-.213,2.578,2.578,0,0,0,.6-2.132c-.338-1.348-2.111-1.446-4.44-3.35a12.281,12.281,0,0,1-2.261-2.431,5.689,5.689,0,0,1-1.19-5.906,5.765,5.765,0,0,1,3.039-2.716c1.7-.73,2.649-.27,4.343-.612a8.935,8.935,0,0,0,5.026-3.259c1.935,2.408,1.984,3.845,1.664,4.715-.786,2.136-4.327,2.3-4.688,4.576-.18,1.133.527,2.159,0,2.549s-1.484-.45-2.139.015a1.3,1.3,0,0,0-.373,1.413c.353.993,1.908.755,2.931,1.632C230.818,665.1,231.4,666.3,230.972,669Z" transform="translate(-219.937 -649.612)" fill="#ea942d"/>
        </g>
        <path id="Path_8084" data-name="Path 8084" d="M214.076,730.928l7.747-18.655c2.168-5.22.289-10.884-4.2-12.652-.082-.033-.166-.062-.249-.088a13.164,13.164,0,0,0-2.982,4.24,54.1,54.1,0,0,0-1.572,7.927C212.378,715.367,212.421,718.286,214.076,730.928Z" transform="translate(-194.473 -672.705)" fill="#84ccd3"/>
        <g id="Group_1880" data-name="Group 1880" transform="translate(2.067 25.318)">
          <path id="Path_8085" data-name="Path 8085" d="M201.086,824.159a6.153,6.153,0,0,0,1.33-7.419l-4.287.743a25.031,25.031,0,0,1-.114,2.648c-.335,3.495-1.219,4.961-.574,5.475C198.146,826.167,200.059,825.085,201.086,824.159Z" transform="translate(-189.429 -752.242)" fill="#f7c589"/>
          <path id="Path_8086" data-name="Path 8086" d="M191.427,783.57a55.134,55.134,0,0,1-7.308-18.185c-.4-1.973-4.11-20.216,2.555-23.562,2.472-1.241,6.381-.437,7.827,1.6,1.281,1.8.4,4.248-.032,5.879-3.147,11.76,1.052,28.392,2.023,32.726a.9.9,0,0,1-.8,1.081Z" transform="translate(-182.73 -717.313)" fill="#0f8c91"/>
          <path id="Path_8087" data-name="Path 8087" d="M187.035,730.485l3.193.515a5.482,5.482,0,0,0,5.2-2.486l12.381-17.961c3.223-4.674,2.579-10.594-1.438-13.221h0c-1.776-1.162-4.328-.615-5.982,1.275A98.7,98.7,0,0,0,189.9,713.027a96.689,96.689,0,0,0-5.719,11.162C182.932,727.078,184.285,730.041,187.035,730.485Z" transform="translate(-183.185 -696.723)" fill="#0f8c91"/>
        </g>
        <path id="Path_8088" data-name="Path 8088" d="M196.017,968.778c-6.335-2.883-8.453-4.358-9.009-5.168a6.087,6.087,0,0,0-1.273-1.332,3.651,3.651,0,0,0-1.566-.777,3.411,3.411,0,0,0-1.337.038c-.781.142-2.01.01-3.947-1.256a8.613,8.613,0,0,1,.943-3.038,8.861,8.861,0,0,1,1.986-2.521,15.449,15.449,0,0,1,6.265,3.106,15.637,15.637,0,0,1,4.278,5.627L197,967.71A.773.773,0,0,1,196.017,968.778Z" transform="translate(-178.884 -790.754)" fill="#0f8c91"/>
      </g>
    </g>
    <g id="Man_2" transform="translate(252.99 474.769)">
      <g id="Group_1887" data-name="Group 1887">
        <path id="Path_8089" data-name="Path 8089" d="M434.634,891.757l-.186,0a11.217,11.217,0,0,1-10.73-9.334q-2.78-14.551-5.56-29.1a11.721,11.721,0,0,1,6.85-13.129,26.2,26.2,0,0,1,17.622-.734,11.652,11.652,0,0,1,7.748,13.07q-2.366,14.77-4.731,29.538A11.226,11.226,0,0,1,434.634,891.757Z" transform="translate(-395.966 -817.577)" fill="#1c68da"/>
        <g id="Group_1882" data-name="Group 1882" transform="translate(21.973 23.55)">
          <path id="Path_8090" data-name="Path 8090" d="M476.249,900.237a4.572,4.572,0,0,0,2.226.932l1.477.017a5.206,5.206,0,0,0,3.177,0c3.147-1.1,5-5.968,4.719-12.527-.046-1.066-.148-2.178-.311-3.325q-.488-3.22-.971-6.438l-10.991-.125a35.936,35.936,0,0,1,.938,8.52c.031.954.055,1.95.078,2.979.061,2.78-1.284,4.2-2,5.747A5,5,0,0,0,476.249,900.237Z" transform="translate(-444.139 -859.861)" fill="#f7cfa4"/>
          <path id="Path_8091" data-name="Path 8091" d="M417.938,902.855c4.013,1.306,9.559,4.33,17.848,6.426,6.693,1.693,19.864,1.115,21.98-.964,3.666-3.6,1.064-12.672-2.462-13.251-1.526-.25-3.016,3.747-4.035,4.357-2.936,1.755-10.755,2.811-31.918-1.278a.874.874,0,0,0-1.039.761Q418.126,900.88,417.938,902.855Z" transform="translate(-417.938 -867.394)" fill="#f7cfa4"/>
          <path id="Path_8092" data-name="Path 8092" d="M477.34,885.057c2.494,2.227,7.45,3.142,11.4,1.738-.046-1.066-.148-2.178-.31-3.325q-.488-3.22-.971-6.438l-10.991-.125C477.066,878.751,477.22,881.408,477.34,885.057Z" transform="translate(-445.015 -858.999)" fill="#f2ac6d"/>
          <path id="Path_8093" data-name="Path 8093" d="M472.76,844.2c6.217,1.928,8.4,9.135,9.834,13.882a16.685,16.685,0,0,1,.634,5.684,6.719,6.719,0,0,1-.673,2.973,5.453,5.453,0,0,1-2.948,2.4,7.211,7.211,0,0,1-4.809.123A8.87,8.87,0,0,1,470.416,866c-4.089-5.241-8.551-18.408-3.682-21.682C468.749,842.96,471.569,843.835,472.76,844.2Z" transform="translate(-439.526 -843.584)" fill="#1c68da"/>
        </g>
        <path id="Path_8094" data-name="Path 8094" d="M427.677,940.1c2.389,1.557,5.915,3.268,9.787,2.65,2.819-.449,3.4-1.746,7.931-3.954,6.461-3.148,10.963-3.279,10.938-4.594-.026-1.331-4.636-1.086-7.626-4.5a10.63,10.63,0,0,1-2.384-6.657l-23.729,1.545c-.066,2.907-.723,6.155-3.088,8.338-3.087,2.849-7.461,2.387-7.526,3.226C411.922,936.9,415.283,938.088,427.677,940.1Z" transform="translate(-393.208 -856.792)" fill="#12b2b2"/>
        <g id="Group_1883" data-name="Group 1883" transform="translate(9.136 24.529)">
          <path id="Path_8095" data-name="Path 8095" d="M405.013,901.223a4.583,4.583,0,0,1-2.284.785l-1.475-.078a5.206,5.206,0,0,1-3.17-.206c-3.064-1.3-4.582-6.28-3.853-12.8.119-1.061.3-2.164.537-3.3q.705-3.18,1.408-6.36l10.975.587a36.012,36.012,0,0,0-1.518,8.44c-.1.95-.188,1.942-.281,2.967-.252,2.77.994,4.277,1.6,5.864A5.022,5.022,0,0,1,405.013,901.223Z" transform="translate(-394.05 -861.066)" fill="#f7cfa4"/>
          <path id="Path_8096" data-name="Path 8096" d="M415.759,940.37c-2.746-3.136-7.7-7.013-12.8-13.715-4.117-5.411-8.5-17.525-7.311-20.214,2.056-4.659,11.665-5.706,13.536-2.738.81,1.285-2.438,4.127-2.637,5.276-.572,3.309,1.351,10.766,13.168,28.351a.843.843,0,0,1-.335,1.223Z" transform="translate(-394.698 -871.603)" fill="#f7cfa4"/>
          <path id="Path_8097" data-name="Path 8097" d="M405.974,886.062c-2.64,2.06-7.647,2.651-11.5,1,.119-1.061.3-2.164.537-3.3q.706-3.18,1.409-6.36l10.975.587C406.678,879.788,406.344,882.429,405.974,886.062Z" transform="translate(-394.248 -860.205)" fill="#f2ac6d"/>
          <path id="Path_8098" data-name="Path 8098" d="M407.275,845.821c-6.334,1.52-9,8.571-10.759,13.214a16.69,16.69,0,0,0-1.022,5.63,6.708,6.708,0,0,0,.469,3.01,5.43,5.43,0,0,0,2.777,2.583,7.2,7.2,0,0,0,4.79.434,8.914,8.914,0,0,0,4.6-2.975c4.437-4.964,9.789-17.813,5.155-21.4C411.363,844.84,408.489,845.53,407.275,845.821Z" transform="translate(-394.718 -845.405)" fill="#1c68da"/>
        </g>
        <g id="Group_1884" data-name="Group 1884" transform="translate(20.183 51.524)">
          <path id="Path_8099" data-name="Path 8099" d="M475.99,941.458l12.346-1.84.01-1.442-20.225-.135Z" transform="translate(-439.362 -915.253)" fill="#d1d3d3"/>
          <path id="Path_8100" data-name="Path 8100" d="M416.181,921.382l37.268.359a1.008,1.008,0,0,0,1.066-.942l-.664-24.019a.857.857,0,0,0-.909-.782l-37.268-.359a1.008,1.008,0,0,0-1.066.942l.664,24.02A.857.857,0,0,0,416.181,921.382Z" transform="translate(-414.607 -895.638)" fill="#fff"/>
          <path id="Path_8101" data-name="Path 8101" d="M443.62,915.479a4.112,4.112,0,1,0,4.087-4.027A4.06,4.06,0,0,0,443.62,915.479Z" transform="translate(-428.028 -902.953)" fill="#d1d3d3"/>
        </g>
        <g id="Group_1885" data-name="Group 1885" transform="translate(2.989 72.579)">
          <path id="Path_8102" data-name="Path 8102" d="M391.751,968.189l3.041,4.877,10.195-2.1-.316-5.458Z" transform="translate(-386.84 -949.013)" fill="#f2b879"/>
          <path id="Path_8103" data-name="Path 8103" d="M407.537,957.373c-1.687-1.9-1.622-4.007-3.309-5.907,2.074-.107,10.691-.656,23.285-5.238,5.859-2.131,19-8.419,28.9-10.617a22.54,22.54,0,0,1,7.92-.664,8.143,8.143,0,0,1,6.108,3.8c1.569,2.958-3.928,7.866-8.536,9.484a101.768,101.768,0,0,1-10.714,3.1c-2.08.486-6.382,1.492-10.9,2.293C426.531,956.068,409.518,957.227,407.537,957.373Z" transform="translate(-392.612 -934.816)" fill="#16b9c1"/>
          <path id="Path_8104" data-name="Path 8104" d="M383.4,973.313l3.977,3.5a2.841,2.841,0,0,0,3.352.086h0a3.036,3.036,0,0,0,.748-4.643l-1.429-1.6a5.123,5.123,0,0,0-6.495-.663h0A2.02,2.02,0,0,0,383.4,973.313Z" transform="translate(-382.613 -950.692)" fill="#1c68da"/>
        </g>
        <g id="Group_1886" data-name="Group 1886" transform="translate(0 73.043)">
          <path id="Path_8105" data-name="Path 8105" d="M496.445,969.2l-2.988,4.641-9.756-2.156.381-5.235Z" transform="translate(-426.386 -949.912)" fill="#f7c589"/>
          <path id="Path_8106" data-name="Path 8106" d="M437.448,958.074c1.647-1.8,1.614-3.824,3.261-5.626-1.989-.131-10.252-.774-22.277-5.342-5.594-2.125-18.122-8.339-27.593-10.583a21.625,21.625,0,0,0-7.592-.744,7.822,7.822,0,0,0-5.917,3.567c-1.549,2.818,3.659,7.6,8.059,9.22a97.563,97.563,0,0,0,10.24,3.12c1.99.495,6.1,1.519,10.43,2.349C419.235,956.565,435.55,957.908,437.448,958.074Z" transform="translate(-377.051 -935.679)" fill="#19c6d8"/>
          <path id="Path_8107" data-name="Path 8107" d="M507.354,974.336l-3.868,3.307a2.727,2.727,0,0,1-3.22.037h0a2.914,2.914,0,0,1-.652-4.466l1.395-1.514a4.919,4.919,0,0,1,6.244-.548h0A1.939,1.939,0,0,1,507.354,974.336Z" transform="translate(-433.39 -951.687)" fill="#1c68da"/>
        </g>
        <path id="Path_8108" data-name="Path 8108" d="M448.179,810.5a6.16,6.16,0,0,1-4.737,4.486c-3.961.619-7.7-4.375-8.158-8.459a6.134,6.134,0,0,1,1.184-4.871c1.247-1.384,3-1.611,4.605-1.8,3.9-.447,8.784.682,9.079,2.564.18,1.147-1.521,1.441-2.106,3.717C447.554,808.063,448.527,808.789,448.179,810.5Z" transform="translate(-403.953 -799.762)" fill="#1c68da"/>
        <path id="Path_8109" data-name="Path 8109" d="M448.816,831.362a5.814,5.814,0,0,1-3.174,1.593,6.226,6.226,0,0,1-4.929-1.593l1.216-12.233H447.6Z" transform="translate(-406.501 -808.721)" fill="#edb170"/>
        <ellipse id="Ellipse_493" data-name="Ellipse 493" cx="6.183" cy="7.73" rx="6.183" ry="7.73" transform="translate(31.933 3.061)" fill="#f7cfa4"/>
        <path id="Path_8110" data-name="Path 8110" d="M447.4,806.138c-.092.209-.935-.222-1.842.256-.762.4-.628.946-1.184,1.282-1.166.7-2.546-1.213-5.132-1.154-1.579.037-2.417.782-2.763.385-.379-.436.246-1.77,1.184-2.563,1.459-1.234,3.484-1,4.408-.9C445.2,803.8,447.56,805.768,447.4,806.138Z" transform="translate(-404.489 -801.425)" fill="#1c68da"/>
        <path id="Path_8111" data-name="Path 8111" d="M436.418,816.543c.309,1.055.191,2.013-.263,2.139s-1.073-.627-1.382-1.682-.191-2.013.263-2.139S436.109,815.488,436.418,816.543Z" transform="translate(-403.673 -806.741)" fill="#f7cfa4"/>
        <path id="Path_8112" data-name="Path 8112" d="M458.681,816.624c-.173,1.085-.691,1.906-1.158,1.835s-.705-1.007-.532-2.091.691-1.906,1.158-1.835S458.853,815.54,458.681,816.624Z" transform="translate(-414.004 -806.593)" fill="#f7cfa4"/>
      </g>
    </g>
    <g id="stairs" transform="translate(399.594 305.375)">
      <g id="Group_1889" data-name="Group 1889">
        <g id="Group_1888" data-name="Group 1888" transform="translate(5.104 15.962)">
          <path id="Path_8113" data-name="Path 8113" d="M758.807,940.51l-42.088.155-.277-2.058,42.088-.155Z" transform="translate(-685.758 -710.487)" fill="#19517f"/>
          <path id="Path_8114" data-name="Path 8114" d="M752.463,893.378l-42.088.155-.277-2.058,42.088-.155Z" transform="translate(-682.824 -688.684)" fill="#19517f"/>
          <path id="Path_8115" data-name="Path 8115" d="M746.119,846.245l-42.088.155-.277-2.058,42.088-.155Z" transform="translate(-679.889 -666.881)" fill="#19517f"/>
          <path id="Path_8116" data-name="Path 8116" d="M739.775,799.113l-42.088.155-.277-2.058,42.088-.155Z" transform="translate(-676.954 -645.078)" fill="#19517f"/>
          <path id="Path_8117" data-name="Path 8117" d="M733.431,751.981l-42.088.155-.277-2.058,42.088-.155Z" transform="translate(-674.02 -623.275)" fill="#19517f"/>
          <path id="Path_8118" data-name="Path 8118" d="M727.087,704.848,685,705l-.277-2.058,42.088-.155Z" transform="translate(-671.085 -601.472)" fill="#19517f"/>
          <path id="Path_8119" data-name="Path 8119" d="M720.743,657.716l-42.088.155-.277-2.058,42.088-.155Z" transform="translate(-668.15 -579.669)" fill="#19517f"/>
          <path id="Path_8120" data-name="Path 8120" d="M714.4,610.583l-42.088.155-.277-2.058,42.088-.155Z" transform="translate(-665.216 -557.866)" fill="#19517f"/>
          <path id="Path_8121" data-name="Path 8121" d="M708.055,563.451l-42.088.155-.277-2.058,42.088-.155Z" transform="translate(-662.281 -536.063)" fill="#19517f"/>
          <path id="Path_8122" data-name="Path 8122" d="M701.711,516.318l-42.088.155-.277-2.058,42.088-.155Z" transform="translate(-659.346 -514.26)" fill="#19517f"/>
        </g>
        <path id="Path_8123" data-name="Path 8123" d="M769.473,749.573l-5.637.021-35.67-265.015,5.637-.021Z" transform="translate(-686.078 -484.558)" fill="#19517f"/>
        <path id="Path_8124" data-name="Path 8124" d="M691.157,749.862l-5.637.021L649.85,484.867l5.637-.021Z" transform="translate(-649.85 -484.691)" fill="#19517f"/>
      </g>
    </g>
    <g id="Man_3" transform="translate(394.307 172.661)">
      <g id="Group_1893" data-name="Group 1893" transform="translate(0 0)">
        <g id="Group_1892" data-name="Group 1892">
          <g id="Group_1890" data-name="Group 1890" transform="translate(37.484 75.027)">
            <path id="Path_8125" data-name="Path 8125" d="M726.456,389.065c1.413,8.83.152,14.953-.787,23.553a197.281,197.281,0,0,0-1.149,21.029A10.487,10.487,0,0,1,717.4,430.1c-2.465-2.723-2.962-2.648-3.137-3.749l-4.5-45.312c.364-.311,7.2-6,12.139-2.919C722.537,378.522,725.046,380.252,726.456,389.065Z" transform="translate(-709.761 -377.214)" fill="#0c7a7a"/>
            <path id="Path_8126" data-name="Path 8126" d="M737.321,507.54l-4.089,1.6a176.55,176.55,0,0,0-14.347-41.932,6.946,6.946,0,0,1-.614-4.407,4.425,4.425,0,0,1,1.755-2.918c1.211-.806,2.972-.24,5.062-.569a5.271,5.271,0,0,1,3.4.736,111.966,111.966,0,0,1,8.835,47.485Z" transform="translate(-713.64 -415.171)" fill="#0c7a7a"/>
            <path id="Path_8127" data-name="Path 8127" d="M750.949,550.2l-7.069,2.619,1.258-4.9,4.014-1.487Z" transform="translate(-725.544 -455.493)" fill="#1e71c4"/>
          </g>
          <path id="Path_8128" data-name="Path 8128" d="M725.328,559.083c6.385-.512,8.688-1.122,9.43-1.646a5.752,5.752,0,0,1,1.53-.75,3.392,3.392,0,0,1,1.6-.181,3.091,3.091,0,0,1,1.136.448c.625.365,1.723.632,3.8.146a7.847,7.847,0,0,0,.184-2.9,7.951,7.951,0,0,0-.882-2.782,14.346,14.346,0,0,0-6.4.725,14.714,14.714,0,0,0-5.515,3.507l-5.379,2.215A.7.7,0,0,0,725.328,559.083Z" transform="translate(-679.14 -382.728)" fill="#032349"/>
          <g id="Group_1891" data-name="Group 1891" transform="translate(24.485 75.426)">
            <path id="Path_8129" data-name="Path 8129" d="M705.945,391.369c-.577,8.919-3.164,14.633-5.986,22.832a198.591,198.591,0,0,0-5.781,20.292,10.339,10.339,0,0,1-6.169-4.955c-1.8-3.177-2.305-3.208-2.233-4.32l5.645-45.19c.425-.227,8.359-4.343,12.5-.3C704.455,380.251,706.521,382.466,705.945,391.369Z" transform="translate(-685.663 -377.957)" fill="#0f8c91"/>
            <path id="Path_8130" data-name="Path 8130" d="M694.838,508.617l-4.348.707a175.268,175.268,0,0,0-4.719-43.961,6.939,6.939,0,0,1,.377-4.431,4.489,4.489,0,0,1,2.36-2.48c1.361-.532,2.955.391,5.068.509a5.223,5.223,0,0,1,3.154,1.433,111.585,111.585,0,0,1-1.893,48.223Z" transform="translate(-685.573 -415.117)" fill="#0f8c91"/>
            <path id="Path_8131" data-name="Path 8131" d="M698.538,553.377l-7.483,1.071,2.314-4.522,4.249-.608Z" transform="translate(-688.109 -457.227)" fill="#1e71c4"/>
          </g>
          <path id="Path_8132" data-name="Path 8132" d="M674.288,561.643c6.373-.649,8.66-1.309,9.391-1.848a5.717,5.717,0,0,1,1.512-.783,3.391,3.391,0,0,1,1.594-.215,3.1,3.1,0,0,1,1.146.423c.633.351,1.737.594,3.8.063a7.839,7.839,0,0,0,.118-2.906,7.95,7.95,0,0,0-.945-2.763,14.359,14.359,0,0,0-6.38.863,14.7,14.7,0,0,0-5.434,3.626l-5.328,2.33A.7.7,0,0,0,674.288,561.643Z" transform="translate(-655.522 -383.76)" fill="#06325e"/>
          <path id="Path_8133" data-name="Path 8133" d="M645.778,248.768l-.069.054a2.3,2.3,0,0,1-1.787.528c-1.091-.259-1.49-1.718-2.138-4.082a6.615,6.615,0,0,1-.343-2.143,8.951,8.951,0,0,1,.274-1.512,10.626,10.626,0,0,1,.669-2.375c.151-.274.972-1.759,1.96-1.625a1.783,1.783,0,0,1,1.242,1.4,3.423,3.423,0,0,1-.056,1.038c-.06,1.166.063,2.77.391,2.813s.422-1.673,1.452-1.979c.307-.091.709-.061.827.128.157.249-.2.7-.343,1.279a3.4,3.4,0,0,1-.2.675c-.674,1.671-.119,2.619-.736,4.181A4,4,0,0,1,645.778,248.768Z" transform="translate(-640.671 -237.606)" fill="#f7c589"/>
          <path id="Path_8134" data-name="Path 8134" d="M761.985,250.634l.082.032a2.313,2.313,0,0,0,1.868-.022c.96-.568.889-2.077.774-4.52a6.606,6.606,0,0,0-.337-2.143,9.075,9.075,0,0,0-.729-1.361,10.817,10.817,0,0,0-1.373-2.067c-.229-.217-1.473-1.392-2.372-.973a1.748,1.748,0,0,0-.749,1.7,3.451,3.451,0,0,0,.375.973c.418,1.094.8,2.66.5,2.8s-.921-1.471-2-1.459c-.321,0-.694.151-.749.365-.072.284.412.613.723,1.118a3.43,3.43,0,0,0,.4.585c1.161,1.395.925,2.462,2,3.77A4.094,4.094,0,0,0,761.985,250.634Z" transform="translate(-694.253 -238.478)" fill="#f7c589"/>
          <path id="Path_8135" data-name="Path 8135" d="M775.178,262.551c6.956,11.865,3.112,18.3-.24,18.5-4.433.257-9.392,1.384-10.141-.811-.325-.95,2.253-6.692,2.742-7.488,1.407-2.293-.075-4.048-5.131-17.1-.122-.314,4.644-2.578,5.093-2.713C768.689,252.578,772.147,257.381,775.178,262.551Z" transform="translate(-696.63 -244.688)" fill="#16b7bf"/>
          <path id="Path_8136" data-name="Path 8136" d="M744.235,304.019c.613-.141,1.546-.437,1.77-.51,1.057-.346,2.171-.771,3.3-1.249,1.677-.7,3.382-1.512,4.962-2.3.75-.374,1.466-.744,2.137-1.1,2.685-1.41,4.667-2.562,4.917-2.669-.38-3.751-3.133-7.386-6.02-8.514-.7.3-1.789.682-3.095,1.092h0c-.756.236-1.582.486-2.445.738-1.244.362-15.471,5.187-17.322,5.825-3.287,1.132-6.353,12.116-1.438,13.3C732.192,308.918,741.979,304.538,744.235,304.019Z" transform="translate(-680.911 -260.769)" fill="#16b7bf"/>
          <path id="Path_8137" data-name="Path 8137" d="M725.47,296.452c-8.559,1.489-10.724.937-11.043.11-.25-.65.793-1.069,1.343-3.271a10,10,0,0,0-.192-5.233,9.6,9.6,0,0,0-.384-1.028,4.488,4.488,0,0,0,3.506,1.408,4.308,4.308,0,0,0,3.7-3.031,40.028,40.028,0,0,0,.832,4.956A22.733,22.733,0,0,0,725.47,296.452Z" transform="translate(-674.417 -259.719)" fill="#edb170"/>
          <path id="Path_8138" data-name="Path 8138" d="M721.447,317.87c-1.425,6.783-2.62,7.576-3.5,13.053a51.29,51.29,0,0,0-.583,9.08,41.167,41.167,0,0,0,.347,4.86c.207,1.584.369,2.109.79,4.5.626,3.554.934,5.345.671,5.981-.991,2.4-5.162,2.826-8.634,3.177-1.306.132-14.393,1.457-16.687-4.083a3.824,3.824,0,0,1-.262-.909,20.855,20.855,0,0,1,1.053-10.117,71.025,71.025,0,0,0,2.33-9.648,22.166,22.166,0,0,0,.234-3.169,41.56,41.56,0,0,0-.816-8.181c-1.494-7.5,1.813-17.617,6.377-20.428a9.038,9.038,0,0,1,3.933-1.4c1.758-.078,2.374.615,4.235.525,2.15-.1,2.505-1.268,3.877-1.145,3.564.321,6.592,4.939,7.465,9.042C722.789,311.386,722.349,313.58,721.447,317.87Z" transform="translate(-664.681 -266.447)" fill="#19c6d8"/>
          <path id="Path_8139" data-name="Path 8139" d="M640.573,264.808c1.654,13.568,8.675,16.515,11.488,14.728,3.721-2.362,8.395-4.328,7.657-6.528-.32-.952-5.9-4.074-6.777-4.43-2.532-1.029-2.412-3.3-6.318-16.72-.094-.323-5.307.619-5.751.771C639.7,253.031,639.852,258.9,640.573,264.808Z" transform="translate(-640.011 -244.168)" fill="#19c6d8"/>
          <path id="Path_8140" data-name="Path 8140" d="M671.493,303.473c-.611-.148-1.54-.456-1.763-.531-1.052-.358-2.161-.8-3.285-1.288-1.668-.722-3.363-1.553-4.932-2.363-.745-.383-1.457-.762-2.124-1.123-2.667-1.441-4.634-2.617-4.882-2.727.427-3.746,3.226-7.347,6.127-8.441.692.31,1.78.7,3.08,1.13h0c.753.245,1.576.506,2.436.767,1.239.377,15.4,5.374,17.247,6.033,3.273,1.172,6.2,12.193,1.269,13.315C683.473,308.516,673.743,304.018,671.493,303.473Z" transform="translate(-646.717 -260.455)" fill="#19c6d8"/>
          <path id="Path_8141" data-name="Path 8141" d="M714.119,279.684c-1.122-1.021-1.72-2.756-1.369-5.26a9.049,9.049,0,0,1,1.77-4.082c1.439-2.286,5.245-4.183,8.363-2.739,3.392,1.57,4.15,6.247,2.572,9.257a16.5,16.5,0,0,0-3.109,2.443c-1.271,1.275-1.3,1.731-2.076,2.117C718.513,282.3,715.86,281.268,714.119,279.684Z" transform="translate(-673.613 -251.25)" fill="#f7c589"/>
          <path id="Path_8142" data-name="Path 8142" d="M718.165,266.613l-.839-1.771a4.432,4.432,0,0,1,2.053-2.849,4.362,4.362,0,0,1,2.143-.557,8.12,8.12,0,0,1,4.476.137,7.9,7.9,0,0,1,3.637,2.453,3.788,3.788,0,0,1,1.878,2.115,3.56,3.56,0,0,1-.2,2.789,21.817,21.817,0,0,1-2.92,5.667c-.037.051-.1.151-.2.27a3.4,3.4,0,0,1-1.3.9,6.275,6.275,0,0,0-1.859,1.8c-1.041,1.236-.993,1.667-1.591,1.9a2.558,2.558,0,0,1-2.213-.424c-1.779-1.23-.433-3.3-2.015-6.656-.852-1.8-1.84-2.42-1.714-3.95A3.921,3.921,0,0,1,718.165,266.613Z" transform="translate(-675.776 -248.514)" fill="#032349"/>
          <path id="Path_8143" data-name="Path 8143" d="M718.159,277.023c-.348.677-1.005,1.043-1.469.817s-.557-.958-.21-1.635,1.005-1.043,1.468-.817S718.507,276.345,718.159,277.023Z" transform="translate(-675.288 -255.053)" fill="#f7c589"/>
        </g>
      </g>
    </g>
    <g id="Man_4" transform="translate(456.163 369.656)">
      <g id="Group_1899" data-name="Group 1899">
        <g id="Group_1894" data-name="Group 1894" transform="translate(23.807)">
          <path id="Path_8144" data-name="Path 8144" d="M807.445,672.108a2.449,2.449,0,0,0-1.659-.094,1.993,1.993,0,0,0-.776.521l-.908.984a4.583,4.583,0,0,0-1.927,2.141c-1.126,2.789,1.2,6.991,6.031,10.779.785.616,1.637,1.222,2.55,1.808q2.582,1.625,5.16,3.251l6.757-7.329a34.839,34.839,0,0,1-6.619-4.537c-1.115-.892-1.815-1.454-2.162-1.754a42.09,42.09,0,0,1-3.981-3.94A5.224,5.224,0,0,0,807.445,672.108Z" transform="translate(-800.56 -635.503)" fill="#efb98f"/>
          <path id="Path_8145" data-name="Path 8145" d="M811.641,606.9a1.608,1.608,0,0,0-1,.654c-1.122,1.333-1.165,6.348-1.166,6.619l2.513,2.522a8.645,8.645,0,0,0,1.455-1.588,8.825,8.825,0,0,0,1.413-3.3c.406-1.754-.294-1.8-.116-4.063.152-1.929.709-3.223.2-3.513-.267-.152-.662.067-.722.1-1.1.609-.613,2.7-1.341,2.913C812.5,607.347,812.259,606.828,811.641,606.9Z" transform="translate(-804.067 -604.171)" fill="#efb98f"/>
          <path id="Path_8146" data-name="Path 8146" d="M804.69,620.809a50.665,50.665,0,0,0-4.872,16.737c-.2,1.847-2.066,19.03,4.3,21.514,3.177,1.239,8.232-1.247,8.6-3.737.173-1.168-1.2-1.67-2.562-3.973a14.891,14.891,0,0,1-1.809-6.2c-.937-7.162.693-19.192.852-23.311a1.782,1.782,0,0,0-.407-1.365C807.974,619.681,806.078,620.245,804.69,620.809Z" transform="translate(-799.412 -611.532)" fill="#efb98f"/>
          <path id="Path_8147" data-name="Path 8147" d="M823.092,687.772c-3.093.329-6.75,3.113-8.153,6.628.785.615,1.637,1.222,2.549,1.808q2.582,1.625,5.16,3.252l6.757-7.329A32.041,32.041,0,0,1,823.092,687.772Z" transform="translate(-806.594 -642.844)" fill="#eda264" opacity="0.53"/>
          <path id="Path_8148" data-name="Path 8148" d="M842.11,704.15c-5.079,3.2-12.632-.276-14.377-1.078a16.609,16.609,0,0,1-4.421-3.021,6.323,6.323,0,0,1-1.7-2.257,4.794,4.794,0,0,1,.086-3.441,6.332,6.332,0,0,1,2.83-3.314,9,9,0,0,1,4.979-.972c6.36.264,16.043,5.057,15.685,9.962C845.023,702.318,842.737,703.756,842.11,704.15Z" transform="translate(-809.548 -643.897)" fill="#e8eaea"/>
        </g>
        <g id="Group_1895" data-name="Group 1895" transform="translate(0 94.485)">
          <path id="Path_8149" data-name="Path 8149" d="M801.739,800.814c-9.607-.78-15.707-3.55-24.482-6.613-3.881-1.355-9.107-3.054-15.515-4.771a4.146,4.146,0,0,1-.744-7.784l.011-.005.026-.012a17.447,17.447,0,0,1,9.786-1.476l41.551,5.76a3.521,3.521,0,0,1,2.82,2.2c1.068,2.781,2.372,7.88-.846,10.873C813.77,799.524,811.328,801.593,801.739,800.814Z" transform="translate(-756.724 -779.987)" fill="#e58217"/>
          <path id="Path_8150" data-name="Path 8150" d="M769.366,835.53l-4.531.958a184.165,184.165,0,0,0-7.1-45.927,7.3,7.3,0,0,1,.18-4.673,4.727,4.727,0,0,1,2.357-2.721c1.261-.563,2.62-.286,5.347.283.881.184,1.6.377,2.085.517a93.594,93.594,0,0,1,3.951,18.565A94.608,94.608,0,0,1,769.366,835.53Z" transform="translate(-756.189 -781.316)" fill="#e58217"/>
          <path id="Path_8151" data-name="Path 8151" d="M774.368,883.086l-7.942.362,2.919-4.5,4.51-.205Z" transform="translate(-760.345 -825.672)" fill="#195fb2"/>
          <path id="Path_8152" data-name="Path 8152" d="M769.583,888.988a10.636,10.636,0,0,1-2.2.326c-1.691.07-1.881-.334-3.284-.357-2.226-.037-3.271.956-5.48.91a12.281,12.281,0,0,1-1.431-.126,4.482,4.482,0,0,1-.98-.2,4.578,4.578,0,0,1-.642-.264.854.854,0,0,1-.142-1.42c.18-.141.375-.282.585-.418a8.336,8.336,0,0,1,3.325-1.253,4.442,4.442,0,0,1,2.892-1.606,5.5,5.5,0,0,1,2.1.469,7.384,7.384,0,0,0,4.819-.4,2.732,2.732,0,0,1,1.5,2.825A2.431,2.431,0,0,1,769.583,888.988Z" transform="translate(-755.112 -828.369)" fill="#052b51"/>
        </g>
        <g id="Group_1896" data-name="Group 1896" transform="translate(50.068 95.62)">
          <path id="Path_8153" data-name="Path 8153" d="M865.687,794.518c1.531,9.275.238,15.718-.705,24.762-.417,4-.854,9.356-1.025,15.833a4.315,4.315,0,0,1-7.571,2.6l-.008-.009-.019-.022a16.358,16.358,0,0,1-3.819-8.9q-2.122-20.348-4.244-40.7a3.43,3.43,0,0,1,1.517-3.2c2.512-1.686,7.276-4.16,11.028-1.845C861.513,783.455,864.159,785.26,865.687,794.518Z" transform="translate(-848.278 -782.099)" fill="#ef9529"/>
          <path id="Path_8154" data-name="Path 8154" d="M869.947,917.289l-4.545.878a184.383,184.383,0,0,0-6.4-46.043,7.287,7.287,0,0,1,.25-4.668,4.708,4.708,0,0,1,2.4-2.679c1.269-.541,2.625-.241,5.342.376.878.2,1.593.406,2.077.554a93.649,93.649,0,0,1,.879,51.582Z" transform="translate(-853.114 -820.215)" fill="#ef9529"/>
          <path id="Path_8155" data-name="Path 8155" d="M874.242,964.97l-7.948.221,2.987-4.444,4.513-.126Z" transform="translate(-856.612 -864.682)" fill="#195fb2"/>
          <path id="Path_8156" data-name="Path 8156" d="M869.378,970.784a10.6,10.6,0,0,1-2.2.287c-1.692.041-1.876-.367-3.278-.415-2.225-.076-3.285.9-5.493.813a12.346,12.346,0,0,1-1.43-.151A4.486,4.486,0,0,1,856,971.1a4.575,4.575,0,0,1-.637-.275.855.855,0,0,1-.121-1.422c.183-.138.379-.275.591-.407a8.318,8.318,0,0,1,3.344-1.194,4.428,4.428,0,0,1,2.917-1.554,5.5,5.5,0,0,1,2.094.506,7.382,7.382,0,0,0,4.825-.313,2.739,2.739,0,0,1,1.461,2.85A2.419,2.419,0,0,1,869.378,970.784Z" transform="translate(-851.348 -867.283)" fill="#052b51"/>
        </g>
        <path id="Path_8157" data-name="Path 8157" d="M857.291,745.315a49.661,49.661,0,0,1-27.726-5.26c3.431-9.029,5.842-16.183,7.074-20.293a13.98,13.98,0,0,0,.63-5.873,14.352,14.352,0,0,0-1.854-5.353c-2.465-4.771-2.482-14.064,2.61-18.614,5.553-4.962,15.03-2.438,16.232-1.964,1,.393,3.148,1.467,4.076,1.706a12.234,12.234,0,0,1,6.98,7.653,36.854,36.854,0,0,1,1.383,6.114,33.626,33.626,0,0,1,.245,4.861c-.1,5.949-2.347,14.887-5.813,23.308a54.205,54.205,0,0,0-2.577,7.366A50.425,50.425,0,0,0,857.291,745.315Z" transform="translate(-789.553 -642.439)" fill="#b3dee5"/>
        <g id="Group_1897" data-name="Group 1897" transform="translate(46.029 50.476)">
          <path id="Path_8158" data-name="Path 8158" d="M840.762,730.118l5.2,1.239,4.89-28.514-.919-.219Z" transform="translate(-840.762 -700.19)" fill="#195fb2"/>
          <path id="Path_8159" data-name="Path 8159" d="M842.643,756.917l.167.04,3.154-1.934-5.2-1.239Z" transform="translate(-840.762 -723.856)" fill="#195fb2"/>
          <path id="Path_8160" data-name="Path 8160" d="M856.348,701.413l1.245.3a1,1,0,0,0,1.213-.717l.349-1.39a.977.977,0,0,0-.736-1.182l-1.245-.3a1,1,0,0,0-1.213.717l-.349,1.39A.976.976,0,0,0,856.348,701.413Z" transform="translate(-847.618 -698.095)" fill="#195fb2"/>
        </g>
        <path id="Path_8161" data-name="Path 8161" d="M852.249,689.144a19,19,0,0,0,4.463-1.519,18.678,18.678,0,0,0,4.853-3.408l-2.921-4.794-6.742,3.726Z" transform="translate(-799.886 -638.982)" fill="#fff"/>
        <path id="Path_8162" data-name="Path 8162" d="M869.006,681.713c-4.748,3.4-12.463,2.267-12.7,1.606a62.748,62.748,0,0,0,1.312-7.187,21.742,21.742,0,0,0,.335-3.778L866,667.175a17.6,17.6,0,0,0-.391,7.163,15.041,15.041,0,0,0,1.188,3.909A15.4,15.4,0,0,0,869.006,681.713Z" transform="translate(-801.921 -633.316)" fill="#edc094"/>
        <path id="Path_8163" data-name="Path 8163" d="M866.741,674.338a6.477,6.477,0,0,1-1.547,1.377,7.144,7.144,0,0,1-3.911,1.086,2.255,2.255,0,0,1-.38-.037,6.788,6.788,0,0,1-2.16-.631,21.742,21.742,0,0,0,.335-3.778l8.054-5.179A17.6,17.6,0,0,0,866.741,674.338Z" transform="translate(-803.051 -633.316)" fill="#efa55b"/>
        <path id="Path_8164" data-name="Path 8164" d="M858.638,666.627a2.324,2.324,0,0,1-.382-.037c-.62-.111-2.567-.313-3.394-1.813-1.075-1.949.808-3.273.945-4.071.433-2.528-.1-3.815.222-6.356l.007-.055A4.407,4.407,0,0,1,861,650.581l2.709.338a2.18,2.18,0,0,1,.469.109,3.418,3.418,0,0,1,1.184.719,4.088,4.088,0,0,1,.983,3.631c-.009.045-.016.088-.021.133l-.636,4.832a6.876,6.876,0,0,1-7.048,6.284Z" transform="translate(-801.103 -625.624)" fill="#052a4f"/>
        <path id="Path_8165" data-name="Path 8165" d="M864.674,649.606l-2.8-.349a5.811,5.811,0,0,1-5.116-6.448l.029-.221a1.572,1.572,0,0,1,1.762-1.326l4.281.535c2.881.36,5.957,4.534,4.536,7.548h0C867.2,650.64,866,649.772,864.674,649.606Z" transform="translate(-802.112 -621.323)" fill="#052a4f"/>
        <path id="Path_8166" data-name="Path 8166" d="M859.4,661.845l-.479-.06c-1.33-.166-2.381-.577-2.211-1.872a31.031,31.031,0,0,0,.062-3.583c-.083-.537-.161-6.005,1.983-5.737.2.025.054.65.5.861a3.793,3.793,0,0,0,2.438-.077l.1-.041a3.85,3.85,0,0,1,2.488-.2c1.044.277,1.5,1.805,1.288,3.721a2,2,0,0,0-.01.353l.11,1.691a1.856,1.856,0,0,1-.019.437A5.609,5.609,0,0,1,859.4,661.845Z" transform="translate(-802.101 -625.641)" fill="#f7cfa4"/>
        <path id="Path_8167" data-name="Path 8167" d="M873.68,659.825c-.081.615-.475,1.074-.879,1.023s-.667-.591-.586-1.207.474-1.074.879-1.023S873.761,659.209,873.68,659.825Z" transform="translate(-809.276 -629.356)" fill="#f7cfa4"/>
        <path id="Path_8168" data-name="Path 8168" d="M864.729,692.762a18.969,18.969,0,0,0,4.462-1.519,18.679,18.679,0,0,0,4.853-3.408l-2.922-4.794-6.742,3.726Z" transform="translate(-805.659 -640.656)" fill="#fff"/>
        <g id="Group_1898" data-name="Group 1898" transform="translate(56.27 51.207)">
          <path id="Path_8169" data-name="Path 8169" d="M895.733,745.374a2.367,2.367,0,0,0,1.247,1.071,2.044,2.044,0,0,0,.94.056l1.339-.229a4.771,4.771,0,0,0,2.872-.528c2.652-1.518,3.477-6.226,2.076-12.109-.228-.956-.515-1.945-.863-2.955q-1-2.83-2-5.659l-9.959,1.711a33.261,33.261,0,0,1,2.338,7.547c.313,1.372.509,2.235.592,2.68a40.49,40.49,0,0,1,.64,5.492A5,5,0,0,0,895.733,745.374Z" transform="translate(-874.419 -711.283)" fill="#f7cfa4"/>
          <path id="Path_8170" data-name="Path 8170" d="M863.482,806.907a3.61,3.61,0,0,0,.984-.675c1.784-1.735.978-4.751.881-5.092l-2.446-4.016a8.654,8.654,0,0,0-1.418,1.62,8.821,8.821,0,0,0-1.334,3.336c-.329,1.6-.622,3.015.214,4.061a2.652,2.652,0,0,0,1.411.918A2.709,2.709,0,0,0,863.482,806.907Z" transform="translate(-859.819 -744.636)" fill="#f7cfa4"/>
          <path id="Path_8171" data-name="Path 8171" d="M866.671,776.458a53.027,53.027,0,0,0,14.431-10.25c1.327-1.333,13.673-13.74,10.232-19.521-1.716-2.884-7.27-3.963-9.137-2.225-.877.816-.111,2.037-.5,4.667a14.954,14.954,0,0,1-2.5,5.965c-3.8,6.2-12.694,14.692-15.427,17.84a1.788,1.788,0,0,0-.543,1.319C863.372,775.374,865.221,776.068,866.671,776.458Z" transform="translate(-861.392 -719.889)" fill="#f7cfa4"/>
          <path id="Path_8172" data-name="Path 8172" d="M893.3,732.266c2.644,1.6,7.285,1.6,10.614-.321-.228-.956-.515-1.945-.863-2.955q-1-2.83-2-5.659l-9.959,1.711A30.65,30.65,0,0,1,893.3,732.266Z" transform="translate(-874.284 -710.5)" fill="#f2ac6d" opacity="0.53"/>
          <path id="Path_8173" data-name="Path 8173" d="M884.385,699.507c6.021.535,9.77,7.805,10.636,9.484a15.852,15.852,0,0,1,1.568,5.034,6.149,6.149,0,0,1-.089,2.8,4.953,4.953,0,0,1-2.245,2.657,6.608,6.608,0,0,1-4.326.909,8.877,8.877,0,0,1-4.535-2.225c-4.84-4.028-9.429-13.617-6.042-17.264C880.932,699.2,883.641,699.441,884.385,699.507Z" transform="translate(-868.315 -699.457)" fill="#ecf5f7"/>
        </g>
      </g>
    </g>
    <g id="Man_5" transform="translate(593.627 390.171)">
      <g id="Group_1906" data-name="Group 1906" transform="translate(0)">
        <g id="Group_1900" data-name="Group 1900" transform="translate(0 29.042)">
          <path id="Path_8174" data-name="Path 8174" d="M1011.544,829.2a6.46,6.46,0,0,1,1.475-7.614l3.746,2.246a26.374,26.374,0,0,0-.864,2.589c-.967,3.482-.678,5.209-1.47,5.472C1013.563,832.184,1012.168,830.46,1011.544,829.2Z" transform="translate(-1010.901 -754.303)" fill="#f7c589"/>
          <path id="Path_8175" data-name="Path 8175" d="M1017.4,792.714a57.618,57.618,0,0,0,13.519-14.888c1.1-1.755,11.267-17.984,6.247-23.585-1.862-2.078-5.821-2.7-7.923-1.259-1.86,1.276-1.937,3.943-2.126,5.669-1.364,12.44-11.4,26.945-13.9,30.768a.928.928,0,0,0,.355,1.327Z" transform="translate(-1011.903 -722.203)" fill="#bbe6ea"/>
          <path id="Path_8176" data-name="Path 8176" d="M1045.851,735.522l-2.946-1.365a5.448,5.448,0,0,1-2.87-5.052l.144-22.278c.038-5.8,4-10.474,8.855-10.442h0c2.146.014,3.945,1.92,4.221,4.463a101.69,101.69,0,0,1,.338,18.2,100.505,100.505,0,0,1-1.728,12.73C1051.228,734.939,1048.388,736.7,1045.851,735.522Z" transform="translate(-1024.378 -696.385)" fill="#bbe6ea"/>
        </g>
        <g id="Group_1901" data-name="Group 1901" transform="translate(9.134 77.409)">
          <path id="Path_8177" data-name="Path 8177" d="M1062.533,800.1c.117,9.5-2.1,15.762-4.358,24.676-1,3.942-2.22,9.239-3.347,15.7a4.232,4.232,0,0,1-7.765,1.507l-.006-.01-.015-.025a16.773,16.773,0,0,1-2.4-9.452q.949-20.668,1.9-41.335a3.5,3.5,0,0,1,1.953-2.986c2.7-1.325,7.709-3.112,11.023-.255C1060.106,788.423,1062.417,790.612,1062.533,800.1Z" transform="translate(-1035.633 -786.384)" fill="#1070bf"/>
          <path id="Path_8178" data-name="Path 8178" d="M1049.626,923.008l-4.56.222a191.091,191.091,0,0,0,.587-47,7.561,7.561,0,0,1,.936-4.635,4.72,4.72,0,0,1,2.735-2.335c1.318-.358,2.594.138,5.151,1.148.827.326,1.493.635,1.942.854a97.057,97.057,0,0,1,.815,19.173A98.062,98.062,0,0,1,1049.626,923.008Z" transform="translate(-1035.839 -824.67)" fill="#1070bf"/>
          <path id="Path_8179" data-name="Path 8179" d="M1047.415,971.314l-7.779-.926,3.571-4.015,4.417.526Z" transform="translate(-1033.327 -869.645)" fill="#195fb2"/>
          <path id="Path_8180" data-name="Path 8180" d="M1041.9,976.831a10.214,10.214,0,0,1-2.188-.031c-1.655-.2-1.773-.638-3.134-.889-2.157-.4-3.335.424-5.474.02a11.873,11.873,0,0,1-1.371-.357,4.313,4.313,0,0,1-.92-.358,4.441,4.441,0,0,1-.581-.368.877.877,0,0,1,.093-1.441c.2-.112.41-.22.636-.323a8.063,8.063,0,0,1,3.436-.711,4.334,4.334,0,0,1,3.073-1.134,5.31,5.31,0,0,1,1.966.808,7.1,7.1,0,0,0,4.75.384,2.793,2.793,0,0,1,1,3.063A2.438,2.438,0,0,1,1041.9,976.831Z" transform="translate(-1027.897 -871.889)" fill="#052b51"/>
        </g>
        <g id="Group_1903" data-name="Group 1903" transform="translate(29.758 77.706)">
          <path id="Path_8181" data-name="Path 8181" d="M1083.6,799.288c1.749,9.34.643,15.888-.051,25.058-.306,4.055-.6,9.483-.6,16.037a4.231,4.231,0,0,1-7.389,2.819l-.008-.009-.019-.022a16.774,16.774,0,0,1-3.994-8.9q-2.62-20.523-5.239-41.045a3.5,3.5,0,0,1,1.411-3.278c2.431-1.769,7.059-4.391,10.815-2.146C1079.2,788.206,1081.853,789.965,1083.6,799.288Z" transform="translate(-1066.273 -786.937)" fill="#2b84ef"/>
          <g id="Group_1902" data-name="Group 1902" transform="translate(7.473 46.311)">
            <path id="Path_8182" data-name="Path 8182" d="M1084.482,968.834l6.181-1.237a16,16,0,0,1-.773-2.626,16.228,16.228,0,0,1-.163-5.454l-4.132-.786Z" transform="translate(-1082.169 -912.718)" fill="#195fb2"/>
            <path id="Path_8183" data-name="Path 8183" d="M1088.362,922.737c-1.011.231-2.094.441-3.244.618-.875.134-1.718.238-2.524.317.083-1.38.177-3.353.206-5.725.04-3.3-.046-7.266-.464-12.206-1.03-12.182-2.119-22.966-2.119-22.966a13.151,13.151,0,0,1,.94-5.882,6.091,6.091,0,0,1,3.945-3.734c2.493-.591,5.16,4.32,5.533,7.971a74.689,74.689,0,0,1,.372,8.367c-.04,4.541-.243,7.946-.263,8.352-.721,14.485-1.437,19.544-2.072,23.187C1088.542,921.779,1088.43,922.379,1088.362,922.737Z" transform="translate(-1080.178 -873.11)" fill="#2b84ef"/>
            <path id="Path_8184" data-name="Path 8184" d="M1085.4,979.37l3.959-.684a2.083,2.083,0,0,0,1.6-1.936h0a2.372,2.372,0,0,0-2.465-2.645l-1.628.085a3.764,3.764,0,0,0-3.4,3.516h0A1.577,1.577,0,0,0,1085.4,979.37Z" transform="translate(-1081.7 -919.828)" fill="#052b51"/>
          </g>
        </g>
        <path id="Path_8185" data-name="Path 8185" d="M1073.924,750.26a47.051,47.051,0,0,1-29.172,1.345c3.226-16.365,3.8-23.184,3.6-26.195l-.414-5.959h0c-.343-3.331-.76-5.55-.958-6.772-.758-4.682-1.89-10.71.509-15.8a15.223,15.223,0,0,1,11.375-8.258,14.987,14.987,0,0,1,7.782,1.033,14.3,14.3,0,0,1,4.822,3.954c2.675,3.456,2.993,7.342,3.206,10.419a28.058,28.058,0,0,1-.262,6.46c-1.533,10.872-2.3,16.308-2.2,19.281.065,2.041.247,5.045.767,11.05C1073.312,744.742,1073.663,747.995,1073.924,750.26Z" transform="translate(-1026.56 -663.686)" fill="#d1eaed"/>
        <path id="Path_8186" data-name="Path 8186" d="M1064.356,696.967v-8.962h8.962Z" transform="translate(-1035.629 -663.466)" fill="#fff"/>
        <g id="Group_1904" data-name="Group 1904" transform="translate(19.426)">
          <path id="Path_8187" data-name="Path 8187" d="M1071.256,661.521c-.2,2.621-1.815,4.635-3.607,4.5s-3.083-2.373-2.883-4.994,1.815-4.635,3.607-4.5S1071.456,658.9,1071.256,661.521Z" transform="translate(-1055.235 -648.902)" fill="#032349"/>
          <path id="Path_8188" data-name="Path 8188" d="M1056.887,671.689a23.378,23.378,0,0,0,6.819-3.375l6.243,11.217a12.545,12.545,0,0,1-7.784,2.228,20.855,20.855,0,0,0-5.277-10.07Z" transform="translate(-1051.6 -654.357)" fill="#f2b879"/>
          <path id="Path_8189" data-name="Path 8189" d="M1063.631,670.392a7.166,7.166,0,0,1-1.124,2.8,5.943,5.943,0,0,1-3.666,2.209,6.3,6.3,0,0,0-3.505-3.24c2.415-.926,5.132-2.107,7.546-3.033C1063.108,669.518,1063.36,669.943,1063.631,670.392Z" transform="translate(-1050.883 -654.733)" fill="#e5a76a"/>
          <path id="Path_8190" data-name="Path 8190" d="M1055.218,643.891a8.631,8.631,0,0,1,2.888,2.749,8.225,8.225,0,0,1,1.242,3.845,2.2,2.2,0,0,0-1.672-.218,10.6,10.6,0,0,0-3.434,1.2,1.1,1.1,0,0,1-.425.168,1.061,1.061,0,0,1-.544-.154,4.363,4.363,0,0,0-1.917-.567,1.788,1.788,0,0,0-1.607.993,3,3,0,0,1-1.769-.94,1.719,1.719,0,0,1-.285-.823c-.687-5.743-.863-6.248-.344-6.864C1048.843,641.507,1052.955,642.56,1055.218,643.891Z" transform="translate(-1047.049 -642.344)" fill="#032349"/>
          <path id="Path_8191" data-name="Path 8191" d="M1050.642,660.846a.91.91,0,0,1,.564.966c-.1.315-.5.348-.488.6.009.157.162.18.312.5.093.2.054.241.135.374.15.25.367.252.531.393.347.3.047.884.192,1.284.264.734,2.017.839,3.171.724a6.456,6.456,0,0,0,4.71-2.359,8.325,8.325,0,0,0,1.262-3.5c.387-2.082.6-4.4-.574-6.162a5.83,5.83,0,0,0-4.806-2.322c-2.111-.025-4.515,1.076-4.924,3.341a17.051,17.051,0,0,0-.031,1.713,6.767,6.767,0,0,1-.207.812,10.2,10.2,0,0,1-.511,1.628c-.38.72-.749.8-.712,1.209a.972.972,0,0,0,.614.774C1050.2,660.939,1050.338,660.735,1050.642,660.846Z" transform="translate(-1048.072 -646.51)" fill="#f7c589"/>
          <path id="Path_8192" data-name="Path 8192" d="M1060.452,651.728a10.848,10.848,0,0,1,.791,3.923,3.189,3.189,0,0,0,3.374,2.465,3.124,3.124,0,0,0,2.532-2.254,20.092,20.092,0,0,1,.8-1.985,4.464,4.464,0,0,0-.448-4.461,5.562,5.562,0,0,0-3.591-1.781,11.575,11.575,0,0,0-4.325.36c-.785.2-2.124.519-2.541,1.148C1058.573,649.85,1059.72,650.194,1060.452,651.728Z" transform="translate(-1051.674 -644.757)" fill="#032349"/>
          <path id="Path_8193" data-name="Path 8193" d="M1067.734,662.314a1.293,1.293,0,1,1-1.471-1.085A1.293,1.293,0,0,1,1067.734,662.314Z" transform="translate(-1055.429 -651.073)" fill="#f7c589"/>
        </g>
        <rect id="Rectangle_806" data-name="Rectangle 806" width="21.168" height="30.946" transform="translate(24.816 53.771) rotate(-8.673)" fill="#2b84ef"/>
        <g id="Group_1905" data-name="Group 1905" transform="translate(11.103 29.786)">
          <path id="Path_8194" data-name="Path 8194" d="M1031.836,790.247a6.46,6.46,0,0,1,6.161-4.711l1.307,4.168a26.462,26.462,0,0,0-2.365,1.361c-3.037,1.96-3.967,3.444-4.735,3.114C1031.364,793.817,1031.466,791.6,1031.836,790.247Z" transform="translate(-1031.561 -738.369)" fill="#f7c589"/>
          <path id="Path_8195" data-name="Path 8195" d="M1042.856,775.382a57.627,57.627,0,0,0,20-2.146c1.988-.581,20.37-5.956,20.339-13.478-.012-2.79-2.557-5.886-5.085-6.2-2.238-.282-4.068,1.661-5.355,2.825-9.284,8.392-26.422,12.565-30.829,13.762a.927.927,0,0,0-.616,1.227Z" transform="translate(-1036.04 -723.562)" fill="#ddeff2"/>
          <path id="Path_8196" data-name="Path 8196" d="M1098.294,736.192l-3.221-.407a5.448,5.448,0,0,1-4.266-3.943l-6.618-21.273c-1.722-5.537.638-11.194,5.271-12.636h0c2.05-.637,4.341.634,5.376,2.972a101.581,101.581,0,0,1,5.84,17.238,100.363,100.363,0,0,1,2.214,12.654C1103.24,734.007,1101.067,736.543,1098.294,736.192Z" transform="translate(-1055.645 -697.769)" fill="#ddeff2"/>
        </g>
      </g>
    </g>
  </g>
</svg>
