<?xml version="1.0" encoding="utf-8"?>
<!-- Generator: Adobe Illustrator 16.0.0, SVG Export Plug-In . SVG Version: 6.00 Build 0)  -->
<!DOCTYPE svg PUBLIC "-//W3C//DTD SVG 1.1//EN" "http://www.w3.org/Graphics/SVG/1.1/DTD/svg11.dtd">
<svg version="1.1" id="Layer_1" xmlns="http://www.w3.org/2000/svg" xmlns:xlink="http://www.w3.org/1999/xlink" x="0px" y="0px"
	 width="20px" height="19.037px" viewBox="0 0 20 19.037" enable-background="new 0 0 20 19.037" xml:space="preserve">
<g>
	<path fill="#FFFFFF" d="M17.374,0H2.627C1.178,0,0,1.178,0,2.627v13.784c0,1.448,1.178,2.626,2.627,2.626h14.747
		c1.448,0,2.626-1.178,2.626-2.626V2.627C20,1.178,18.822,0,17.374,0z M18.592,15.666c0,1.083-0.877,1.96-1.959,1.96H3.367
		c-1.082,0-1.959-0.878-1.959-1.96V7.068c0-1.083,0.877-1.96,1.959-1.96h13.266c1.082,0,1.959,0.877,1.959,1.96V15.666z"/>
	<path fill="#FFFFFF" d="M9.332,11.936L7.364,9.967l-1.65,1.65l3.618,3.616h0l5.753-5.754c-0.34-0.724-0.814-1.367-1.396-1.9
		L9.332,11.936z"/>
</g>
</svg>
